<?xml version="1.0" encoding="UTF-8" standalone="no"?>
<!DOCTYPE svg PUBLIC "-//W3C//DTD SVG 1.1//EN" "http://www.w3.org/Graphics/SVG/1.1/DTD/svg11.dtd">
<!-- Created with Vectornator (http://vectornator.io/) -->
<svg height="20px" stroke-miterlimit="10" style="fill-rule:nonzero;clip-rule:evenodd;stroke-linecap:round;stroke-linejoin:round;" version="1.1" viewBox="0 0 1024 1024" width="20px" xml:space="preserve" xmlns="http://www.w3.org/2000/svg" xmlns:vectornator="http://vectornator.io" xmlns:xlink="http://www.w3.org/1999/xlink">
<defs/>
<g id="Layer-1" vectornator:layerName="Layer 1">
<path d="M305.383 628.704C279.464 640.186 250.503 649.371 230.862 671.696C211.422 693.794 193.327 717.493 179.271 743.351C170.641 759.226 164.946 777.246 163.689 795.272C160.975 834.166 162.789 873.473 167.491 912.178C168.165 917.724 174.524 921.194 179.331 924.039C204.653 939.028 232.996 919.529 236.442 892.659C241.255 855.128 233.57 814.22 249.492 779.895C256.606 764.56 264.91 749.283 276.482 736.962C288.675 723.979 303.867 713.785 319.535 705.314C330.446 699.415 342.933 696.74 355.123 694.447C366.792 692.251 378.934 690.04 390.657 691.932C417 696.183 441.645 708.347 467.979 712.659C493.104 716.773 518.902 719.657 544.231 717.077C587.819 712.639 629.495 694.71 673.209 691.76C694.271 690.338 716.168 695.277 735.31 704.18C755.979 713.793 774.528 728.694 789.528 745.859C800.594 758.521 807.89 774.863 811.442 791.3C819.893 830.406 815.174 871.791 825.117 910.544C827.242 918.828 837.603 923.504 845.896 925.592C855.916 928.114 867.333 927.639 876.827 923.562C884.78 920.146 892.103 912.937 894.631 904.659C899.463 888.839 897.991 871.671 897.726 855.132C897.41 835.363 896.364 815.48 892.89 796.017C886.92 762.578 876.178 731.995 855.45 704.896C844.467 690.537 832.721 676.241 818.19 665.486C798.02 650.558 774.401 640.964 752.507 628.704C765.806 610.831 780.273 593.772 792.404 575.087C805.082 555.561 811.197 531.584 826.788 514.295C837.002 502.97 862.797 508.896 864.173 494.872C867.802 457.882 869.241 420.64 868.988 383.473C868.807 356.9 873.603 328.297 862.874 303.985C857.786 292.456 835.971 299.562 827.744 290.017C804.346 262.869 792.725 227.289 771.734 198.24C761.166 183.615 747.293 171.579 733.638 159.785C696.553 127.754 649.239 108.007 602.45 93.4449C586.471 88.4716 569.524 86.968 552.83 85.8017C534.086 84.4923 515.046 83.274 496.461 86.0406C469.264 90.0892 442.028 96.0196 416.447 106.104C388.123 117.27 360.209 130.88 335.972 149.307C311.053 168.251 289.653 191.919 270.75 216.87C254.012 238.962 248.282 268.549 229.907 289.3C220.797 299.588 197.011 292.874 192.088 305.702C180.651 335.502 187.003 369.401 186.914 401.32C186.826 432.8 179.946 466.386 191.557 495.646C196.897 509.1 221.352 502.638 231.295 513.158C244.659 527.299 246.932 548.97 257.434 565.349C271.73 587.644 289.4 607.585 305.383 628.704ZM528.945 164.383C590.923 164.383 653.187 189.264 697.094 233.171C716.999 253.076 733.471 277.393 744.207 303.452C802.523 445.007 729.191 602.925 574.804 633.481C543.116 639.752 514.774 639.948 483.086 633.481C333.461 602.945 253.121 448.76 311.115 307.692C334.095 251.795 379.089 206.104 435.316 183.491C450.74 177.288 466.797 172.484 483.086 169.16C498.145 166.087 513.576 164.383 528.945 164.383ZM392.324 303.87C383.804 306.713 375.913 311.843 369.394 318.022C344.539 341.582 341.798 376.463 344.315 408.486C347.172 444.823 359.802 481.622 385.158 508.563C435.884 562.46 506.409 562.807 575.759 555.616C585.152 554.642 594.572 553.1 603.58 550.266C688.371 523.594 719.561 448.874 711.246 365.493C709.07 343.678 699.528 323.304 680.733 310.737C663.138 298.973 639.917 297.112 618.752 296.944C562.462 296.495 506.16 296.495 449.877 297.45C430.576 297.777 410.635 297.76 392.324 303.87ZM433.214 416.406C461.538 404.987 467.101 375.588 475.443 349.729C480.133 362.405 484.434 375.233 489.513 387.758C500.143 413.972 530.393 418.765 553.785 426.16C552.73 427.275 552.03 428.898 550.62 429.504C529.156 438.734 498.68 443.407 488.983 468.893C484.543 480.563 481.23 492.633 477.354 504.503C476.259 503.468 474.649 502.788 474.069 501.398C469.04 489.33 466.135 476.415 460.692 464.529C449.751 440.637 420.657 435.615 399.011 428.071C410.412 424.183 422.042 420.91 433.214 416.406ZM343.599 928.697C383.725 928.697 383.725 928.697 423.852 928.697C423.991 899.047 419.248 868.526 426.539 839.786C431.082 821.876 455.668 819.865 467.859 831.068C476.627 839.124 474.819 856.47 475.144 865.104C475.941 886.287 475.343 907.499 475.443 928.697C594.867 928.697 594.867 928.697 714.291 928.697C713.754 899.677 713.822 870.639 712.679 841.637C711.935 822.78 712.418 799.594 698.527 786.821C692.553 781.328 686.094 775.368 678.225 773.386C663.913 769.781 648.795 770.789 634.038 770.579C578.671 769.793 523.291 770.032 467.919 770.4C446.129 770.545 424.334 771.036 402.57 772.12C381.146 773.187 375.052 773.172 357.93 786.343C355.398 788.291 347.806 797.868 347.559 802.951C345.517 844.837 344.919 886.781 343.599 928.697ZM619.822 872.099C592.703 888.816 568.773 843.496 593.912 828.381C622.866 810.971 650.372 853.267 619.822 872.099Z" fill="#ddd" fill-rule="nonzero" opacity="1" stroke="none"/>
</g>
</svg>
