<?xml version="1.0" encoding="UTF-8" standalone="no"?>
<!DOCTYPE svg PUBLIC "-//W3C//DTD SVG 1.1//EN" "http://www.w3.org/Graphics/SVG/1.1/DTD/svg11.dtd">
<!-- Created with Vectornator (http://vectornator.io/) -->
<svg height="100%" stroke-miterlimit="10" style="fill-rule:nonzero;clip-rule:evenodd;stroke-linecap:round;stroke-linejoin:round;" version="1.1" viewBox="0 0 1024 1024" width="100%" xml:space="preserve" xmlns="http://www.w3.org/2000/svg" xmlns:vectornator="http://vectornator.io" xmlns:xlink="http://www.w3.org/1999/xlink">
<defs/>
<clipPath id="ArtboardFrame">
<rect height="1024" width="1024" x="0" y="0"/>
</clipPath>
<g clip-path="url(#ArtboardFrame)" id="Layer-1" vectornator:layerName="Layer 1">
<path d="M384.115 236.55C326.542 236.536 268.931 237.519 211.391 237.429C190.52 237.397 168.672 237.97 150.725 250.035C120.747 270.193 107.201 296.728 106.578 332.708C104.818 434.348 106.45 536.003 105.567 637.655C105.434 653.13 88.8845 664.103 84.0869 678.816C80.1496 690.889 79.9204 704.218 81.5398 716.813C84.011 736.057 88.1817 755.51 96.211 773.173C103.688 789.622 114.772 804.531 127.312 817.539C146.107 837.039 166.857 854.997 189.47 869.901C213.09 885.468 239.008 897.487 265.113 908.382C269.111 910.051 274.216 908.905 278.029 906.844C283.203 904.048 289.412 900.291 290.68 894.545C293.354 882.415 297.329 866.483 288.923 857.339C272.338 839.301 244.85 835.725 224.305 822.372C187.841 798.674 165.96 778.792 145.937 740.534C129.128 708.416 123.328 675.033 122.524 639.105C120.276 538.662 118.363 438.114 120.723 337.672C121.345 311.181 131.343 280.332 152.966 265.016C161.495 258.973 171.512 253.419 181.958 253.022C298.754 248.589 415.712 250.045 532.591 250.607C540.717 250.647 549.012 251.96 556.618 254.824C575.67 261.999 605.438 289.601 606.345 311.623C610.406 410.129 607.988 508.847 607.18 607.432C606.456 695.577 581.768 772.106 506.189 823.426C485.056 837.777 455.506 841.908 440.122 862.302C428.893 877.187 437.991 899.58 434.85 917.959C432.576 931.271 428.116 931.392 418.509 936.891C416.746 934.278 413.482 932.173 413.238 929.029C411.687 909.048 411.271 888.878 413.238 868.936C414.739 853.719 418.265 838.559 423.561 824.216C430.951 804.202 461.696 805.12 480.711 795.443C513.244 778.89 538.912 760.186 559.475 729.597C568.201 716.612 578.293 702.723 579.417 687.118C586.035 595.29 583.242 503.006 582.404 410.943C582.109 378.452 582.344 345.518 576.035 313.643C574.052 303.627 553.394 285.193 541.639 284.08C507.818 280.876 473.743 281.458 439.77 281.357C360.242 281.119 280.618 279.767 201.154 283.025C190.831 283.449 180.419 286.968 171.591 292.338C163.67 297.157 154.363 303.537 152.571 312.633C145.991 345.99 148.089 380.506 147.519 414.501C146.384 481.949 147.209 549.421 147.432 616.877C147.644 682.194 154.807 722.738 205.723 769.351C227.203 789.015 256.926 797.051 282.729 810.555C287.188 812.889 291.203 816.596 293.623 821.01C310.298 851.424 301.076 890.104 308.338 924.02C311.173 937.261 328.851 950.23 341.944 946.776C346.468 945.582 352.01 942.119 352.487 937.463C356.452 898.631 354.057 859.421 354.858 820.394C376.472 819.794 376.469 819.81 398.083 819.209C398.683 857.835 397.084 896.562 399.884 935.09C400.38 941.902 411.312 951.451 418.906 947.214C427.459 942.439 435.564 935.686 440.43 927.183C445.08 919.057 444.239 908.808 446.141 899.64C467.216 905.143 468.285 909.732 487.872 899.816C505.513 890.887 522.845 881.219 539.179 870.077C603.217 826.391 649.303 776.343 649.088 694.936C649.041 677.832 634.045 664.028 629.495 647.539C625.884 634.447 626.149 620.526 625.805 606.95C623.28 507.539 629.666 407.733 620.885 308.679C619.387 291.777 607.191 276.825 595.451 264.576C585.043 253.718 571.621 242.662 556.618 241.601C499.22 237.541 441.686 236.563 384.115 236.55ZM367.774 466.952C372.497 467.265 376.157 475.914 380.073 479.866C397.479 497.431 414.788 515.132 431.293 533.546C444.138 547.879 439.918 553.327 426.768 566.448C412.775 580.412 391.173 606.391 368.169 613.846C358.294 617.047 352.374 609.924 345.81 603.742C326.39 585.458 305.812 567.544 291.47 545.055C290.465 543.477 292.732 541.404 293.975 540.004C304.914 527.67 316.262 515.715 327.842 503.983C340.171 491.492 349.732 474.75 365.665 467.39C366.386 467.057 367.097 466.907 367.774 466.952ZM107.721 654.304C108.126 654.031 108.442 654.107 108.686 654.699C112.704 664.423 111.814 675.525 114.266 685.756C121.425 715.644 131.447 750.506 150.77 775.281C174.165 805.28 198.692 826.184 232.387 843.809C249.475 852.746 289.052 857.923 277.502 887.253C273.511 897.384 263.632 896.798 255.273 892.436C232.025 880.303 208.495 868.099 187.845 851.935C133.296 809.232 66.0308 735.122 103.899 660.718C104.77 659.004 106.503 655.124 107.721 654.304ZM620.885 658.74C624.853 658.889 626.968 671.589 629.495 676.97C638.695 696.57 637.309 721.843 632.306 742.291C618.192 799.999 568.554 835.186 521.784 866.344C507.952 875.558 492.983 882.939 478.251 890.635C472.624 893.576 466.228 896.063 459.934 893.052C451.821 889.172 448.576 871.937 456.771 866.651C481.258 850.856 508.859 839.692 531.756 821.669C577.986 785.275 595.758 747.976 611.221 692.521C614.259 681.626 610.424 666.813 619.041 659.488C619.687 658.937 620.319 658.719 620.885 658.74ZM322.176 818.155C324.699 818.043 328.219 820.335 330.874 821.01C336.631 822.473 338.257 831.177 339.263 835.857C344.886 862.004 343.281 891.796 342.998 918.135C342.827 934.075 331.386 945.982 321.562 928.018C316.491 918.749 318.383 893.524 318.267 886.462C317.99 869.852 318.105 853.2 318.837 836.605C319.095 830.792 316.521 823.82 320.067 819.209C320.624 818.485 321.335 818.192 322.176 818.155Z" fill="#f3f3f3" fill-rule="nonzero" opacity="1" stroke="none"/>
<path d="M364.479 484.171C347.017 504.807 325.299 523.452 309.262 544.835C320.753 559.269 333.756 572.4 346.643 585.6C366.203 605.637 365.558 609.177 385.696 588.763C399.296 574.976 412.38 560.683 425.713 546.636C404.561 526.575 384.115 505.721 364.479 484.171ZM367.685 534.908C376.341 533.924 382.452 545.109 377.701 550.81C369.176 561.04 341.709 560.263 358.461 540.618C361.603 536.933 364.799 535.236 367.685 534.908Z" fill="#000000" fill-rule="nonzero" opacity="1" stroke="none"/>
<path d="M364.479 484.171C347.017 504.807 325.299 523.452 309.262 544.835C320.753 559.269 333.756 572.4 346.643 585.6C366.203 605.637 365.558 609.177 385.696 588.763C399.296 574.976 412.38 560.683 425.713 546.636C404.561 526.575 384.115 505.721 364.479 484.171ZM367.685 534.908C376.341 533.924 382.452 545.109 377.701 550.81C369.176 561.04 341.709 560.263 358.461 540.618C361.603 536.933 364.799 535.236 367.685 534.908Z" fill="#000000" fill-rule="nonzero" opacity="1" stroke="none"/>
<path d="M345.765 296.336C325.533 296.232 305.285 296.214 285.057 296.379C258.086 296.602 231.143 297.091 204.186 298.049C183.187 298.796 164.963 311.207 164.782 334.817C163.954 443.336 163.061 551.889 163.773 660.41C163.993 694.172 179.047 724.398 201.946 748.836C253.199 803.539 333.896 810.345 404.101 804.801C437.975 802.126 471.785 789.213 499.996 770.273C522.632 755.076 554.6 725.079 560.88 695.639C566.613 668.762 565.034 640.793 565.668 613.319C567.042 553.777 566.891 494.222 566.898 434.664C566.901 404.041 567.341 373.345 565.668 342.767C565.207 334.346 564.379 325.539 560.529 318.036C553.004 303.376 542.861 298.689 527.847 298.532C467.157 297.896 406.462 296.649 345.765 296.336ZM367.774 466.952C372.497 467.265 376.157 475.914 380.073 479.866C397.479 497.431 414.788 515.132 431.293 533.546C444.138 547.879 439.918 553.327 426.768 566.448C412.775 580.412 391.173 606.391 368.169 613.846C358.294 617.047 352.374 609.924 345.81 603.742C326.39 585.458 305.812 567.544 291.47 545.055C290.465 543.477 292.732 541.404 293.975 540.004C304.914 527.67 316.262 515.715 327.842 503.983C340.171 491.492 349.732 474.75 365.665 467.39C366.386 467.057 367.097 466.907 367.774 466.952Z" fill="#f3f3f3" fill-rule="nonzero" opacity="1" stroke="none"/>
<path d="M364.479 484.171C347.017 504.807 325.299 523.452 309.262 544.835C320.753 559.269 333.756 572.4 346.643 585.6C366.203 605.637 365.558 609.177 385.696 588.763C399.296 574.976 412.38 560.683 425.713 546.636C404.561 526.575 384.115 505.721 364.479 484.171ZM367.685 534.908C376.341 533.924 382.452 545.109 377.701 550.81C369.176 561.04 341.709 560.263 358.461 540.618C361.603 536.933 364.799 535.236 367.685 534.908Z" fill="#000000" fill-rule="nonzero" opacity="1" stroke="none"/>
<path d="M364.479 484.171C347.017 504.807 325.299 523.452 309.262 544.835C320.753 559.269 333.756 572.4 346.643 585.6C366.203 605.637 365.558 609.177 385.696 588.763C399.296 574.976 412.38 560.683 425.713 546.636C404.561 526.575 384.115 505.721 364.479 484.171ZM367.685 534.908C376.341 533.924 382.452 545.109 377.701 550.81C369.176 561.04 341.709 560.263 358.461 540.618C361.603 536.933 364.799 535.236 367.685 534.908Z" fill="#ed6d48" fill-rule="nonzero" opacity="1" stroke="none"/>
<g opacity="1">
<g opacity="1">
<clipPath id="ClipPath">
<path d="M-54.5269 45.146L652.575 45.146L652.575 45.146L652.575 510.368L652.575 510.368L-54.5269 510.368L-54.5269 510.368L-54.5269 45.146L-54.5269 45.146Z"/>
</clipPath>
<g clip-path="url(#ClipPath)">
<path d="M155.797 148.203L229.722 149.528L230.148 125.779L155.554 124.441L156.183 89.3198L230.61 90.6538L231.042 66.5701L133.2 64.8158L130.649 207.145L154.733 207.578L155.797 148.203Z" fill="#f3f3f3" fill-rule="nonzero" opacity="1" stroke="none"/>
</g>
</g>
<g opacity="1">
<clipPath id="ClipPath_2">
<path d="M-54.5269 45.146L652.575 45.146L652.575 45.146L652.575 510.368L652.575 510.368L-54.5269 510.368L-54.5269 510.368L-54.5269 45.146L-54.5269 45.146Z"/>
</clipPath>
<g clip-path="url(#ClipPath_2)">
<path d="M270.347 67.2743L245.259 66.8245L242.706 209.155L344.896 210.987L345.328 186.903L268.225 185.521L270.347 67.2743Z" fill="#f3f3f3" fill-rule="nonzero" opacity="1" stroke="none"/>
</g>
</g>
<g opacity="1">
<clipPath id="ClipPath_3">
<path d="M-54.5269 45.146L652.575 45.146L652.575 45.146L652.575 510.368L652.575 510.368L-54.5269 510.368L-54.5269 510.368L-54.5269 45.146L-54.5269 45.146Z"/>
</clipPath>
<g clip-path="url(#ClipPath_3)">
<path d="M403.477 69.6612C380.731 69.2535 361.833 87.4854 361.423 110.4L360.356 169.94C359.947 192.686 378.179 211.584 400.925 211.992L417.149 212.283C440.061 212.693 458.792 194.458 459.2 171.713L460.268 112.171C460.679 89.2579 442.614 70.364 419.701 69.9522L403.477 69.6612ZM433.637 169.748C433.46 179.616 427.126 187.7 417.425 187.527L401.537 187.242C391.836 187.067 385.795 178.761 385.972 168.893L386.988 112.196C387.165 102.328 393.501 94.2439 403.201 94.4182L419.09 94.7022C428.79 94.8765 434.831 103.183 434.655 113.051L433.637 169.748Z" fill="#f3f3f3" fill-rule="nonzero" opacity="1" stroke="none"/>
</g>
</g>
<g opacity="1">
<clipPath id="ClipPath_4">
<path d="M-54.5269 45.146L652.575 45.146L652.575 45.146L652.575 510.368L652.575 510.368L-54.5269 510.368L-54.5269 510.368L-54.5269 45.146L-54.5269 45.146Z"/>
</clipPath>
<g clip-path="url(#ClipPath_4)">
<path d="M572.902 72.7003L547.313 72.2406C541.201 95.8886 534.93 119.032 528.821 142.511L522.893 165.158L521.555 165.134L499.646 71.386L474.057 70.9277L507.799 213.908L535.059 214.397L559.282 123.149L581.053 215.222L608.315 215.711L645.991 74.0104L620.569 73.555C612.308 105.027 604.069 135.328 596.149 166.473L594.811 166.449L572.902 72.7003Z" fill="#f3f3f3" fill-rule="nonzero" opacity="1" stroke="none"/>
</g>
</g>
</g>
<g opacity="1">
<g opacity="1">
<clipPath id="ClipPath_5">
<path d="M544.458 162.808L1003.5 162.808L1003.5 162.808L1003.5 335.666L1003.5 335.666L544.458 335.666L544.458 335.666L544.458 162.808L544.458 162.808Z"/>
</clipPath>
<g clip-path="url(#ClipPath_5)">
<path d="M691.754 294.871L716.943 294.871L676.725 245.886L682.709 245.886C700.661 245.886 714.856 231.413 714.856 213.739L714.856 208.59C714.856 190.916 700.661 176.443 682.709 176.443L631.914 176.443L631.914 294.871L653.902 294.871L653.902 246.999L691.754 294.871ZM679.23 197.178C688.971 197.178 693.564 202.884 693.564 211.234C693.564 219.862 689.11 225.15 679.23 225.15L653.902 225.15L653.902 197.178L679.23 197.178Z" fill="#ed6d48" fill-rule="nonzero" opacity="1" stroke="none"/>
</g>
</g>
<g opacity="1">
<clipPath id="ClipPath_6">
<path d="M544.458 162.808L1003.5 162.808L1003.5 162.808L1003.5 335.666L1003.5 335.666L544.458 335.666L544.458 335.666L544.458 162.808L544.458 162.808Z"/>
</clipPath>
<g clip-path="url(#ClipPath_6)">
<path d="M787.499 294.871L808.373 294.871L779.149 176.443L756.465 176.443L726.128 294.871L747.141 294.871L751.456 276.78L783.324 276.78L787.499 294.871ZM767.181 210.816L768.294 210.816L779.288 259.245L755.63 259.245L767.181 210.816Z" fill="#ed6d48" fill-rule="nonzero" opacity="1" stroke="none"/>
</g>
</g>
<g opacity="1">
<clipPath id="ClipPath_7">
<path d="M544.458 162.808L1003.5 162.808L1003.5 162.808L1003.5 335.666L1003.5 335.666L544.458 335.666L544.458 335.666L544.458 162.808L544.458 162.808Z"/>
</clipPath>
<g clip-path="url(#ClipPath_7)">
<path d="M847.757 294.871L868.909 294.871L868.909 198.292L899.525 198.292L899.525 176.443L817.419 176.443L817.419 198.292L847.757 198.292L847.757 294.871Z" fill="#ed6d48" fill-rule="nonzero" opacity="1" stroke="none"/>
</g>
</g>
<g opacity="1">
<clipPath id="ClipPath_8">
<path d="M544.458 162.808L1003.5 162.808L1003.5 162.808L1003.5 335.666L1003.5 335.666L544.458 335.666L544.458 335.666L544.458 162.808L544.458 162.808Z"/>
</clipPath>
<g clip-path="url(#ClipPath_8)">
<path d="M933.62 245.468L992.626 245.468L992.626 225.707L933.62 225.707L933.62 196.483L992.626 196.483L992.626 176.443L911.215 176.443L911.215 294.871L992.626 294.871L992.626 274.832L933.62 274.832L933.62 245.468Z" fill="#ed6d48" fill-rule="nonzero" opacity="1" stroke="none"/>
</g>
</g>
</g>
</g>
</svg>
