<?xml version="1.0" encoding="UTF-8" standalone="no"?>
<!DOCTYPE svg PUBLIC "-//W3C//DTD SVG 1.1//EN" "http://www.w3.org/Graphics/SVG/1.1/DTD/svg11.dtd">
<!-- Created with Vectornator (http://vectornator.io/) -->
<svg height="100%" stroke-miterlimit="10" style="fill-rule:nonzero;clip-rule:evenodd;stroke-linecap:round;stroke-linejoin:round;" version="1.1" viewBox="0 0 1024 1024" width="100%" xml:space="preserve" xmlns="http://www.w3.org/2000/svg" xmlns:vectornator="http://vectornator.io" xmlns:xlink="http://www.w3.org/1999/xlink">
<defs/>
<clipPath id="ArtboardFrame">
<rect height="1024" width="1024" x="0" y="0"/>
</clipPath>
<g clip-path="url(#ArtboardFrame)" id="Layer-2" vectornator:layerName="Layer 2">
<path d="M397.899 49.3525C398.456 55.0917 400.823 95.5072 400.969 100.281C401.312 111.539 399.694 117.837 397.125 121.531C397.125 121.531 396.147 122.537 393.969 123.406C372.421 132.004 345.392 136.707 317.375 148.969C300.636 156.295 285.358 166.272 271.906 177.844C271.951 177.805 271.861 177.875 271.5 178.188C271.139 178.5 271.049 178.602 271.094 178.562C252.563 194.623 234.435 212.543 219.031 233.344C206.997 249.594 197.555 268.01 191.562 287.531C185.709 306.597 186.419 324.407 186.344 338.562C185.48 500.378 183.137 662.682 187.625 825.281C187.627 825.364 187.647 825.7 187.656 826.031C188.19 845.27 197.05 860.935 205.875 872.406C214.413 883.505 227.61 901.354 250.844 907.781C273.983 914.182 295.934 911.244 312.688 910.938C330.56 910.611 339.823 912.793 345 917.375C348.079 920.1 350.575 923.958 351.531 926.969C352.003 928.453 352.404 932.523 352.594 939.5C352.775 946.173 352.775 956.001 357.188 967.094C359.613 973.191 363.077 979.494 368.469 985.469C373.705 991.27 381.845 997.807 393.562 999.562C435.063 1005.78 477.853 1007.54 520.156 1003.22C520.115 1003.22 520.198 1003.22 520.531 1003.19C520.698 1003.17 520.865 1003.13 520.906 1003.12C540.804 1000.94 558.218 988.503 567.156 971.25C573.921 958.192 574.518 945.677 575 936.719C575.502 927.395 575.955 920.95 577.031 917.562C577.398 916.407 577.579 916.166 577.938 915.281C604.874 910.554 636.769 913.278 672.25 908.594C684.387 906.991 693.899 901.648 701.156 896.344C709.24 890.436 721.657 882.259 730.312 867.312C738.935 852.421 746.869 834.503 748.438 814.031C752.108 766.124 749.594 673.75 749.594 673.75L749.562 596.312C749.562 596.312 753.738 380.629 747.781 271.406C747.784 271.448 747.768 271.365 747.75 271.031C746.487 247.968 734.261 231.171 725.594 219.312C725.835 219.646 725.367 218.982 723.438 216.312C715.118 204.802 684.204 182.496 677.426 176.995C670.36 171.261 677.375 94.2188 677.375 94.2188C677.375 94.2188 658.872 92.8491 640.375 91.4688C626.191 90.4102 616.377 100.302 614.219 111.688C613.32 112.214 611.406 113.219 611.406 113.219L609.574 150.268C609.574 150.268 558.545 134.903 539.125 128.906C534.306 127.418 530.97 126.384 528.688 125.5C526.313 114.433 525.492 66.2903 525.912 49.8919C530.237 49.7466 391.25 48.7632 397.899 49.3525Z" fill="#eeeeee" fill-rule="nonzero" opacity="1" stroke="none"/>
<path d="M422.841 60.0313C423.2 85.2916 431.835 114.883 417.413 135.625C414.012 140.516 408.655 144.15 403.122 146.358C378.378 156.232 351.69 160.909 327.283 171.59C312.928 177.873 299.514 186.638 287.662 196.888C269.844 212.299 252.914 229.107 238.893 248.038C228.497 262.077 220.301 278.07 215.175 294.77C210.859 308.828 211.141 323.989 211.062 338.694C210.196 500.91 207.845 663.19 212.342 825.345C212.661 836.863 218.42 848.2 225.446 857.333C233.907 868.332 244.066 880.271 257.441 883.97C291.176 893.302 335.171 875.687 361.381 898.884C367.558 904.351 372.581 911.633 375.077 919.494C378.99 931.817 375.358 945.936 380.136 957.95C383.121 965.454 389.223 973.943 397.21 975.14C437.04 981.107 477.922 982.733 517.984 978.602C528.94 977.472 540.145 969.659 545.212 959.878C552.949 944.944 548.38 926.131 553.471 910.1C555.715 903.036 559.466 893.853 566.697 892.226C600.081 884.717 635.105 888.584 669.029 884.105C675.365 883.269 681.426 880.171 686.586 876.4C694.925 870.305 703.763 863.878 708.939 854.939C716.508 841.867 722.648 827.192 723.802 812.131C727.945 758.068 724.39 703.689 724.684 649.468C757.536 648.916 757.536 648.916 790.389 648.364C791.769 654.161 791.769 654.161 793.15 659.959C794.296 644.081 793.606 626.562 801.984 613.027C798.742 611.624 798.742 611.624 795.501 610.222C793.613 613.734 793.786 620.209 789.837 620.757C768.336 623.74 746.426 620.281 724.72 620.043C724.176 504.154 729.424 388.093 723.088 272.376C722.249 257.059 712.392 243.21 703.406 230.777C692.573 215.788 672.891 207.723 664.461 191.262C658.84 180.287 664.302 166.6 664.223 154.27L644.878 146.417L637.666 148.905C650.077 146.846 651.49 160.37 663.901 158.311C663.406 146.379 661.992 132.856 661.498 120.924C668.52 119.89 668.52 119.89 675.543 118.857C657.046 117.476 657.046 117.476 638.549 116.096C640.964 117.732 644.891 118.231 645.792 121.004C647.562 126.45 645.749 132.456 645.727 138.182C642.414 134.869 642.414 134.869 639.101 131.556C627.506 138.458 635.625 127.548 624.03 134.449C632.735 134.918 629.044 152.67 637.75 153.139C635.214 155.56 626.501 150.143 625.716 153.56C624.413 159.23 627.017 165.123 627.668 170.904C624.031 171.058 620.332 172.053 616.757 171.367C588.283 165.905 559.547 161.077 531.845 152.522C522.312 149.579 509.135 146.719 506.13 137.206C498.403 112.746 503.857 85.9548 502.721 60.3293C523.083 59.6451 523.083 59.6451 543.444 58.961C541.303 42.5287 541.303 42.5287 539.163 26.0963C463.795 24.716 463.795 24.716 388.427 23.3356C387.719 39.9406 387.719 39.9406 387.011 56.5455C398.243 60.769 410.842 59.9193 422.841 60.0313Z" fill="#41485a" fill-rule="nonzero" opacity="1" stroke="none"/>
<path d="M432.599 183.458C422.391 185.422 422.391 185.422 412.183 187.387C414.684 201.292 414.684 201.292 417.184 215.197C409.368 209.145 407.866 197.621 404.994 188.162C393.95 192.16 393.95 192.16 382.906 196.157C386.444 207.503 386.444 207.503 389.982 218.849C383.959 208.331 383.959 208.331 377.937 197.813C364.409 205.267 364.409 205.267 350.882 212.721C356.127 226.249 356.127 226.249 361.372 239.776C353.642 227.629 353.642 227.629 345.912 215.482C336.769 221.202 328.255 227.912 319.961 234.807C325.027 240.928 333.699 247.094 332.671 254.973C324.66 246.546 324.66 246.546 316.649 238.12C303.785 251.161 303.785 251.161 290.922 264.202C300.081 273.041 300.081 273.041 309.239 281.881C301.411 283.253 294.117 276.575 287.385 272.353C281.761 280.92 275.723 290.248 274.941 300.466C286.132 304.078 286.132 304.078 297.323 307.69C282.416 306.862 282.416 306.862 267.508 306.034C263.367 322.874 263.367 322.874 259.225 339.715C271.507 342.207 271.507 342.207 283.788 344.7C279.801 352.538 266.647 349.33 257.856 349.548C257.95 365.32 257.95 365.32 258.045 381.092C265.03 381.104 275.116 378.231 278.772 384.184C268.723 386.52 268.723 386.52 258.673 388.856C267.016 420.154 274.931 451.621 302.254 472.875C320.889 487.371 343.213 496.627 361.948 510.992C365.906 514.027 367.879 519.297 369.102 524.131C371.791 534.754 375.455 545.922 373.519 556.708C371.411 568.455 362.845 578.057 357.507 588.732C356.34 576.171 357.773 563.088 354.006 551.048C351.509 543.068 346.916 534.243 339.346 530.693C318.923 521.117 295.417 520.258 273.901 513.488C263.285 510.147 253.415 504.783 243.173 500.431C243.002 569.803 241.805 639.18 242.661 708.548C242.933 730.552 262.977 746.752 284.116 747.071C407.416 748.935 530.751 748.518 654.057 747.142C670.235 746.961 687.453 742.946 697.79 729.017C701.93 723.439 704.345 716.206 704.418 709.26C705.521 604.061 705.304 498.79 701.307 393.66C700.967 384.713 696.087 376.336 691.468 368.664C666.353 326.951 610.969 358.122 580.574 324.807C577.43 321.361 575.627 316.488 575.326 311.833C573.585 284.924 573.741 257.896 574.5 230.942C575.352 200.721 619.337 204.11 635.942 202.445C635.658 197.911 637.922 188.423 629.506 188.243C617.839 187.993 606.042 188.697 594.607 191.027C583.941 193.201 570.049 204.918 564.37 213.1C561.563 217.145 559.782 222.157 559.592 227.077C558.422 257.492 557.415 288.087 560.319 318.385C561.481 330.505 579.322 344.792 587.77 349.855C620.071 369.21 658.763 343.021 680.512 382.23C673.191 378.735 666.594 372.777 658.547 371.746C612.884 365.896 572.12 384.714 547.832 335.575C545.173 330.194 543.421 324.195 543.101 318.201C541.008 279.006 541.446 239.717 540.619 200.475C534.646 209.083 534.646 209.083 528.672 217.691C532.952 206.899 532.952 206.899 537.232 196.108C523.566 191.439 523.566 191.439 509.899 186.771C504.654 199.746 504.654 199.746 499.409 212.721C502.721 200.022 502.721 200.022 506.034 187.323C489.312 185.633 489.312 185.633 472.589 183.943C470.302 223.168 465.048 262.332 465.728 301.617C465.899 311.509 467.76 319.883 467.925 329.776C468.128 342.019 468.639 353.449 466.791 365.553C464.947 377.631 464.978 389.922 464.071 402.107C475.978 406.177 500.415 411.855 494.991 431.923C493.281 438.25 490.446 445.008 485.25 449.003C478.849 453.924 464.417 449.178 462.383 456.992C454.794 486.144 461.548 517.257 459.654 547.321C459.581 548.487 457.608 548.447 456.585 549.01C447.524 520.55 458.033 488.766 451.924 459.53C450.421 452.335 438.15 452.958 433.709 447.101C430.211 442.487 429.521 435.99 429.688 430.202C429.81 425.975 431.629 421.549 434.536 418.478C440.43 412.251 453.097 411.514 455.237 403.211C461.23 379.955 459.505 355.408 459.155 331.276C459.116 328.562 459.094 325.852 459.102 323.15C459.148 308.126 455.059 293.225 455.624 278.212C456.79 247.227 463.861 216.598 464.276 185.594C464.348 180.292 454.02 182.281 437.516 183.388C438.511 198.933 438.511 198.933 439.506 214.478C436.053 198.968 436.053 198.968 432.599 183.458Z" fill="#b9dbd3" fill-rule="nonzero" opacity="1" stroke="none"/>
<path d="M636.893 203.335C613.09 204.623 577.203 204.598 576.709 237.016C576.347 260.755 576.248 284.505 576.709 308.242C576.875 316.808 582.699 323.473 588.304 329.224C606.071 347.456 637.857 337.722 660.121 343.094C685.214 349.149 689.089 367.203 702.598 386.095C704.289 382.01 703.184 377.264 703.15 372.843C702.946 346.525 703.92 320.205 703.702 293.887C703.419 259.659 676.269 231.129 636.893 203.335Z" fill="#eeeeee" fill-rule="nonzero" opacity="1" stroke="none"/>
<path d="M638.549 94.5623C637.721 93.7341 637.721 93.7341 636.893 92.9059C639.058 89.6578 655.016 91.2209 659.531 90.6973C660.775 77.631 661.322 58.525 657.322 46.5257C636.137 46.1999 614.954 45.4845 593.767 45.5483C576.617 45.5999 581.005 75.5998 581.841 83.4728C584.014 103.942 610.477 95.4825 622.678 95.4734C630.923 95.4672 632.842 98.3718 638.549 94.5623Z" fill="#3d5f6c" fill-rule="nonzero" opacity="1" stroke="none"/>
<path d="M252.048 783.087C240.82 778.255 246.799 811.09 248.993 821.802C259.293 872.084 331.089 852.254 362.8 865.318C375.391 870.505 384.66 881.8 393.921 891.783C408.105 907.071 397.186 933.115 411.544 948.239C414.39 951.237 427.459 963.806 431.711 959.794C433.808 957.814 419.939 937.392 419.005 936.203C406.294 920.028 421.067 903.938 407.814 888.204C402.008 881.311 395.788 874.737 389.136 868.656C351.276 834.044 292.594 866.831 263.126 829.309C253.254 816.738 266.487 789.302 252.048 783.087Z" fill="#8ecdce" fill-rule="nonzero" opacity="1" stroke="none"/>
<path d="M465.728 181.249C455.69 189.201 456.011 262.366 454.392 284.766C453.222 300.947 453.99 314.336 453.389 330.34C452.545 352.829 454.571 376.583 453.85 399.076C453.661 405 466.44 407.649 466.545 403.833C466.569 402.954 468.095 381.316 468.282 361.075C468.54 333.114 467.468 304.055 467.384 302.169C466.924 291.872 468.702 239.251 470.038 211.519C470.414 203.712 470.577 177.407 465.728 181.249Z" fill="#b92b23" fill-rule="nonzero" opacity="1" stroke="none"/>
<path d="M464.623 401.555C439.25 402.948 441.081 458.205 467.175 456.023C507.02 452.691 503.952 399.396 464.623 401.555Z" fill="#41485a" fill-rule="nonzero" opacity="1" stroke="none"/>
<path d="M411.065 1051.43C411.065 1052.53 411.065 1052.53 411.065 1053.64C487.813 1053.82 564.562 1053.82 641.31 1053.64C639.557 1042.32 633.339 1043.59 622.09 1043.74C606.138 1043.96 590.201 1044.95 574.248 1045.08C533.843 1045.42 493.368 1042.48 453.028 1044.8C450.037 1044.98 449.362 1050.41 446.403 1050.88C434.766 1052.71 422.844 1051.25 411.065 1051.43Z" fill="#fefeff" fill-rule="nonzero" opacity="1" stroke="none"/>
<path d="M605.973 96.7709C609.176 101.129 604.91 115.293 609.285 116.096C614.789 117.106 622.698 114.144 627.506 114.44C641.819 115.319 660.793 117.379 673.802 118.469C674.564 118.533 674.963 119.464 675.543 119.961C681.316 112.235 674.803 98.6419 684.349 96.2825C682.581 91.2432 674.85 94.5325 671.126 94.5623C652.198 94.7136 633.269 94.1886 614.34 94.2597C609.218 94.279 609.927 94.4845 605.973 96.7709Z" fill="#55737f" fill-rule="nonzero" opacity="1" stroke="none"/>
<path d="M677.188 48.228C663.951 45.0942 685.49 89.1991 668.724 89.9619C671.557 96.6344 683.816 91.8646 688.242 91.8016C690.131 91.7747 700.559 94.5424 704.568 91.5916C711.927 86.1755 707.224 73.4261 707.03 64.2911C706.928 59.4675 707.47 54.5089 706.264 49.8374C704.725 43.8788 682.575 45.1438 677.188 48.228Z" fill="#629fa4" fill-rule="nonzero" opacity="1" stroke="none"/>
<path d="M212.293 873.087C213.674 871.983 213.674 871.983 215.054 870.878C205.12 857.963 198.592 843.799 198.33 826.94C197.015 742.393 196.892 657.83 196.833 573.272C196.829 567.023 201.292 557.549 194.779 553.385C194.359 553.756 193.523 553.939 193.52 554.499C193.102 645.786 193.169 737.076 193.52 828.363C193.588 846.068 203.46 857.918 212.293 873.087Z" fill="#b9dbd3" fill-rule="nonzero" opacity="1" stroke="none"/>
<path d="M358.059 698.057C356.955 699.161 356.955 699.161 355.851 700.265C363.623 707.829 369.08 712.275 380.697 712.413C463.882 713.396 547.079 714.239 630.267 713.517C632.258 713.5 633.58 711.308 635.236 710.204C628.363 707.542 620.516 708.805 613.15 709.1C601.012 709.586 588.857 709.652 576.709 709.652C511.003 709.652 445.292 710.033 379.593 709.1C370.074 708.964 365.504 703.421 358.059 698.057Z" fill="#41485a" fill-rule="nonzero" opacity="1" stroke="none"/>
<path d="M457.017 451.197C448.969 452.934 454.104 520.937 454.053 532.165C454.032 536.92 456.178 547.79 459.867 551.822C461.482 553.587 466.876 554.148 466.955 550.584C467.517 525.391 466.764 500.184 467.036 474.987C467.268 453.501 476.695 446.952 457.017 451.197Z" fill="#b92b23" fill-rule="nonzero" opacity="1" stroke="none"/>
<path d="M358.059 924.988C344.735 949.67 368.534 987.337 394.339 992.351C430.186 999.315 471.111 995.547 506.073 994.442C530.7 993.663 545.359 986.519 560.697 967.504C559.592 966.123 559.592 966.123 558.488 964.743C528.662 999.54 501.218 990.694 457.998 990.694C423.057 990.694 397.582 999.486 372.415 974.682C359.442 961.895 363.298 943.379 360.82 927.197C360.642 926.032 358.98 925.725 358.059 924.988Z" fill="#b9dbd3" fill-rule="nonzero" opacity="1" stroke="none"/>
<path d="M261.434 527.444C261.181 528.755 261.181 528.755 260.927 530.066C274.061 535.611 289.072 534.651 303.092 537.241C310.605 538.629 331.533 542.749 335.657 552.764C351.701 591.724 330.429 637.67 341.31 677.516C344.345 688.63 347.424 689.651 355.851 700.818C357.231 699.713 357.231 699.713 358.612 698.609C351.513 690.477 344.973 682.557 344.471 670.939C343.002 636.94 343.875 602.878 343.152 568.855C342.309 529.237 286.062 534.617 261.434 527.444Z" fill="#41485a" fill-rule="nonzero" opacity="1" stroke="none"/>
<path d="M194.072 322.598C200.276 319.939 196.558 309.328 197.937 302.721C200.233 291.725 204.565 281.244 208.428 270.697C217.211 246.715 237.685 223.946 255.545 206.484C277.268 185.246 300.948 168.423 328.796 156.403C337.432 152.675 346.269 149.411 355.162 146.346C361.329 144.221 368.838 143.451 373.091 138.506C353.625 139.766 331.035 151.23 315.124 159.911C268.389 185.409 226.309 223.033 204.526 272.548C197.572 288.355 190.275 305.159 194.072 322.598Z" fill="#b9dbd3" fill-rule="nonzero" opacity="1" stroke="none"/>
<path d="M683.273 50.3907C682.721 48.7343 682.721 48.7343 682.169 47.0778C673.86 47.0778 663.719 42.1957 657.246 47.4032C657.116 47.5077 658.861 84.2169 659.531 89.593C659.751 91.3619 672.446 91.8756 673.886 90.6973C684.924 81.666 665.788 53.9763 683.273 50.3907Z" fill="#498f99" fill-rule="nonzero" opacity="1" stroke="none"/>
<path d="M408.857 24.4399C409.225 25.3601 408.97 27.1776 409.961 27.2006C437.789 27.8472 465.628 26.4058 493.463 26.4058C508.515 26.4058 523.562 26.9357 538.611 27.2006C539.085 34.4889 537.431 48.3159 543.028 55.9122C543.58 39.9 543.58 39.9 544.132 23.8878C499.041 23.5327 453.636 19.136 408.857 24.4399Z" fill="#1d3846" fill-rule="nonzero" opacity="1" stroke="none"/>
<path d="M560.145 967.504C572.918 950.203 558.807 920.139 579.47 908.424C607.852 892.332 648.707 917.807 676.647 899.59C668.991 894.927 663.318 899.771 654.009 900.142C632.492 900.999 610.941 900.427 589.408 900.694C561.302 901.043 566.369 935.807 563.012 953.527C562.127 958.2 556.782 964.141 560.145 967.504Z" fill="#b9dbd3" fill-rule="nonzero" opacity="1" stroke="none"/>
<path d="M356.955 748.302C369.834 753.531 389.741 748.958 401.127 748.854C450.818 748.403 500.516 749.4 550.206 748.854C550.987 748.846 551.31 747.75 551.862 747.198C499.513 741.679 446.587 746.324 393.949 746.093C382.309 746.042 367.992 742.152 356.955 748.302Z" fill="#21202b" fill-rule="nonzero" opacity="1" stroke="none"/>
<path d="M740.144 476.095C739.776 519.53 739.145 562.964 739.04 606.401C739.036 607.921 741.837 610.276 742.352 610.818C742.905 610.45 744.003 610.377 744.009 609.714C744.374 565.727 744.729 521.721 743.457 477.751C743.421 476.517 741.248 476.647 740.144 476.095Z" fill="#b9dbd3" fill-rule="nonzero" opacity="1" stroke="none"/>
<path d="M449.163 452.352C454.592 443.881 449.694 435.87 449.716 426.401C449.736 417.339 452.71 411.731 456.893 403.764C431.25 402.387 430.694 441.881 449.163 452.352Z" fill="#3c2b3e" fill-rule="nonzero" opacity="1" stroke="none"/>
<path d="M740.144 663.272C734.267 706.772 739.671 752.694 739.04 796.891C741.248 796.615 741.248 796.615 743.457 796.339C743.457 754.222 744.368 707.883 742.905 667.137C742.848 665.554 741.064 664.56 740.144 663.272Z" fill="#b9dbd3" fill-rule="nonzero" opacity="1" stroke="none"/>
<path d="M396.71 57.5686C391.067 67.262 394.738 73.7543 395.707 86.0389C396.667 98.2003 389.498 116.478 396.71 127.139C409.234 118.311 400.792 84.1238 401.127 70.8201C401.257 65.632 403.21 61.8704 400.575 57.5686C397.998 58.3141 399.286 58.3141 396.71 57.5686Z" fill="#b9dbd3" fill-rule="nonzero" opacity="1" stroke="none"/>
<path d="M741.248 348.549C731.237 379.559 739.845 413.739 740.95 446.307C741.855 423.217 743.066 400.138 743.665 377.039C743.902 367.913 744.228 358.749 743.457 349.653C743.387 348.833 741.984 348.917 741.248 348.549Z" fill="#b9dbd3" fill-rule="nonzero" opacity="1" stroke="none"/>
<path d="M443.725 403.597C431.136 405.879 423.862 434.399 432.327 446.277C433.453 447.858 454.03 468.6 452.517 456.489C451.46 448.034 438.205 448.483 436.944 433.516C436.4 427.048 449.639 402.525 443.725 403.597Z" fill="#629fa4" fill-rule="nonzero" opacity="1" stroke="none"/>
<path d="M741.248 267.384C736.839 270.69 738.763 278.208 738.691 283.719C738.598 290.789 738.994 297.859 739.04 304.93C739.11 315.972 739 327.015 739.04 338.058C739.053 341.749 738.188 345.373 742.989 343.754C743.145 319.217 744.016 294.675 743.457 270.144C743.43 268.966 741.984 268.304 741.248 267.384Z" fill="#b9dbd3" fill-rule="nonzero" opacity="1" stroke="none"/>
<path d="M608.733 115.544C615.788 123.891 635.2 117.994 635.761 121.999C636.304 125.871 635.451 129.88 636.181 133.722C639.742 133.806 639.412 137.305 641.31 139.838C641.857 132.104 642.11 127.484 645.727 119.961C637.703 113.356 618.466 110.937 608.733 115.544Z" fill="#1d3846" fill-rule="nonzero" opacity="1" stroke="none"/>
<path d="M741.8 795.787C732.637 804.283 739.261 822.798 735.673 834.996C733.2 843.402 720.165 858.12 720.608 865.378C728.06 866.678 734.457 848.207 736.2 844.244C739.553 836.622 747.952 801.398 741.8 795.787Z" fill="#b9dbd3" fill-rule="nonzero" opacity="1" stroke="none"/>
<path d="M643.518 91.8016C649.115 95.6308 656.796 92.6354 663.336 93.525C674.394 95.0292 693.33 100.991 703.702 92.3537C697.626 88.4598 649.982 87.6057 643.518 91.8016Z" fill="#41485a" fill-rule="nonzero" opacity="1" stroke="none"/>
<path d="M264.195 905.111C276.344 909.527 307.26 910.242 313.79 902.031C307.789 901.78 265.79 897.136 264.195 905.111Z" fill="#b9dbd3" fill-rule="nonzero" opacity="1" stroke="none"/>
<path d="M720.267 864.252C712.872 871.943 705.111 881.834 695.42 887.443C688.13 891.661 679.546 892.773 672.782 897.933C689.412 904.268 713.867 877.817 722.511 867.933C723.875 866.373 720.771 864.645 720.267 864.252Z" fill="#b9dbd3" fill-rule="nonzero" opacity="1" stroke="none"/>
<path d="M814.131 662.167C823.548 652.75 818.267 633.177 817.835 619.18C813.252 619.378 811.947 621.672 812.08 626.073C812.333 634.425 812.908 642.769 813.027 651.125C813.091 655.608 811.451 658.473 814.131 662.167Z" fill="#1d3846" fill-rule="nonzero" opacity="1" stroke="none"/>
<path d="M408.305 186.771C407.16 186.489 405.917 187.861 405.544 188.979C404.029 193.525 410.682 218.689 417.691 216.586C422.27 215.213 412.747 187.864 408.305 186.771Z" fill="#1d3846" fill-rule="nonzero" opacity="1" stroke="none"/>
<path d="M434.255 182.906C429.933 185.396 432.604 217.689 441.433 215.482C443.945 214.854 442.007 206.827 441.985 206.648C441.57 203.113 436.502 181.611 434.255 182.906Z" fill="#3c2b3e" fill-rule="nonzero" opacity="1" stroke="none"/>
<path d="M309.471 904.559C319.07 912.353 335.974 902.994 346.464 911.737C348.467 910.035 347.683 911.106 348.673 908.424C339.514 900.973 318.223 897.092 309.471 904.559Z" fill="#b9dbd3" fill-rule="nonzero" opacity="1" stroke="none"/>
<path d="M575.605 225.421C568.412 232.787 573.499 245.935 573.432 256.23C573.4 261.02 573.559 265.809 573.622 270.599C575.442 270.371 575.442 270.371 577.261 270.144C577.261 259.286 577.041 248.425 577.261 237.568C577.412 230.121 579.457 230.242 575.605 225.421Z" fill="#1d3846" fill-rule="nonzero" opacity="1" stroke="none"/>
<path d="M258.121 379.469C255.774 383.453 257.166 385.584 259.225 389.408C264.709 387.857 270.589 388.537 276.273 388.128C281.113 387.779 280.277 380.176 276.061 379.293C269.719 377.964 264.333 382.301 258.121 379.469Z" fill="#3d5f6c" fill-rule="nonzero" opacity="1" stroke="none"/>
<path d="M382.354 195.053C376.079 201.327 386.113 224.422 392.845 217.691C389.479 210.959 388.26 199.778 382.354 195.053Z" fill="#1d3846" fill-rule="nonzero" opacity="1" stroke="none"/>
<path d="M596.586 205.543C605.486 211.204 627.303 205.569 636.794 204.749C629.016 197.677 605.042 198.693 596.586 205.543Z" fill="#7a9ab8" fill-rule="nonzero" opacity="1" stroke="none"/>
<path d="M739.271 445.273C739.076 451.221 735.366 474.15 741.8 478.303C744.953 472.366 746.055 447.55 739.271 445.273Z" fill="#b9dbd3" fill-rule="nonzero" opacity="1" stroke="none"/>
<path d="M636.893 90.1452C629.971 101.584 667.429 95.5592 671.58 95.4358C664.106 88.2153 649.167 91.7109 636.893 90.1452Z" fill="#21202b" fill-rule="nonzero" opacity="1" stroke="none"/>
<path d="M537.507 195.605C535.099 196.043 520.641 222.228 529.224 218.795C531.8 217.765 545.158 194.212 537.507 195.605Z" fill="#1d3846" fill-rule="nonzero" opacity="1" stroke="none"/>
<path d="M250.943 729.529C253.183 741.771 273.108 754.034 285.176 746.646C280.941 743.886 276.006 745.952 271.373 744.437C262.905 741.669 256.93 735.815 250.943 729.529Z" fill="#21202b" fill-rule="nonzero" opacity="1" stroke="none"/>
<path d="M630.917 713.284C639.076 713.611 654.314 717.658 660.635 711.86C652.799 706.225 637.499 705.8 630.917 713.284Z" fill="#695758" fill-rule="nonzero" opacity="1" stroke="none"/>
<path d="M644.623 120.513C641.44 122.71 635.415 143.411 645.727 139.286C650.879 137.225 647.779 128.257 647.383 122.722C647.278 121.245 645.633 119.816 644.623 120.513Z" fill="#3d5f6c" fill-rule="nonzero" opacity="1" stroke="none"/>
<path d="M506.034 185.666C499.857 185.343 505.351 185.792 502.721 195.053C501.974 197.685 500.375 200.078 499.961 202.783C498.136 214.707 518.008 186.293 506.034 185.666Z" fill="#1d3846" fill-rule="nonzero" opacity="1" stroke="none"/>
<path d="M577.813 228.734C579.764 226.783 579.361 223.357 581.126 221.004C584.203 216.901 587.625 213.706 591.617 210.513C585.798 204.694 571.883 220.431 577.813 228.734Z" fill="#55737f" fill-rule="nonzero" opacity="1" stroke="none"/>
<path d="M737.383 246.402C736.003 247.783 736.003 247.783 734.622 249.163C737.598 255.115 735.8 265.249 740.144 269.592C744.996 264.74 742.769 251.789 737.383 246.402Z" fill="#b9dbd3" fill-rule="nonzero" opacity="1" stroke="none"/>
<path d="M795.91 656.646C784.72 662.241 804.433 674.075 812.475 666.032C810.303 661.688 805.086 664.376 800.88 664.376C797.512 664.376 797.537 658.272 795.91 656.646Z" fill="#21202b" fill-rule="nonzero" opacity="1" stroke="none"/>
<path d="M725.788 229.286C730.481 239.5 730.481 239.5 735.174 249.715C736.555 248.335 736.555 248.335 737.935 246.954C731.862 238.12 731.862 238.12 725.788 229.286Z" fill="#b9dbd3" fill-rule="nonzero" opacity="1" stroke="none"/>
<path d="M348.673 907.872C346.198 907.281 355.905 926.638 356.955 927.197C361.631 929.685 359.659 921.41 358.849 919.904C358.01 918.345 356.616 916.438 355.489 915.09C352.88 911.97 352.834 908.865 348.673 907.872Z" fill="#b9dbd3" fill-rule="nonzero" opacity="1" stroke="none"/>
<path d="M679.96 700.265C675.384 703.804 668.285 704.16 667.261 710.204C673.157 712.998 678.699 706.488 682.721 703.026C681.34 701.646 681.34 701.646 679.96 700.265Z" fill="#695758" fill-rule="nonzero" opacity="1" stroke="none"/>
<path d="M806.953 610.266C809.754 614.44 811.526 615.467 812.921 620.56C823.609 617.68 814.317 608.28 806.953 610.266Z" fill="#21202b" fill-rule="nonzero" opacity="1" stroke="none"/>
<path d="M678.856 764.866C684.303 770.313 690.446 761.549 694.868 765.971C704.654 756.184 681.216 763.293 678.856 764.866Z" fill="#1d3846" fill-rule="nonzero" opacity="1" stroke="none"/>
<path d="M689.346 688.67C684.653 694.468 684.653 694.468 679.96 700.265C681.064 701.646 681.064 701.646 682.169 703.026C685.758 695.848 685.758 695.848 689.346 688.67Z" fill="#8b656e" fill-rule="nonzero" opacity="1" stroke="none"/>
<path d="M667.261 174.623C666.171 175.713 665.73 176.58 665.052 177.936C666.605 179.489 684.193 184.855 694.222 192.662C705.972 201.809 714.171 213.916 716.165 212.32C715.034 210.623 711.166 201.678 699.587 192.262C690.047 184.505 668.746 175.366 667.261 174.623Z" fill="#b9dbd3" fill-rule="nonzero" opacity="1" stroke="none"/>
<path d="M665.604 707.443C662.45 708.232 658.595 707.827 656.218 710.204C661.088 715.074 674.751 711.188 665.604 707.443Z" fill="#41485a" fill-rule="nonzero" opacity="1" stroke="none"/>
<path d="M499.961 203.887C497.874 205.974 498.071 210.428 496.648 213.273C501.332 217.957 503.331 207.295 499.961 203.887Z" fill="#41485a" fill-rule="nonzero" opacity="1" stroke="none"/>
<path d="M801.432 608.609C795.656 611.498 804.248 616.284 808.61 611.922C807.646 609.995 808.305 611.147 801.432 608.609Z" fill="#8b656e" fill-rule="nonzero" opacity="1" stroke="none"/>
<path d="M596.586 204.439C593.698 205.883 591.199 206.514 588.856 208.856C592.145 212.145 596.149 210.397 599.347 207.2C597.966 205.82 597.966 205.82 596.586 204.439Z" fill="#3d5f6c" fill-rule="nonzero" opacity="1" stroke="none"/>
<path d="M437.568 184.562C429.528 188.744 441.762 200.397 439.225 188.979C438.314 184.879 440.106 183.242 437.568 184.562Z" fill="#788882" fill-rule="nonzero" opacity="1" stroke="none"/>
<path d="M815.236 659.407C812.931 661.711 814.527 660.172 810.266 663.824C813.174 669.64 820.052 663.019 815.236 659.407Z" fill="#788882" fill-rule="nonzero" opacity="1" stroke="none"/>
<path d="M725.236 616.339C720.583 620.993 726.39 625.676 730.757 621.309C726.049 616.6 728.203 617.823 725.236 616.339Z" fill="#9fa7af" fill-rule="nonzero" opacity="1" stroke="none"/>
<path d="M740.144 343.028C737.929 345.242 737.929 348.543 740.144 350.758C741.83 349.071 740.782 349.886 743.457 348.549C742.944 345.472 742.919 344.415 740.144 343.028Z" fill="#b9dbd3" fill-rule="nonzero" opacity="1" stroke="none"/>
<path d="M528.331 63.9409C528.331 63.9409 530.486 83.0353 530.337 88.0958C530.041 98.1077 530.908 100.448 531.392 110.453C531.445 111.551 529.213 128.746 529.642 129.543C534.807 139.12 543.805 137.878 551.866 142.035C541.468 147.454 527.922 137.064 526.096 126.83C523.14 110.267 523.436 65.1483 527.019 58.1089C529.331 60.001 528.331 63.9409 528.331 63.9409Z" fill="#b9dbd3" fill-rule="nonzero" opacity="1" stroke="none"/>
<path d="M445.85 426.401C443.383 428.868 443.981 430.053 446.403 432.475C448.907 429.971 449.466 428.913 445.85 426.401Z" fill="#21202b" fill-rule="nonzero" opacity="1" stroke="none"/>
<g fill="#21202b" opacity="1" stroke="none">
<path d="M583.884 606.588C584.993 606.929 585.548 607.59 585.548 608.572L585.548 611.196C585.548 611.836 585.398 612.262 585.1 612.476C584.801 612.689 584.332 612.753 583.692 612.668C583.564 612.625 583.073 612.518 582.22 612.348C581.366 612.177 580.609 612.038 579.948 611.932C579.286 611.825 578.422 611.697 577.356 611.548C576.289 611.398 575.137 611.281 573.9 611.196C572.662 611.11 571.404 611.068 570.124 611.068C567.862 611.068 565.846 611.206 564.076 611.484C562.305 611.761 560.524 612.316 558.732 613.148C556.94 613.98 555.457 615.11 554.284 616.54C553.11 617.969 552.161 619.9 551.436 622.332C550.71 624.764 550.348 627.644 550.348 630.972L550.348 635.964L582.22 635.964C582.774 635.964 583.233 636.134 583.596 636.476C583.958 636.817 584.14 637.286 584.14 637.884L584.14 639.868C584.14 640.422 583.958 640.881 583.596 641.244C583.233 641.606 582.774 641.788 582.22 641.788L550.348 641.788L550.348 696.764C550.348 697.361 550.166 697.83 549.804 698.172C549.441 698.513 548.982 698.684 548.428 698.684L545.74 698.684C545.185 698.684 544.726 698.513 544.364 698.172C544.001 697.83 543.82 697.361 543.82 696.764L543.82 641.788L528.588 641.788C528.033 641.788 527.574 641.606 527.212 641.244C526.849 640.881 526.668 640.422 526.668 639.868L526.668 637.884C526.668 637.286 526.849 636.817 527.212 636.476C527.574 636.134 528.033 635.964 528.588 635.964L543.82 635.964L543.82 630.204C543.82 626.193 544.332 622.641 545.356 619.548C546.38 616.454 547.713 613.99 549.356 612.156C550.998 610.321 552.982 608.828 555.308 607.676C557.633 606.524 559.916 605.745 562.156 605.34C564.396 604.934 566.817 604.732 569.42 604.732C573.857 604.732 578.678 605.35 583.884 606.588Z"/>
<path d="M639.564 634.044C646.433 634.044 652.118 635.857 656.62 639.484C661.121 643.11 663.372 648.06 663.372 654.332C663.372 656.124 663.158 657.393 662.732 658.14C662.305 658.886 661.537 659.26 660.428 659.26L659.084 659.26C657.804 659.26 657.164 658.62 657.164 657.34C657.078 651.58 655.318 647.249 651.884 644.348C648.449 641.446 643.98 639.996 638.476 639.996C631.478 639.996 625.91 642.193 621.772 646.588C617.633 650.982 615.564 656.593 615.564 663.42L615.564 696.764C615.564 697.361 615.393 697.83 615.052 698.172C614.71 698.513 614.241 698.684 613.644 698.684L610.956 698.684C610.358 698.684 609.889 698.513 609.548 698.172C609.206 697.83 609.036 697.361 609.036 696.764L609.036 637.244C609.036 636.646 609.206 636.177 609.548 635.836C609.889 635.494 610.358 635.324 610.956 635.324L613.132 635.324C614.284 635.324 614.924 635.964 615.052 637.244L615.564 646.972L616.396 646.972C618.401 642.662 621.462 639.43 625.58 637.276C629.697 635.121 634.358 634.044 639.564 634.044Z"/>
</g>
<path d="M795.066 600.998L818.282 600.998C821.279 600.998 823.709 603.849 823.709 607.365L823.709 664.996C823.709 668.513 821.279 671.363 818.282 671.363L795.066 671.363C792.069 671.363 789.639 668.513 789.639 664.996L789.639 607.365C789.639 603.849 792.069 600.998 795.066 600.998Z" fill="#41485a" fill-rule="nonzero" opacity="1" stroke="none"/>
</g>
</svg>
