<?xml version="1.0" encoding="UTF-8" standalone="no"?>
<!DOCTYPE svg PUBLIC "-//W3C//DTD SVG 1.1//EN" "http://www.w3.org/Graphics/SVG/1.1/DTD/svg11.dtd">
<!-- Created with Vectornator (http://vectornator.io/) -->
<svg height="100%" stroke-miterlimit="10" style="fill-rule:nonzero;clip-rule:evenodd;stroke-linecap:round;stroke-linejoin:round;" version="1.1" viewBox="0 0 1024 1024" width="100%" xml:space="preserve" xmlns="http://www.w3.org/2000/svg" xmlns:vectornator="http://vectornator.io" xmlns:xlink="http://www.w3.org/1999/xlink">
<defs/>
<g id="Layer-1" vectornator:layerName="Layer 1">
<path d="M528.062 97.125C507.861 97.7685 487.672 100.228 467.719 103.344C441.022 107.512 414.305 112.985 388.844 122.031C361.544 131.73 335.175 144.378 310.312 159.25C261.384 188.518 217.403 228.153 183.469 273.969C166.925 296.305 152.161 320.199 140.312 345.344C127.154 373.269 116.152 402.452 108.812 432.438C101.386 462.779 97.3331 494.063 96.25 525.281C95.2535 554.005 97.5735 582.982 102.594 611.281C107.878 641.066 116.187 670.436 127 698.688C137.283 725.554 150.175 751.589 165.594 775.875C180.68 799.636 198.514 821.783 218.031 842.062C237.273 862.056 258.746 879.978 281.312 896.125C303.406 911.934 326.828 926.19 351.5 937.562C376.175 948.936 402.134 957.861 428.594 964.031C458.852 971.088 489.868 975.658 520.906 977.062C548.985 978.333 577.274 976.221 605.062 972C632.131 967.889 659.094 961.632 684.781 952.156C712.615 941.889 739.488 928.649 764.75 913.094C790.783 897.064 815.413 878.515 837.938 857.844C858.157 839.288 876.127 818.193 892.312 796.031C924.19 752.382 948.707 701.842 961.312 649.281C968.576 618.993 974.172 588.095 975.969 557C977.658 527.761 975.877 498.241 971.719 469.25C963.448 411.58 939.988 355.617 909.812 305.781C895.293 281.803 878.947 258.713 860.094 237.969C841.456 217.461 820.402 198.987 797.969 182.719C773.673 165.1 747.821 149.306 720.562 136.75C694.295 124.651 666.465 115.672 638.281 109.188C608.778 102.4 578.537 98.1619 548.281 97.125C541.553 96.8944 534.796 96.9105 528.062 97.125ZM524.031 178.875C537.875 178.77 551.749 179.34 565.531 180.219C657.443 186.076 741.171 229.266 803.219 296.656C817.8 312.493 831.302 329.553 842.188 348.125C879.235 411.33 897.5 482.057 894.25 555.188C893.266 577.324 890.82 599.591 885.344 621.062C878.959 646.097 869.741 670.466 858.875 693.906C849.375 714.399 838.411 734.517 824.5 752.312C806.865 774.872 786.546 795.44 764.875 814.156C747.484 829.176 728.138 842.048 707.938 853C664.202 876.712 617.728 888.712 568.406 894.125C547.055 896.468 525.335 896.61 503.969 894.406C304.764 873.857 163.933 705.218 179.781 505.531C183.123 463.428 196.313 414.117 214.594 376.031C223.39 357.705 234.261 340.24 246.812 324.25C289.174 270.282 344.674 224.439 409.781 201C433.449 192.48 457.754 184.921 482.688 181.594C496.376 179.767 510.187 178.98 524.031 178.875Z" fill="#000000" fill-rule="nonzero" opacity="1" stroke="none"/>
<path d="M534.469 347.281C511.117 351.856 516.357 361.767 513.094 372.219C503.856 401.807 513.869 483.881 513.869 483.881C513.869 483.881 372.71 483.938 333.156 491.469C326.563 492.724 321.222 499.637 319.281 506.062C315.58 518.319 316.486 531.622 317.188 544.406C317.669 553.188 318.339 562.615 322.812 570.188C327.537 578.186 334.231 587.927 343.469 588.906C398.775 594.768 454.698 589.679 510.312 590.062C512.737 628.383 512.283 666.999 517.562 705.031C518.411 711.146 523.248 716.609 528.344 720.094C542.087 729.491 565.221 726.92 578.156 716.438C622.347 680.627 662.89 640.493 704.562 601.781C720.72 586.771 738.229 572.832 751.625 555.312C756.07 549.5 758.078 541.013 756.469 533.875C753.88 522.391 748.014 511.165 739.781 502.75C698.06 460.105 652.809 421.044 607.781 381.906C593.658 369.631 563.574 341.58 534.469 347.281Z" fill="#000000" fill-rule="nonzero" opacity="1" stroke="none"/>
</g>
</svg>
