<?xml version="1.0" encoding="UTF-8" standalone="no"?>
<!DOCTYPE svg PUBLIC "-//W3C//DTD SVG 1.1//EN" "http://www.w3.org/Graphics/SVG/1.1/DTD/svg11.dtd">
<!-- Created with Vectornator (http://vectornator.io/) -->
<svg height="100%" stroke-miterlimit="10" style="fill-rule:nonzero;clip-rule:evenodd;stroke-linecap:round;stroke-linejoin:round;" version="1.1" viewBox="0 0 1024 1024" width="100%" xml:space="preserve" xmlns="http://www.w3.org/2000/svg" xmlns:vectornator="http://vectornator.io" xmlns:xlink="http://www.w3.org/1999/xlink">
<defs/>
<g id="Layer-1" vectornator:layerName="Layer 1">
<path d="M528.062 97.125C507.861 97.7685 487.672 100.228 467.719 103.344C441.022 107.512 414.305 112.985 388.844 122.031C361.544 131.73 335.175 144.378 310.312 159.25C261.384 188.518 217.403 228.153 183.469 273.969C166.925 296.305 152.161 320.199 140.312 345.344C127.154 373.269 116.152 402.452 108.812 432.438C101.386 462.779 97.3331 494.063 96.25 525.281C95.2535 554.005 97.5735 582.982 102.594 611.281C107.878 641.066 116.187 670.436 127 698.688C137.283 725.554 150.175 751.589 165.594 775.875C180.68 799.636 198.514 821.783 218.031 842.062C237.273 862.056 258.746 879.978 281.312 896.125C303.406 911.934 326.828 926.19 351.5 937.562C376.175 948.936 402.134 957.861 428.594 964.031C458.852 971.088 489.868 975.658 520.906 977.062C548.985 978.333 577.274 976.221 605.062 972C632.131 967.889 659.094 961.632 684.781 952.156C712.615 941.889 739.488 928.649 764.75 913.094C790.783 897.064 815.413 878.515 837.938 857.844C858.157 839.288 876.127 818.193 892.312 796.031C924.19 752.382 948.707 701.842 961.312 649.281C968.576 618.993 974.172 588.095 975.969 557C977.658 527.761 975.877 498.241 971.719 469.25C963.448 411.58 939.988 355.617 909.812 305.781C895.293 281.803 878.947 258.713 860.094 237.969C841.456 217.461 820.402 198.987 797.969 182.719C773.673 165.1 747.821 149.306 720.562 136.75C694.295 124.651 666.465 115.672 638.281 109.188C608.778 102.4 578.537 98.1619 548.281 97.125C541.553 96.8944 534.796 96.9105 528.062 97.125ZM550.552 895.91C536.709 896.069 522.833 895.553 509.047 894.728C417.113 889.23 333.217 846.366 270.907 779.219C256.264 763.439 242.696 746.432 231.738 727.902C194.444 664.842 175.904 594.187 178.869 521.044C179.766 498.904 182.125 476.628 187.518 455.136C193.805 430.076 202.928 405.671 213.702 382.189C223.122 361.659 234.008 341.498 247.849 323.649C265.396 301.021 285.635 280.374 307.233 261.573C324.565 246.486 343.861 233.538 364.018 222.508C407.661 198.625 454.088 186.444 503.388 180.839C524.73 178.412 546.449 178.186 567.824 180.306C767.107 200.078 908.595 368.167 893.526 567.914C890.348 610.03 877.35 659.392 859.218 697.549C850.494 715.909 839.691 733.416 827.202 749.455C785.051 803.588 729.73 849.647 664.715 873.34C641.081 881.952 616.805 889.606 591.884 893.03C578.204 894.91 564.396 895.751 550.552 895.91Z" fill="#000000" fill-rule="nonzero" opacity="1" stroke="none"/>
<path d="M537.619 725.159C561.006 720.767 555.844 710.815 559.189 700.389C568.659 670.875 559.291 588.725 559.291 588.725C559.291 588.725 700.446 589.776 740.058 582.556C746.66 581.353 752.055 574.482 754.047 568.072C757.844 555.845 757.042 542.535 756.441 529.746C756.029 520.961 755.433 511.529 751.019 503.921C746.357 495.886 739.74 486.093 730.51 485.041C675.252 478.745 619.291 483.395 563.681 482.575C561.557 444.236 562.314 405.625 557.334 367.553C556.533 361.431 551.739 355.93 546.671 352.405C533.002 342.901 509.849 345.29 496.832 355.67C452.361 391.133 411.504 430.947 369.529 469.331C353.254 484.214 335.636 498.015 322.103 515.429C317.612 521.206 315.538 529.677 317.091 536.827C319.589 548.331 325.367 559.603 333.534 568.082C374.919 611.054 419.861 650.469 464.581 689.959C478.607 702.345 508.47 730.631 537.619 725.159Z" fill="#000000" fill-rule="nonzero" opacity="1" stroke="none"/>
</g>
</svg>
