<?xml version="1.0" encoding="UTF-8" standalone="no"?>
<!DOCTYPE svg PUBLIC "-//W3C//DTD SVG 1.1//EN" "http://www.w3.org/Graphics/SVG/1.1/DTD/svg11.dtd">
<!-- Created with Vectornator (http://vectornator.io/) -->
<svg height="{{height}}" stroke-miterlimit="10" style="fill-rule:nonzero;clip-rule:evenodd;stroke-linecap:round;stroke-linejoin:round;" version="1.1" viewBox="0 0 1024 1024" width="{{width}}" xml:space="preserve" xmlns="http://www.w3.org/2000/svg" xmlns:xlink="http://www.w3.org/1999/xlink">
<defs/>
<g id="Layer-1">
<path d="M210.976 118.794C175.603 120.418 149.525 142.725 132.155 175.968C127.639 184.611 124.06 194.18 123.51 203.916C119.201 280.203 118.143 356.659 117.634 433.066C116.796 559.061 117.774 685.069 119.469 811.055C119.969 848.217 137.058 878.82 167.508 900.314C175.431 905.906 184.062 911.393 193.589 913.204C218.536 917.947 244.099 919.509 269.492 919.703C449.786 921.084 630.113 920.971 810.387 917.929C846.403 917.321 884.01 898.304 901.951 866.319C907.532 856.369 913.081 845.67 914.05 834.303C919.249 773.304 919.943 711.968 920.324 650.749C921.239 503.721 926.658 356.435 917.935 209.663C916.746 189.662 903.1 171.875 890.919 155.967C882.196 144.575 869.563 136.255 856.762 129.775C844.548 123.592 830.913 118.895 817.225 118.662C615.171 115.227 412.846 109.526 210.976 118.794ZM476.804 349.398C476.982 345.27 478.321 341.009 480.701 337.632C495.339 316.857 525.185 310.985 545.719 326.804C551.187 331.016 556.729 335.986 559.392 342.353C562.711 350.286 562.647 359.314 562.915 367.909C564.023 403.566 563.314 439.256 563.514 474.93C593.642 475.08 623.784 474.424 653.897 475.379C666.339 475.774 679.045 475.755 691.069 478.977C706.673 483.157 717.991 495.096 719.302 511.67C720.108 521.85 715.99 539.244 707.725 547.86C694.949 561.177 672.335 560.013 653.897 560.816C623.798 562.127 593.642 561.116 563.514 561.266C563.414 590.244 564.087 619.236 563.214 648.201C562.791 662.275 563.187 676.666 559.629 690.29C553.048 715.485 522.008 723.283 500.537 714.443C494.008 711.755 487.215 707.518 483.965 701.25C479.26 692.175 479.163 681.317 478.09 671.152C475.907 650.481 476.878 629.53 474.216 608.915C472.981 599.347 466.897 584.866 459.192 577.753C426.227 547.322 378.439 571.35 340.441 555.201C327.585 549.738 317.078 537.207 316.722 522.819C316.511 514.272 317.145 505.03 321.363 497.593C325.521 490.261 332.512 483.857 340.441 480.994C353.795 476.172 368.49 476.095 382.673 475.454C413.345 474.07 444.078 475.105 474.78 474.93C475.455 433.086 475.001 391.208 476.804 349.398Z" fill="{{fill}}" fill-rule="nonzero" opacity="1" stroke="none"/>
</g>
</svg>
