<?xml version="1.0" encoding="UTF-8" standalone="no"?>
<!DOCTYPE svg PUBLIC "-//W3C//DTD SVG 1.1//EN" "http://www.w3.org/Graphics/SVG/1.1/DTD/svg11.dtd">
<!-- Created with Vectornator (http://vectornator.io/) -->
<svg height="{{height}}" stroke-miterlimit="10" style="fill-rule:nonzero;clip-rule:evenodd;stroke-linecap:round;stroke-linejoin:round;" version="1.1" viewBox="0 0 1024 1024" width="{{width}}" xml:space="preserve" xmlns="http://www.w3.org/2000/svg" xmlns:vectornator="http://vectornator.io" xmlns:xlink="http://www.w3.org/1999/xlink">
<defs/>
<g id="Layer-1" vectornator:layerName="Layer 1">
<path d="M203.539 103.497C197.45 105.527 192.037 109.925 187.301 116.691C182.564 123.457 180.196 130.224 180.196 136.99C180.196 143.756 181.211 149.169 183.241 153.229C185.271 157.288 187.639 160.671 190.345 163.378C193.052 166.084 197.45 168.452 203.539 170.482C209.629 172.512 282.365 173.527 421.748 173.527C561.131 173.527 634.544 172.174 641.987 169.467C649.43 166.761 655.181 161.686 659.241 154.243C663.3 146.801 664.315 138.343 662.285 128.87C660.256 119.398 657.211 112.97 653.151 109.587C649.091 106.204 644.355 103.836 638.942 102.482C633.529 101.129 561.131 100.452 421.748 100.452C282.365 100.452 209.629 101.467 203.539 103.497ZM130.465 225.288C124.375 227.318 118.962 231.716 114.226 238.482C109.49 245.248 107.121 252.015 107.121 258.781C107.121 265.547 108.136 270.96 110.166 275.02C112.196 279.079 114.564 282.462 117.271 285.169C119.977 287.875 124.375 290.243 130.465 292.273C136.554 294.303 233.649 295.318 421.748 295.318C609.848 295.318 707.619 293.965 715.062 291.258C722.504 288.552 728.256 283.477 732.315 276.034C736.375 268.592 737.39 260.134 735.36 250.661C733.33 241.189 730.285 234.761 726.226 231.378C722.166 227.995 717.43 225.627 712.017 224.273C706.604 222.92 609.848 222.243 421.748 222.243C233.649 222.243 136.554 223.258 130.465 225.288ZM108.136 348.094C96.6339 350.801 87.4996 354.184 80.7334 358.243C73.9673 362.303 66.8628 368.393 59.42 376.512C51.9772 384.631 45.8877 394.781 41.1514 406.96C36.415 419.139 34.0469 487.477 34.0469 611.975C34.0469 736.472 37.0917 805.825 43.1812 820.034C49.2708 834.243 57.3902 845.746 67.5394 854.542C77.6887 863.338 89.8678 869.766 104.077 873.825C118.286 877.885 209.629 879.915 378.106 879.915C462.345 879.915 546.584 879.915 630.823 879.915C619.997 869.089 609.171 858.263 598.345 847.437C576.693 825.786 560.116 803.457 548.614 780.452C537.111 757.447 529.33 735.457 525.271 714.482C521.211 693.507 519.181 676.253 519.181 662.721C519.181 649.189 520.873 632.95 524.256 614.005C527.639 595.059 531.36 579.835 535.42 568.333C539.48 556.83 546.246 542.96 555.718 526.721C565.191 510.482 578.385 493.567 595.3 475.975C612.216 458.383 626.086 445.865 636.912 438.422C647.738 430.98 659.579 424.214 672.435 418.124C685.29 412.034 700.853 406.622 719.121 401.885C737.39 397.149 755.32 394.442 772.912 393.766C781.708 393.427 790.504 393.089 799.3 392.751C798.285 391.059 797.271 389.368 796.256 387.676C794.226 384.293 788.136 378.204 777.987 369.408C767.838 360.612 755.32 354.184 740.435 350.124C725.549 346.064 619.32 344.034 421.748 344.034C224.176 344.034 119.639 345.388 108.136 348.094ZM760.733 444.512C745.848 446.542 731.977 449.587 719.121 453.646C706.266 457.706 694.086 462.781 682.584 468.87C671.081 474.96 659.241 483.079 647.062 493.228C634.882 503.378 624.395 514.204 615.599 525.706C606.803 537.209 599.36 549.049 593.271 561.228C587.181 573.408 581.768 589.308 577.032 608.93C572.295 628.552 569.927 645.806 569.927 660.691C569.927 675.577 572.972 694.522 579.062 717.527C585.151 740.532 591.917 758.462 599.36 771.318C606.803 784.174 614.584 795.338 622.703 804.81C630.823 814.283 639.957 823.079 650.106 831.198C660.256 839.318 672.773 847.099 687.659 854.542C702.544 861.985 716.415 867.397 729.271 870.781C742.126 874.164 755.997 876.532 770.882 877.885C785.768 879.238 800.654 878.9 815.539 876.87C830.425 874.84 844.295 871.795 857.151 867.736C870.007 863.676 884.892 856.572 901.808 846.422C918.723 836.273 932.256 826.124 942.405 815.975C952.554 805.825 960.673 796.353 966.763 787.557C972.853 778.761 979.619 765.567 987.061 747.975C994.504 730.383 999.579 713.805 1002.29 698.243C1004.99 682.681 1006.35 670.164 1006.35 660.691C1006.35 651.218 1004.99 638.701 1002.29 623.139C999.579 607.577 994.504 591 987.061 573.408C979.619 555.815 972.853 542.621 966.763 533.825C960.673 525.029 952.554 515.557 942.405 505.408C932.256 495.258 922.106 486.801 911.957 480.034C901.808 473.268 889.629 466.84 875.42 460.751C861.211 454.661 842.266 449.925 818.584 446.542C794.902 443.159 775.619 442.482 760.733 444.512ZM788.136 538.9C794.226 538.9 799.639 541.268 804.375 546.005C809.111 550.741 811.818 566.98 812.494 594.721C813.171 622.462 827.042 636.333 854.106 636.333C881.171 636.333 896.733 638.024 900.793 641.408C904.853 644.791 907.559 648.512 908.912 652.572C910.265 656.631 910.265 661.368 908.912 666.781C907.559 672.194 904.853 676.592 900.793 679.975C896.733 683.358 881.171 685.049 854.106 685.049C840.574 685.049 827.042 685.049 813.509 685.049C813.509 697.567 813.509 710.084 813.509 722.602C813.509 747.636 812.833 762.184 811.479 766.243C810.126 770.303 807.42 774.024 803.36 777.407C799.3 780.791 794.226 782.482 788.136 782.482C782.047 782.482 776.634 780.452 771.897 776.393C767.161 772.333 764.455 756.094 763.778 727.676C763.101 699.258 749.231 685.049 722.166 685.049C695.101 685.049 679.539 683.696 675.479 680.99C671.42 678.283 668.713 675.238 667.36 671.855C666.007 668.472 666.007 663.059 667.36 655.616C668.713 648.174 671.42 643.099 675.479 640.393C679.539 637.686 695.101 636.333 722.166 636.333C735.698 636.333 749.231 636.333 762.763 636.333C762.763 623.139 762.763 609.945 762.763 596.751C762.763 570.363 763.44 555.477 764.793 552.094C766.146 548.711 768.853 545.666 772.912 542.96C776.972 540.253 782.047 538.9 788.136 538.9Z" fill="{{fill}}" fill-rule="nonzero" opacity="1" stroke="none"/>
</g>
</svg>
