<?xml version="1.0" encoding="UTF-8" standalone="no"?>
<!DOCTYPE svg PUBLIC "-//W3C//DTD SVG 1.1//EN" "http://www.w3.org/Graphics/SVG/1.1/DTD/svg11.dtd">
<!-- Created with Vectornator (http://vectornator.io/) -->
<svg height="{{height}}" stroke-miterlimit="10" style="fill-rule:nonzero;clip-rule:evenodd;stroke-linecap:round;stroke-linejoin:round;" version="1.1" viewBox="0 0 1024 1024" width="{{width}}" xml:space="preserve" xmlns="http://www.w3.org/2000/svg" xmlns:vectornator="http://vectornator.io" xmlns:xlink="http://www.w3.org/1999/xlink">
<defs/>
<g id="Layer-1" vectornator:layerName="Layer 1">
<path d="M365.247 157.152C314.427 161.419 272.071 185.307 239.879 227.111C176.178 309.831 197.05 425.975 275.166 490.664C311.581 520.82 363.147 529.63 408.895 525.738C540.178 514.567 610.721 362.733 549.539 250.269C509.446 176.569 443.506 150.582 365.247 157.152ZM819.189 321.076C770.62 335.702 813.821 400.26 782.815 433.834C758.064 460.636 713.552 439.187 683.406 453.391C672.766 458.404 667.875 469.897 667.875 481.12C667.875 502.881 683.065 511.055 702.066 512.886C724.814 515.078 749.659 510.177 770.245 520.102C812.482 540.468 784.898 592.042 802.037 626.418C810.192 642.773 831.462 646.192 846.469 638.072C851.004 635.617 856.873 632.744 857.949 627.7C863.054 603.768 861.418 578.863 864.285 554.56C865.373 545.336 870.626 535.898 876.659 529.133C901.352 501.444 946.597 524.641 975.896 507.823C990.894 499.213 995.198 476.502 985.78 462.448C982.91 458.166 979.38 453.066 974.325 452.06C950.468 447.312 925.599 449.837 901.628 445.702C893.637 444.323 886.133 440.293 879.455 435.692C838.473 407.454 892.087 299.124 819.189 321.076ZM290.559 600.425C255.082 605.107 219.399 615.962 188.713 634.374C123.616 673.432 79.3623 740.935 66.4982 815.514C63.6533 832.007 64.2378 849.006 65.2857 865.71C65.9208 875.832 76.6213 888.075 83.6083 893.354C86.9282 895.862 91.1267 897.492 95.277 897.786C119.82 899.527 144.468 899.361 169.072 899.416C332.752 899.783 496.436 899.84 660.115 899.052C668.551 899.012 677.464 899.969 685.334 896.93C692.671 894.098 698.845 888.336 703.763 882.199C713.618 869.904 713.298 852.469 711.766 838.066C706.203 785.794 688.124 730.034 650.779 691.129C634.313 673.974 617.329 657.006 598.059 643.074C582.62 631.912 565.256 623.312 547.483 616.449C497.405 597.112 441.237 597.614 387.556 597.515C355.209 597.456 322.628 596.193 290.559 600.425Z" fill="{{fill}}" fill-rule="nonzero" opacity="1" stroke="none"/>
</g>
</svg>
