<?xml version="1.0" encoding="UTF-8" standalone="no"?>
<!DOCTYPE svg PUBLIC "-//W3C//DTD SVG 1.1//EN" "http://www.w3.org/Graphics/SVG/1.1/DTD/svg11.dtd">
<!-- Created with Vectornator (http://vectornator.io/) -->
<svg height="{{height}}" stroke-miterlimit="10" style="fill-rule:nonzero;clip-rule:evenodd;stroke-linecap:round;stroke-linejoin:round;" version="1.1" viewBox="0 0 1024 1024" width="{{width}}" xml:space="preserve" xmlns="http://www.w3.org/2000/svg" xmlns:vectornator="http://vectornator.io" xmlns:xlink="http://www.w3.org/1999/xlink">
<defs/>
<g id="Layer-1" vectornator:layerName="Layer 1">
<path d="M334.981 168.022C323.192 171.165 312.19 176.274 301.973 183.347C291.756 190.42 240.672 239.932 148.721 331.883C56.7705 423.834 9.61623 472.56 7.25851 478.061C4.9008 483.563 3.72194 491.815 3.72194 502.817C3.72194 513.82 4.9008 522.072 7.25851 527.573C9.61623 533.075 56.7705 581.801 148.721 673.752C240.672 765.703 290.97 814.822 299.615 821.109C308.26 827.396 316.905 832.112 325.55 835.255C334.195 838.399 434.398 840.364 626.159 841.149C817.92 841.935 919.302 841.149 930.304 838.792C941.307 836.434 952.31 832.112 963.312 825.824C974.315 819.537 984.139 811.285 992.784 801.068C1001.43 790.852 1008.11 778.67 1012.82 764.524C1017.54 750.377 1019.9 663.142 1019.9 502.817C1019.9 342.493 1018.33 256.829 1015.18 245.826C1012.04 234.824 1008.11 225.393 1003.39 217.534C998.678 209.675 990.033 200.637 977.459 190.42C964.884 180.203 951.131 173.13 936.199 169.2C921.266 165.271 820.278 163.306 633.232 163.306C446.187 163.306 346.77 164.878 334.981 168.022ZM636.769 219.891C827.744 219.891 927.161 221.856 935.02 225.786C942.879 229.715 949.559 236.002 955.06 244.647C960.562 253.292 963.705 259.973 964.491 264.688C965.277 269.403 965.67 348.78 965.67 502.817C965.67 656.855 963.312 739.768 958.597 751.556C953.881 763.345 946.808 771.99 937.377 777.491C927.947 782.992 827.744 785.743 636.769 785.743C445.794 785.743 345.591 782.992 336.16 777.491C326.729 771.99 278.003 724.443 189.981 634.849C145.971 590.053 101.96 545.256 57.9494 500.46C101.96 456.449 145.971 412.438 189.981 368.427C278.003 280.406 326.729 233.645 336.16 228.143C345.591 222.642 445.794 219.891 636.769 219.891ZM495.306 370.785C488.233 377.072 485.089 384.146 485.875 392.005C486.661 399.864 503.165 420.69 535.387 454.484C567.609 488.278 567.609 521.286 535.387 553.508C503.165 585.73 487.054 606.557 487.054 615.988C487.054 625.418 490.197 632.492 496.485 637.207C502.772 641.922 509.452 643.494 516.525 641.922C523.598 640.351 543.246 623.454 575.468 591.232C591.579 575.121 607.69 559.009 623.801 542.898C640.305 559.009 656.809 575.121 673.313 591.232C706.321 623.454 724.397 640.351 727.541 641.922C730.684 643.494 735.793 643.494 742.866 641.922C749.939 640.351 755.44 636.814 759.37 631.313C763.299 625.811 764.478 619.131 762.906 611.272C761.335 603.413 749.546 588.874 727.541 567.654C705.535 546.435 689.817 529.931 680.386 518.142C670.956 506.354 681.958 484.741 713.394 453.305C744.831 421.869 761.335 404.579 762.906 401.435C764.478 398.292 764.478 392.791 762.906 384.931C761.335 377.072 757.405 371.178 751.118 367.249C744.831 363.319 738.543 362.14 732.256 363.712C725.969 365.284 705.928 382.181 672.134 414.403C655.237 430.514 638.34 446.625 621.443 462.736C605.725 446.625 590.007 430.514 574.289 414.403C542.853 382.181 523.598 365.284 516.525 363.712C509.452 362.14 502.379 364.498 495.306 370.785Z" fill="{{fill}}" fill-rule="nonzero" opacity="1" stroke="none"/>
</g>
</svg>
