<?xml version="1.0" encoding="UTF-8" standalone="no"?>
<!DOCTYPE svg PUBLIC "-//W3C//DTD SVG 1.1//EN" "http://www.w3.org/Graphics/SVG/1.1/DTD/svg11.dtd">
<!-- Created with Vectornator (http://vectornator.io/) -->
<svg height="{{height}}" stroke-miterlimit="10" style="fill-rule:nonzero;clip-rule:evenodd;stroke-linecap:round;stroke-linejoin:round;" version="1.1" viewBox="0 0 1024 1024" width="{{width}}" xml:space="preserve" xmlns="http://www.w3.org/2000/svg" xmlns:vectornator="http://vectornator.io" xmlns:xlink="http://www.w3.org/1999/xlink">
<defs/>
<g id="Layer-1" vectornator:layerName="Layer 1">
<path d="M770.442 101.448C763.023 103.303 755.294 106.704 747.256 111.65C739.218 116.597 726.543 128.345 709.23 146.894C691.918 165.443 709.23 200.377 761.168 251.696C787.137 277.356 813.105 303.015 839.074 328.675C848.967 318.164 858.86 307.652 868.753 297.141C888.538 276.119 900.595 260.043 904.923 248.914C909.251 237.784 911.106 226.036 910.488 213.67C909.87 201.304 906.16 188.938 899.359 176.572C892.557 164.206 882.974 151.84 870.607 139.474C858.241 127.108 846.803 117.833 836.292 111.65C825.781 105.467 814.033 101.758 801.048 100.521C788.064 99.2844 777.862 99.5936 770.442 101.448ZM214.897 199.759C198.203 204.087 183.982 209.961 172.234 217.38C160.487 224.8 149.357 234.693 138.846 247.059C128.335 259.425 121.225 269.318 117.515 276.737C113.805 284.157 110.404 293.741 107.313 305.488C104.221 317.236 102.366 395.761 101.748 541.062C101.13 686.363 102.675 768.288 106.385 786.837C110.095 805.386 115.351 820.535 122.152 832.282C128.953 844.03 139.155 856.087 152.758 868.453C166.361 880.819 179.654 889.784 192.638 895.349C205.623 900.914 217.989 904.624 229.737 906.479C241.484 908.334 318.154 909.261 459.745 909.261C601.337 909.261 679.861 907.715 695.319 904.624C710.776 901.532 725.615 895.968 739.836 887.93C754.057 879.892 767.042 869.071 778.789 855.469C790.537 841.866 798.575 830.427 802.903 821.153C807.231 811.878 810.632 801.676 813.105 790.547C815.579 779.417 816.815 743.247 816.815 682.035C816.815 620.823 815.888 587.744 814.033 582.797C812.178 577.851 809.086 572.904 804.758 567.958C800.43 563.011 793.938 558.993 785.282 555.901C776.625 552.809 766.733 552.5 755.603 554.974C744.474 557.447 735.817 562.084 729.634 568.885C723.451 575.687 719.742 580.942 718.505 584.652C717.268 588.362 716.65 619.277 716.65 677.397C716.65 735.518 715.104 768.597 712.013 776.635C708.921 784.673 703.666 791.474 696.246 797.039C688.826 802.604 610.92 805.695 462.528 806.314C314.135 806.932 235.92 805.077 227.882 800.749C219.844 796.421 213.661 790.238 209.333 782.2C205.005 774.162 202.84 697.183 202.84 551.264C202.84 405.344 203.459 330.53 204.695 326.82C205.932 323.11 208.714 318.473 213.042 312.908C217.371 307.343 224.172 302.706 233.446 298.996C242.721 295.286 276.418 293.431 334.539 293.431C392.659 293.431 424.502 292.195 430.067 289.722C435.631 287.248 440.269 284.157 443.979 280.447C447.688 276.737 451.089 270.863 454.181 262.825C457.272 254.788 458.509 246.75 457.89 238.712C457.272 230.674 455.726 224.182 453.253 219.235C450.78 214.289 447.07 209.651 442.124 205.323C437.177 200.995 432.231 197.904 427.284 196.049C422.338 194.194 389.877 193.266 329.902 193.266C269.926 193.266 231.592 195.43 214.897 199.759ZM503.336 352.789C409.354 448.007 353.088 522.203 334.539 575.378C315.99 628.552 307.024 659.467 307.643 668.123C308.261 676.779 311.353 684.199 316.917 690.382C322.482 696.565 330.52 700.275 341.031 701.511C351.542 702.748 380.603 695.328 428.212 679.252C475.821 663.177 503.336 653.284 510.755 649.574C518.175 645.864 567.948 598.255 660.075 506.746C752.202 415.237 798.575 368.555 799.193 366.7C799.812 364.845 774.152 338.258 722.215 286.939C696.246 261.28 670.277 235.62 644.309 209.961C597.318 257.57 550.327 305.179 503.336 352.789Z" fill="{{fill}}" fill-rule="nonzero" opacity="1" stroke="none"/>
</g>
</svg>
