<?xml version="1.0" encoding="UTF-8" standalone="no"?>
<!DOCTYPE svg PUBLIC "-//W3C//DTD SVG 1.1//EN" "http://www.w3.org/Graphics/SVG/1.1/DTD/svg11.dtd">
<!-- Created with Vectornator (http://vectornator.io/) -->
<svg height="{{height}}" stroke-miterlimit="10" style="fill-rule:nonzero;clip-rule:evenodd;stroke-linecap:round;stroke-linejoin:round;" version="1.1" viewBox="0 0 1024 1024" width="{{width}}" xml:space="preserve" xmlns="http://www.w3.org/2000/svg" xmlns:vectornator="http://vectornator.io" xmlns:xlink="http://www.w3.org/1999/xlink">
<defs/>
<g id="Layer-1" vectornator:layerName="Layer 1">
<path d="M841.257 642.825C855.6 635.765 872.361 632.292 884.285 621.645C894.548 612.482 901.287 599.186 904.976 585.932C908.66 572.699 908.395 558.198 905.695 544.73C903 531.292 894.676 519.631 889.166 507.081C910.844 499.345 934.934 490.468 948.616 471.96C954.626 463.83 958.526 453.963 960.474 444.043C962.66 432.912 963.48 421.032 960.781 410.014C957.358 396.042 952.004 381.741 942.553 370.896C932.858 359.772 920.232 347.933 905.535 346.624C815.257 338.585 724.278 344.468 633.649 343.39C658.481 291.882 682.167 241.846 687.173 183.879C688.071 173.481 688.234 162.641 685.301 152.626C668.787 96.2306 595.554 78.0315 551.803 114.822C522.394 139.553 522.831 186.011 509.204 221.94C502.661 239.191 495.439 256.78 483.869 271.152C459.067 301.962 426.537 325.889 401.126 356.198C388.008 371.845 377.354 389.704 368.896 408.288C359.18 429.637 358.514 463.562 358.918 486.121C360.18 556.627 358.214 627.374 364.667 697.596C366.028 712.402 374.448 725.91 382.124 738.644C404.034 774.991 442.292 799.46 477.943 822.485C496.598 834.533 514.749 848.653 535.958 855.236C560.331 862.8 586.488 863.558 612.002 864.094C655.217 865.002 698.612 864.116 741.595 859.555C750.588 858.601 758.579 852.885 766.024 847.75C780.357 837.864 789.593 819.519 794.465 803.761C798.134 791.894 794.663 777.723 801.083 767.09C807.623 756.255 821.699 752.263 830.839 743.509C835.624 738.926 840.145 733.606 842.504 727.415C847.727 713.71 853.45 699.41 853.234 684.745C853.02 670.214 845.249 656.798 841.257 642.825ZM119.62 373.334C109.82 374.334 100.522 381.453 94.9164 389.553C88.2328 399.211 85.0542 411.619 84.9977 423.364C84.3331 561.511 80.7472 700.111 92.7605 837.736C93.894 850.722 110.379 860.441 123.3 862.16C171.423 868.562 220.738 866.965 268.938 861.172C279.322 859.924 287.702 850.376 293.541 841.699C298.641 834.121 299.976 824.195 299.967 815.062C299.82 675.017 300.335 534.841 293.075 394.985C292.674 387.259 283.861 382.045 277.277 377.982C271.462 374.394 264.229 373.176 257.4 372.974C211.493 371.621 165.309 368.672 119.62 373.334Z" fill="{{fill}}" fill-rule="nonzero" opacity="1" stroke="none"/>
</g>
</svg>
