<?xml version="1.0" encoding="UTF-8" standalone="no"?>
<!DOCTYPE svg PUBLIC "-//W3C//DTD SVG 1.1//EN" "http://www.w3.org/Graphics/SVG/1.1/DTD/svg11.dtd">
<!-- Created with Vectornator (http://vectornator.io/) -->
<svg height="{{height}}" stroke-miterlimit="10" style="fill-rule:nonzero;clip-rule:evenodd;stroke-linecap:round;stroke-linejoin:round;" version="1.1" viewBox="0 0 1024 1024" width="{{width}}" xml:space="preserve" xmlns="http://www.w3.org/2000/svg" xmlns:vectornator="http://vectornator.io" xmlns:xlink="http://www.w3.org/1999/xlink">
<defs>
<clipPath id="TextBounds">
<rect height="330.956" width="503.028" x="147.765" y="193.768"/>
</clipPath>
<clipPath id="TextBounds_2">
<rect height="122.97" width="326.561" x="573.879" y="277.472"/>
</clipPath>
</defs>
<g id="Layer-1" vectornator:layerName="Layer 1">
<path d="M459.812 329.932C418.855 329.922 377.871 330.621 336.937 330.557C322.09 330.534 306.547 330.942 293.78 339.525C272.454 353.865 262.817 372.742 262.374 398.338C261.122 470.644 262.283 542.961 261.655 615.275C261.56 626.284 249.787 634.09 246.374 644.557C243.573 653.146 243.41 662.628 244.562 671.588C246.32 685.278 249.287 699.117 254.999 711.682C260.318 723.384 268.203 733.99 277.124 743.244C290.495 757.116 305.256 769.891 321.343 780.494C338.146 791.568 356.584 800.118 375.155 807.869C377.999 809.056 381.631 808.241 384.343 806.775C388.024 804.786 392.441 802.113 393.343 798.025C395.245 789.396 398.073 778.062 392.093 771.557C380.295 758.725 360.74 756.181 346.124 746.682C320.184 729.823 304.618 715.679 290.374 688.463C278.416 665.614 274.29 641.866 273.718 616.307C272.119 544.852 270.758 473.323 272.437 401.869C272.879 383.024 279.992 361.078 295.374 350.182C301.442 345.883 308.568 341.932 315.999 341.65C399.087 338.496 482.29 339.532 565.437 339.932C571.218 339.96 577.119 340.894 582.53 342.932C596.083 348.036 617.26 367.672 617.905 383.338C620.794 453.415 619.074 523.642 618.499 593.775C617.984 656.481 600.421 710.923 546.655 747.432C531.621 757.641 510.599 760.58 499.655 775.088C491.667 785.677 498.139 801.607 495.905 814.682C494.287 824.152 491.114 824.238 484.28 828.15C483.026 826.291 480.704 824.794 480.53 822.557C479.427 808.343 479.131 793.994 480.53 779.807C481.598 768.982 484.106 758.197 487.874 747.994C493.131 733.756 515.003 734.409 528.53 727.525C551.674 715.749 569.934 702.443 584.562 680.682C590.77 671.445 597.949 661.564 598.749 650.463C603.457 585.137 601.47 519.487 600.874 453.994C600.664 430.88 600.831 407.451 596.343 384.775C594.932 377.65 580.236 364.536 571.874 363.744C547.814 361.465 523.573 361.879 499.405 361.807C442.829 361.638 386.185 360.676 329.655 362.994C322.311 363.295 314.904 365.799 308.624 369.619C302.989 373.047 296.368 377.586 295.093 384.057C290.412 407.787 291.905 432.341 291.499 456.525C290.692 504.507 291.279 552.506 291.437 600.494C291.588 646.96 296.684 675.803 332.905 708.963C348.186 722.952 369.331 728.669 387.687 738.275C390.859 739.936 393.715 742.573 395.437 745.713C407.299 767.349 400.739 794.866 405.905 818.994C407.922 828.413 420.498 837.639 429.812 835.182C433.03 834.333 436.973 831.869 437.312 828.557C440.133 800.932 438.429 773.038 438.999 745.275C454.375 744.848 454.373 744.859 469.749 744.432C470.176 771.91 469.038 799.46 471.03 826.869C471.383 831.715 479.16 838.508 484.562 835.494C490.647 832.097 496.413 827.293 499.874 821.244C503.182 815.463 502.584 808.172 503.937 801.65C518.93 805.565 519.69 808.829 533.624 801.775C546.174 795.423 558.504 788.545 570.124 780.619C615.68 749.541 648.465 713.937 648.312 656.025C648.279 643.857 637.611 634.037 634.374 622.307C631.805 612.993 631.994 603.09 631.749 593.432C629.953 522.712 634.496 451.71 628.249 381.244C627.183 369.22 618.507 358.583 610.155 349.869C602.751 342.145 593.203 334.28 582.53 333.525C541.697 330.637 500.768 329.941 459.812 329.932ZM448.187 493.838C451.547 494.061 454.151 500.214 456.937 503.025C469.319 515.521 481.633 528.113 493.374 541.213C502.512 551.409 499.51 555.285 490.155 564.619C480.201 574.553 464.833 593.034 448.468 598.338C441.443 600.615 437.232 595.548 432.562 591.15C418.747 578.143 404.108 565.399 393.905 549.4C393.19 548.278 394.803 546.803 395.687 545.807C403.469 537.033 411.542 528.528 419.78 520.182C428.551 511.296 435.352 499.386 446.687 494.15C447.2 493.913 447.706 493.806 448.187 493.838ZM263.187 627.119C263.475 626.925 263.7 626.979 263.874 627.4C266.732 634.318 266.099 642.216 267.843 649.494C272.936 670.756 280.066 695.557 293.812 713.182C310.455 734.523 327.903 749.394 351.874 761.932C364.03 768.29 392.185 771.973 383.968 792.838C381.129 800.045 374.101 799.628 368.155 796.525C351.616 787.894 334.877 779.212 320.187 767.713C281.381 737.334 233.529 684.613 260.468 631.682C261.088 630.463 262.321 627.703 263.187 627.119ZM628.249 630.275C631.072 630.381 632.576 639.416 634.374 643.244C640.919 657.187 639.933 675.166 636.374 689.713C626.333 730.766 591.021 755.798 557.749 777.963C547.909 784.518 537.26 789.769 526.78 795.244C522.777 797.336 518.227 799.105 513.749 796.963C507.978 794.203 505.669 781.942 511.499 778.182C528.919 766.945 548.554 759.003 564.843 746.182C597.731 720.291 610.374 693.757 621.374 654.307C623.535 646.556 620.807 636.018 626.937 630.807C627.397 630.415 627.846 630.26 628.249 630.275ZM415.749 743.682C417.544 743.602 420.048 745.233 421.937 745.713C426.032 746.754 427.189 752.946 427.905 756.275C431.905 774.876 430.763 796.07 430.562 814.807C430.44 826.147 422.301 834.617 415.312 821.838C411.705 815.244 413.051 797.299 412.968 792.275C412.771 780.459 412.853 768.613 413.374 756.807C413.557 752.672 411.726 747.712 414.249 744.432C414.645 743.917 415.151 743.708 415.749 743.682Z" fill="#f3f3f3" fill-rule="nonzero" opacity="1" stroke="none"/>
<path d="M445.843 506.088C433.421 520.768 417.971 534.032 406.562 549.244C414.737 559.512 423.987 568.853 433.155 578.244C447.07 592.498 446.611 595.016 460.937 580.494C470.612 570.686 479.92 560.518 489.405 550.525C474.357 536.254 459.812 521.418 445.843 506.088ZM448.124 542.182C454.282 541.482 458.629 549.439 455.249 553.494C449.185 560.772 429.645 560.219 441.562 546.244C443.797 543.622 446.071 542.415 448.124 542.182Z" fill="#000000" fill-rule="nonzero" opacity="1" stroke="none"/>
<path d="M445.843 506.088C433.421 520.768 417.971 534.032 406.562 549.244C414.737 559.512 423.987 568.853 433.155 578.244C447.07 592.498 446.611 595.016 460.937 580.494C470.612 570.686 479.92 560.518 489.405 550.525C474.357 536.254 459.812 521.418 445.843 506.088ZM448.124 542.182C454.282 541.482 458.629 549.439 455.249 553.494C449.185 560.772 429.645 560.219 441.562 546.244C443.797 543.622 446.071 542.415 448.124 542.182Z" fill="#000000" fill-rule="nonzero" opacity="1" stroke="none"/>
<path d="M432.53 372.463C418.137 372.389 403.733 372.376 389.343 372.494C370.156 372.652 350.989 373 331.812 373.682C316.873 374.213 303.909 383.042 303.78 399.838C303.191 477.038 302.556 554.262 303.062 631.463C303.219 655.481 313.928 676.984 330.218 694.369C366.679 733.284 424.087 738.126 474.03 734.182C498.128 732.279 522.18 723.093 542.249 709.619C558.352 698.808 581.094 677.468 585.562 656.525C589.64 637.405 588.517 617.508 588.968 597.963C589.945 555.605 589.838 513.238 589.843 470.869C589.845 449.084 590.158 427.247 588.968 405.494C588.64 399.503 588.051 393.238 585.312 387.9C579.959 377.471 572.743 374.137 562.062 374.025C518.888 373.573 475.71 372.686 432.53 372.463ZM448.187 493.838C451.547 494.061 454.151 500.214 456.937 503.025C469.319 515.521 481.633 528.113 493.374 541.213C502.512 551.409 499.51 555.285 490.155 564.619C480.201 574.553 464.833 593.034 448.468 598.338C441.443 600.615 437.232 595.548 432.562 591.15C418.747 578.143 404.108 565.399 393.905 549.4C393.19 548.278 394.803 546.803 395.687 545.807C403.469 537.033 411.542 528.528 419.78 520.182C428.551 511.296 435.352 499.386 446.687 494.15C447.2 493.913 447.706 493.806 448.187 493.838Z" fill="#f3f3f3" fill-rule="nonzero" opacity="1" stroke="none"/>
<path d="M445.843 506.088C433.421 520.768 417.971 534.032 406.562 549.244C414.737 559.512 423.987 568.853 433.155 578.244C447.07 592.498 446.611 595.016 460.937 580.494C470.612 570.686 479.92 560.518 489.405 550.525C474.357 536.254 459.812 521.418 445.843 506.088ZM448.124 542.182C454.282 541.482 458.629 549.439 455.249 553.494C449.185 560.772 429.645 560.219 441.562 546.244C443.797 543.622 446.071 542.415 448.124 542.182Z" fill="#000000" fill-rule="nonzero" opacity="1" stroke="none"/>
<path d="M445.843 506.088C433.421 520.768 417.971 534.032 406.562 549.244C414.737 559.512 423.987 568.853 433.155 578.244C447.07 592.498 446.611 595.016 460.937 580.494C470.612 570.686 479.92 560.518 489.405 550.525C474.357 536.254 459.812 521.418 445.843 506.088ZM448.124 542.182C454.282 541.482 458.629 549.439 455.249 553.494C449.185 560.772 429.645 560.219 441.562 546.244C443.797 543.622 446.071 542.415 448.124 542.182Z" fill="#ed6d48" fill-rule="nonzero" opacity="1" stroke="none"/>
<g fill="#f3f3f3" opacity="1" stroke="none">
<path clip-path="url(#TextBounds)" d="M297.388 267.082L349.978 268.025L350.281 251.13L297.215 250.178L297.663 225.193L350.61 226.142L350.917 209.009L281.313 207.761L279.498 309.013L296.631 309.321L297.388 267.082Z"/>
<path clip-path="url(#TextBounds)" d="M378.878 209.51L361.031 209.19L359.215 310.443L431.912 311.746L432.219 294.613L377.369 293.63L378.878 209.51Z"/>
<path clip-path="url(#TextBounds)" d="M473.586 211.208C457.405 210.918 443.961 223.888 443.669 240.189L442.91 282.546C442.619 298.727 455.589 312.171 471.771 312.461L483.312 312.668C499.612 312.96 512.937 299.988 513.227 283.807L513.987 241.449C514.279 225.149 501.428 211.708 485.128 211.415L473.586 211.208ZM495.042 282.409C494.916 289.429 490.41 295.18 483.509 295.057L472.206 294.854C465.305 294.73 461.007 288.821 461.133 281.801L461.856 241.467C461.982 234.447 466.489 228.696 473.39 228.82L484.693 229.022C491.594 229.146 495.891 235.055 495.766 242.075L495.042 282.409Z"/>
<path clip-path="url(#TextBounds)" d="M594.114 213.37L575.91 213.043C571.562 229.866 567.101 246.33 562.755 263.033L558.538 279.144L557.586 279.127L542 212.435L523.796 212.109L547.8 313.824L567.193 314.172L584.425 249.259L599.913 314.759L619.307 315.107L646.109 214.302L628.024 213.978C622.147 236.367 616.286 257.923 610.652 280.079L609.7 280.062L594.114 213.37Z"/>
</g>
<g fill="#ed6d48" opacity="1" stroke="none">
<path clip-path="url(#TextBounds_2)" d="M678.665 371.421L696.584 371.421L667.973 336.573L672.23 336.573C685.001 336.573 695.099 326.277 695.099 313.704L695.099 310.041C695.099 297.468 685.001 287.172 672.23 287.172L636.095 287.172L636.095 371.421L651.737 371.421L651.737 337.365L678.665 371.421ZM669.755 301.923C676.685 301.923 679.952 305.982 679.952 311.922C679.952 318.06 676.784 321.822 669.755 321.822L651.737 321.822L651.737 301.923L669.755 301.923Z"/>
<path clip-path="url(#TextBounds_2)" d="M746.777 371.421L761.627 371.421L740.837 287.172L724.7 287.172L703.118 371.421L718.067 371.421L721.136 358.551L743.807 358.551L746.777 371.421ZM732.323 311.625L733.115 311.625L740.936 346.077L724.106 346.077L732.323 311.625Z"/>
<path clip-path="url(#TextBounds_2)" d="M789.644 371.421L804.692 371.421L804.692 302.715L826.472 302.715L826.472 287.172L768.062 287.172L768.062 302.715L789.644 302.715L789.644 371.421Z"/>
<path clip-path="url(#TextBounds_2)" d="M850.727 336.276L892.703 336.276L892.703 322.218L850.727 322.218L850.727 301.428L892.703 301.428L892.703 287.172L834.788 287.172L834.788 371.421L892.703 371.421L892.703 357.165L850.727 357.165L850.727 336.276Z"/>
</g>
</g>
</svg>
