<?xml version="1.0" encoding="UTF-8" standalone="no"?>
<!DOCTYPE svg PUBLIC "-//W3C//DTD SVG 1.1//EN" "http://www.w3.org/Graphics/SVG/1.1/DTD/svg11.dtd">
<!-- Created with Vectornator (http://vectornator.io/) -->
<svg height="100%" stroke-miterlimit="10" style="fill-rule:nonzero;clip-rule:evenodd;stroke-linecap:round;stroke-linejoin:round;" version="1.1" viewBox="0 0 1024 1024" width="100%" xml:space="preserve" xmlns="http://www.w3.org/2000/svg" xmlns:vectornator="http://vectornator.io" xmlns:xlink="http://www.w3.org/1999/xlink">
<defs>
<linearGradient gradientTransform="matrix(1 0 0 1 0 0)" gradientUnits="userSpaceOnUse" id="LinearGradient" x1="141.678" x2="881.376" y1="517.931" y2="517.931">
<stop offset="0" stop-color="#ff8663"/>
<stop offset="0.590026" stop-color="#b54d4d"/>
<stop offset="0.965251" stop-color="#ffdcdc"/>
</linearGradient>
<linearGradient gradientTransform="matrix(1 0 0 1 0 0)" gradientUnits="userSpaceOnUse" id="LinearGradient_2" x1="249.569" x2="774.51" y1="464.474" y2="464.474">
<stop offset="0.0276469" stop-color="#f1ca9e"/>
<stop offset="0.994232" stop-color="#ff943a"/>
</linearGradient>
<linearGradient gradientTransform="matrix(1.82901 0 0 1.82901 -304.39 -548.531)" gradientUnits="userSpaceOnUse" id="LinearGradient_3" x1="406.562" x2="489.405" y1="548.161" y2="548.161">
<stop offset="0.00779518" stop-color="#d4666d"/>
<stop offset="1" stop-color="#ef9f46"/>
</linearGradient>
</defs>
<g id="Layer-1" vectornator:layerName="Layer 1">
<path d="M536.594 54.9062C461.684 54.889 386.745 56.1796 311.875 56.0625C284.72 56.0202 256.287 56.7703 232.938 72.4688C193.931 98.6951 176.311 133.215 175.5 180.031C173.21 312.28 175.335 444.549 174.188 576.812C174.013 596.947 152.461 611.231 146.219 630.375C141.096 646.085 140.801 663.424 142.906 679.812C146.123 704.851 151.554 730.144 162 753.125C171.729 774.528 186.152 793.948 202.469 810.875C226.925 836.247 253.92 859.606 283.344 879C314.078 899.255 347.814 914.885 381.781 929.062C386.983 931.233 393.602 929.742 398.562 927.062C405.296 923.424 413.383 918.538 415.031 911.062C418.511 895.279 423.688 874.554 412.75 862.656C391.172 839.187 355.419 834.53 328.688 817.156C281.243 786.321 252.771 760.466 226.719 710.688C204.847 668.896 197.297 625.436 196.25 578.688C193.326 447.996 190.836 317.189 193.906 186.5C194.716 152.032 207.71 111.899 235.844 91.9688C246.942 84.1065 259.97 76.8593 273.562 76.3438C425.531 70.5751 577.736 72.4876 729.812 73.2188C740.387 73.2696 751.166 74.9601 761.062 78.6875C785.851 88.0234 824.57 123.94 825.75 152.594C831.033 280.766 827.896 409.225 826.844 537.5C825.902 652.188 793.775 751.756 695.438 818.531C667.94 837.203 629.486 842.59 609.469 869.125C594.858 888.493 606.71 917.618 602.625 941.531C599.666 958.853 593.875 959 581.375 966.156C579.08 962.755 574.818 960.03 574.5 955.938C572.482 929.94 571.942 903.699 574.5 877.75C576.452 857.951 581.045 838.224 587.938 819.562C597.553 793.521 637.54 794.715 662.281 782.125C704.611 760.586 738.028 736.24 764.781 696.438C776.137 679.543 789.255 661.461 790.719 641.156C799.33 521.674 795.715 401.599 794.625 281.812C794.242 239.536 794.521 196.692 786.312 155.219C783.732 142.186 756.857 118.199 741.562 116.75C697.557 112.582 653.234 113.35 609.031 113.219C505.552 112.911 401.955 111.136 298.562 115.375C285.129 115.926 271.58 120.513 260.094 127.5C249.788 133.769 237.676 142.072 235.344 153.906C226.783 197.309 229.493 242.236 228.75 286.469C227.274 374.228 228.369 462.01 228.656 549.781C228.934 634.767 238.252 687.506 304.5 748.156C332.448 773.742 371.116 784.21 404.688 801.781C410.49 804.818 415.726 809.631 418.875 815.375C440.572 854.947 428.551 905.275 438 949.406C441.689 966.633 464.715 983.525 481.75 979.031C487.636 977.478 494.849 972.964 495.469 966.906C500.629 916.38 497.489 865.372 498.531 814.594C526.655 813.813 526.658 813.812 554.781 813.031C555.562 863.289 553.48 913.681 557.125 963.812C557.769 972.676 571.995 985.106 581.875 979.594C593.005 973.379 603.544 964.594 609.875 953.531C615.926 942.957 614.839 929.615 617.312 917.688C644.736 924.847 646.14 930.807 671.625 917.906C694.579 906.288 717.122 893.715 738.375 879.219C821.698 822.376 881.656 757.265 881.375 651.344C881.316 629.088 861.795 611.143 855.875 589.688C851.177 572.652 851.543 554.541 851.094 536.875C847.81 407.528 856.113 277.664 844.688 148.781C842.738 126.789 826.869 107.313 811.594 91.375C798.052 77.2481 780.583 62.8808 761.062 61.5C686.378 56.217 611.504 54.9235 536.594 54.9062ZM734.219 176.969C736.489 177.353 738.623 178.6 740.062 180.625C742.942 184.676 741.988 190.277 737.938 193.156C736.083 194.475 734.998 196.274 732.781 201.5C732.656 201.794 732.33 202.501 732.25 202.688C730.931 205.775 729.961 207.795 728.656 209.938C728.14 210.785 727.61 211.637 727.062 212.5C722.683 219.404 717.792 226.192 710.375 235.844C709.84 236.539 702.981 245.42 701.062 247.938C682.584 272.183 663.559 295.784 636.281 328.719C630.067 336.221 607.275 363.67 608.844 361.781C606.51 364.591 603.422 367.76 598.938 372.156C597.066 373.99 588.951 381.843 586.875 383.875C584.07 386.62 581.704 388.99 579.531 391.25C573.109 397.931 568.728 403.383 566.438 407.406C577.128 418.564 587.691 429.841 598 441.344C614.713 459.992 609.203 467.083 592.094 484.156C575.012 501.202 549.246 532.026 521.406 543.781C521.43 558.289 521.758 572.129 522.531 594.688C522.598 596.623 522.659 598.153 522.781 601.656C523.827 631.758 524.156 645.192 524.156 662.062C524.156 667.032 520.126 671.062 515.156 671.062C510.187 671.062 506.156 667.032 506.156 662.062C506.156 645.47 505.82 632.175 504.781 602.281C504.659 598.775 504.598 597.252 504.531 595.312C503.78 573.402 503.515 559.877 503.469 545.688C497.241 543.318 492.173 537.765 486.781 532.688C461.514 508.897 434.723 485.573 416.062 456.312C414.754 454.26 417.697 451.572 419.312 449.75C433.546 433.703 448.338 418.141 463.406 402.875C479.448 386.624 491.863 364.857 512.594 355.281C513.532 354.848 514.466 354.629 515.344 354.688C521.491 355.095 526.249 366.358 531.344 371.5C538.781 379.005 546.154 386.587 553.531 394.156C556.755 389.515 561.064 384.502 566.562 378.781C568.877 376.373 571.355 373.864 574.281 371C576.425 368.902 584.544 361.077 586.344 359.312C590.42 355.317 593.16 352.497 595 350.281C593.441 352.158 616.205 324.738 622.406 317.25C649.542 284.487 668.449 261.045 686.75 237.031C688.713 234.456 695.592 225.528 696.094 224.875C703.207 215.618 707.852 209.216 711.875 202.875C712.365 202.103 712.823 201.346 713.281 200.594C714.03 199.364 714.713 197.98 715.719 195.625C715.792 195.452 716.093 194.766 716.219 194.469C719.681 186.307 722.077 182.354 727.5 178.5C729.525 177.06 731.948 176.585 734.219 176.969ZM177.688 598.312C177.896 598.389 178.091 598.615 178.25 599C183.477 611.652 182.311 626.094 185.5 639.406C194.816 678.294 207.859 723.639 233 755.875C263.442 794.908 295.344 822.131 339.188 845.062C361.422 856.691 412.905 863.4 397.875 901.562C392.683 914.744 379.844 913.987 368.969 908.312C338.718 892.526 308.087 876.658 281.219 855.625C210.243 800.062 122.729 703.624 172 606.812C173.134 604.583 175.386 599.536 176.969 598.469C177.232 598.291 177.479 598.236 177.688 598.312ZM844.688 604.25C849.85 604.443 852.585 620.968 855.875 627.969C867.845 653.469 866.041 686.362 859.531 712.969C841.166 788.054 776.605 833.834 715.75 874.375C697.753 886.364 678.26 895.955 659.094 905.969C651.772 909.794 643.44 913.042 635.25 909.125C624.695 904.077 620.493 881.659 631.156 874.781C663.018 854.23 698.927 839.7 728.719 816.25C788.871 768.896 811.974 720.342 832.094 648.188C836.047 634.012 831.071 614.751 842.281 605.219C843.123 604.503 843.95 604.222 844.688 604.25ZM456.031 811.656C459.314 811.511 463.89 814.497 467.344 815.375C474.834 817.279 476.94 828.597 478.25 834.688C485.566 868.709 483.494 907.48 483.125 941.75C482.902 962.492 468.003 977.999 455.219 954.625C448.623 942.565 451.09 909.719 450.938 900.531C450.578 878.919 450.734 857.281 451.688 835.688C452.021 828.125 448.666 819.031 453.281 813.031C454.006 812.09 454.937 811.704 456.031 811.656Z" fill="url(#LinearGradient)" fill-rule="nonzero" opacity="1" stroke="none"/>
<path d="M511.059 377.107C488.341 403.957 460.082 428.216 439.214 456.04C454.168 474.819 471.084 491.904 487.854 509.081C513.304 535.151 512.465 539.757 538.666 513.197C556.363 495.257 573.386 476.661 590.736 458.384C563.212 432.281 536.608 405.146 511.059 377.107ZM515.232 443.123C526.494 441.843 534.445 456.396 528.264 463.813C517.172 477.124 481.433 476.113 503.229 450.553C507.318 445.758 511.478 443.549 515.232 443.123Z" fill="#000000" fill-rule="nonzero" opacity="1" stroke="none"/>
<path d="M511.059 377.107C488.341 403.957 460.082 428.216 439.214 456.04C454.168 474.819 471.084 491.904 487.854 509.081C513.304 535.151 512.465 539.757 538.666 513.197C556.363 495.257 573.386 476.661 590.736 458.384C563.212 432.281 536.608 405.146 511.059 377.107ZM515.232 443.123C526.494 441.843 534.445 456.396 528.264 463.813C517.172 477.124 481.433 476.113 503.229 450.553C507.318 445.758 511.478 443.549 515.232 443.123Z" fill="#000000" fill-rule="nonzero" opacity="1" stroke="none"/>
<path d="M486.719 132.719C460.393 132.583 434.039 132.533 407.719 132.75C372.625 133.039 337.575 133.691 302.5 134.938C275.178 135.908 251.453 152.062 251.219 182.781C250.14 323.981 248.982 465.206 249.906 606.406C250.194 650.335 269.8 689.67 299.594 721.469C366.281 792.644 471.278 801.495 562.625 794.281C606.7 790.8 650.668 774.018 687.375 749.375C716.828 729.602 758.422 690.554 766.594 652.25C774.054 617.279 772.019 580.905 772.844 545.156C774.63 467.684 774.429 390.18 774.438 312.688C774.442 272.843 775.02 232.91 772.844 193.125C772.244 182.168 771.167 170.701 766.156 160.938C756.366 141.862 743.162 135.767 723.625 135.562C644.661 134.735 565.695 133.126 486.719 132.719ZM734.219 176.969C736.489 177.353 738.623 178.6 740.062 180.625C742.942 184.676 741.988 190.277 737.938 193.156C736.083 194.475 734.998 196.274 732.781 201.5C732.656 201.794 732.33 202.501 732.25 202.688C730.931 205.775 729.961 207.795 728.656 209.938C728.14 210.785 727.61 211.637 727.062 212.5C722.683 219.404 717.792 226.192 710.375 235.844C709.84 236.539 702.981 245.42 701.062 247.938C682.584 272.183 663.559 295.784 636.281 328.719C630.067 336.221 607.275 363.67 608.844 361.781C606.51 364.591 603.422 367.76 598.938 372.156C597.066 373.99 588.951 381.843 586.875 383.875C584.07 386.62 581.704 388.99 579.531 391.25C573.109 397.931 568.728 403.383 566.438 407.406C577.128 418.564 587.691 429.841 598 441.344C614.713 459.992 609.203 467.083 592.094 484.156C575.012 501.202 549.246 532.026 521.406 543.781C521.43 558.289 521.758 572.129 522.531 594.688C522.598 596.623 522.659 598.153 522.781 601.656C523.827 631.758 524.156 645.192 524.156 662.062C524.156 667.032 520.126 671.062 515.156 671.062C510.187 671.062 506.156 667.032 506.156 662.062C506.156 645.47 505.82 632.175 504.781 602.281C504.659 598.775 504.598 597.252 504.531 595.312C503.78 573.402 503.515 559.877 503.469 545.688C497.241 543.318 492.174 537.765 486.781 532.688C461.514 508.897 434.723 485.573 416.062 456.312C414.754 454.26 417.697 451.571 419.312 449.75C433.546 433.703 448.338 418.141 463.406 402.875C479.448 386.624 491.863 364.857 512.594 355.281C513.532 354.848 514.466 354.629 515.344 354.688C521.491 355.095 526.249 366.359 531.344 371.5C538.781 379.005 546.154 386.587 553.531 394.156C556.755 389.515 561.064 384.502 566.562 378.781C568.877 376.373 571.355 373.864 574.281 371C576.425 368.902 584.544 361.077 586.344 359.312C590.42 355.317 593.16 352.497 595 350.281C593.441 352.158 616.205 324.738 622.406 317.25C649.542 284.487 668.449 261.045 686.75 237.031C688.713 234.456 695.592 225.528 696.094 224.875C703.207 215.618 707.852 209.216 711.875 202.875C712.365 202.103 712.823 201.346 713.281 200.594C714.03 199.364 714.713 197.98 715.719 195.625C715.792 195.452 716.093 194.766 716.219 194.469C719.681 186.307 722.077 182.354 727.5 178.5C729.525 177.06 731.948 176.585 734.219 176.969Z" fill="url(#LinearGradient_2)" fill-rule="nonzero" opacity="1" stroke="none"/>
<path d="M511.059 377.107C488.341 403.957 460.082 428.216 439.214 456.04C454.168 474.819 471.084 491.904 487.854 509.081C513.304 535.151 512.465 539.757 538.666 513.197C556.363 495.257 573.386 476.661 590.736 458.384C563.212 432.281 536.608 405.146 511.059 377.107ZM515.232 443.123C526.494 441.843 534.445 456.396 528.264 463.813C517.172 477.124 481.433 476.113 503.229 450.553C507.318 445.758 511.478 443.549 515.232 443.123Z" fill="#000000" fill-rule="nonzero" opacity="1" stroke="none"/>
<path d="M511.059 377.107C488.341 403.957 460.082 428.216 439.214 456.04C454.168 474.819 471.084 491.904 487.854 509.081C513.304 535.151 512.465 539.757 538.666 513.197C556.363 495.257 573.386 476.661 590.736 458.384C563.212 432.281 536.608 405.146 511.059 377.107ZM515.232 443.123C526.494 441.843 534.445 456.396 528.264 463.813C517.172 477.124 481.433 476.113 503.229 450.553C507.318 445.758 511.478 443.549 515.232 443.123Z" fill="url(#LinearGradient_3)" fill-rule="nonzero" opacity="1" stroke="none"/>
</g>
</svg>
