<?xml version="1.0" encoding="UTF-8" standalone="no"?>
<!DOCTYPE svg PUBLIC "-//W3C//DTD SVG 1.1//EN" "http://www.w3.org/Graphics/SVG/1.1/DTD/svg11.dtd">
<!-- Created with Vectornator (http://vectornator.io/) -->
<svg height="100%" stroke-miterlimit="10" style="fill-rule:nonzero;clip-rule:evenodd;stroke-linecap:round;stroke-linejoin:round;" version="1.1" viewBox="0 0 1024 1024" width="100%" xml:space="preserve" xmlns="http://www.w3.org/2000/svg" xmlns:vectornator="http://vectornator.io" xmlns:xlink="http://www.w3.org/1999/xlink">
<defs/>
<g id="Layer-1" vectornator:layerName="Layer 1">
<path d="M210.142 118.534C176.861 120.151 152.521 142.536 136.992 174.281C132.315 183.843 128.392 194.195 127.633 204.813C123.44 263.4 122.632 322.205 122.202 380.94C121.229 513.896 122.348 646.862 123.426 779.817C123.548 794.945 121.859 810.534 125.802 825.14C129.768 839.832 137.825 853.354 146.63 865.767C152.536 874.093 160.869 880.585 169.258 886.402C178.07 892.513 187.227 899.453 197.799 901.251C227.596 906.319 258.088 906.409 288.311 906.651C461.657 908.038 635.02 907.59 808.365 906.137C845.073 905.829 875.602 888.105 895.662 857.346C901.537 848.338 907.886 838.85 909.548 828.225C914.151 798.801 913.985 768.781 914.176 739C915.271 568.159 914.992 397.304 913.405 226.466C913.163 200.478 903.211 172.849 885.809 153.546C875.808 142.451 863.131 133.642 849.851 126.804C839.325 121.383 827.44 117.545 815.601 117.392C613.798 114.784 411.724 108.739 210.142 118.534ZM523.846 284.129C552.852 286.072 574.185 308.242 574.566 336.52C575.505 406.334 576.672 476.155 576.24 545.974C575.934 595.476 574.601 644.981 572.352 694.433C572.115 699.649 571.141 705.023 568.793 709.686C553.216 740.619 497.952 752.741 475.698 722.479C466.445 709.897 463.652 692.916 463.278 677.303C461.954 622.025 460.98 566.729 461.105 511.436C461.246 449.297 462.085 387.15 464.078 325.044C464.733 304.624 482.299 294.914 498.133 288.243C506.132 284.873 515.185 283.548 523.846 284.129ZM353.109 454.866C377.019 456.833 402.241 472.943 403.25 499.415C404.486 531.863 405.323 564.333 405.564 596.804C405.752 622.091 405.337 647.384 404.536 672.659C403.667 700.051 400.377 723.025 372.651 734.628C368.182 736.498 363.348 737.766 358.509 737.971C349.544 738.35 340.465 737.973 331.638 736.364C291.2 728.995 292.272 687.763 291.124 655.305C290.447 636.158 290.329 616.992 290.368 597.833C290.419 572.717 290.67 547.598 291.396 522.492C292.307 491.048 297.163 469.786 327.395 457.952C338.057 453.778 341.475 453.909 353.109 454.866ZM747.039 653.374C746.878 684.71 749.099 717.49 716.183 732.571C672.181 752.731 634.883 729.385 633.036 681.72C631.486 641.729 623.425 590.117 663.727 573.148C725.907 546.967 747.336 595.401 747.039 653.374Z" fill="#000000" fill-rule="nonzero" opacity="1" stroke="none"/>
</g>
</svg>
