<?xml version="1.0" encoding="UTF-8" standalone="no"?>
<!DOCTYPE svg PUBLIC "-//W3C//DTD SVG 1.1//EN" "http://www.w3.org/Graphics/SVG/1.1/DTD/svg11.dtd">
<!-- Created with Vectornator (http://vectornator.io/) -->
<svg height="100%" stroke-miterlimit="10" style="fill-rule:nonzero;clip-rule:evenodd;stroke-linecap:round;stroke-linejoin:round;" version="1.1" viewBox="0 0 1024 1024" width="100%" xml:space="preserve" xmlns="http://www.w3.org/2000/svg" xmlns:vectornator="http://vectornator.io" xmlns:xlink="http://www.w3.org/1999/xlink">
<defs/>
<g id="Layer-1" vectornator:layerName="Layer 1">
<path d="M391.1 136.383C382.525 138.527 375.022 141.743 368.591 146.03C362.159 150.318 356.8 155.677 352.512 162.108C348.225 168.54 345.009 176.311 342.866 185.422C340.722 194.533 339.65 306.544 339.65 521.455C339.65 628.911 339.65 736.366 339.65 843.822C358.14 843.822 376.63 843.822 395.12 843.822C413.609 843.822 432.099 843.822 450.589 843.822C450.589 825.064 450.589 806.306 450.589 787.549C450.589 750.033 451.125 728.327 452.197 722.432C453.269 716.537 455.145 710.641 457.824 704.746C460.504 698.851 463.988 693.491 468.275 688.668C472.563 683.844 480.066 679.021 490.785 674.198C501.503 669.374 510.614 666.962 518.117 666.962C525.621 666.962 533.124 668.302 540.627 670.982C548.13 673.662 554.829 677.413 560.725 682.237C566.62 687.06 571.175 692.152 574.391 697.511C577.607 702.87 580.018 708.23 581.626 713.589C583.234 718.948 584.038 741.994 584.038 782.725C584.038 803.091 584.038 823.456 584.038 843.822C602.528 843.822 621.018 843.822 639.507 843.822C657.997 843.822 676.487 843.822 694.977 843.822C694.977 734.759 694.977 625.695 694.977 516.632C694.977 298.505 694.441 187.298 693.369 183.01C692.297 178.722 690.154 173.631 686.938 167.736C683.722 161.84 680.239 157.017 676.487 153.265C672.736 149.514 666.304 145.494 657.193 141.207C648.082 136.919 603.6 134.508 523.745 133.972C443.89 133.436 399.675 134.24 391.1 136.383ZM522.137 222.401C532.32 222.937 539.019 224.277 542.235 226.421C545.45 228.565 547.862 231.78 549.47 236.068C551.078 240.355 551.882 248.394 551.882 260.185C551.882 266.08 551.882 271.976 551.882 277.871C558.313 277.871 564.744 277.871 571.175 277.871C584.038 277.871 592.613 279.211 596.9 281.891C601.188 284.57 603.868 287.25 604.939 289.93C606.011 292.609 606.547 299.845 606.547 311.635C606.547 323.426 606.011 330.393 604.939 332.537C603.868 334.681 602.26 336.824 600.116 338.968C597.972 341.112 594.757 342.72 590.469 343.792C586.182 344.863 578.678 345.399 567.96 345.399C557.241 345.399 551.614 352.367 551.078 366.301C550.542 380.235 548.934 388.81 546.254 392.026C543.574 395.242 540.895 397.385 538.215 398.457C535.535 399.529 528.568 400.065 517.313 400.065C506.059 400.065 498.824 399.261 495.608 397.653C492.392 396.046 489.713 393.098 487.569 388.81C485.425 384.523 484.353 376.216 484.353 363.889C484.353 351.563 477.386 345.131 463.452 344.595C449.517 344.06 441.21 342.988 438.531 341.38C435.851 339.772 433.707 337.36 432.099 334.145C430.491 330.929 429.688 323.158 429.688 310.831C429.688 298.505 430.223 291.27 431.295 289.126C432.367 286.982 435.047 284.57 439.334 281.891C443.622 279.211 452.197 277.871 465.059 277.871C477.922 277.871 484.621 270.636 485.157 256.166C485.693 241.695 487.033 233.12 489.177 230.441C491.32 227.761 494.804 225.617 499.628 224.009C504.451 222.401 511.954 221.866 522.137 222.401ZM116.967 273.048C105.713 277.335 97.9416 281.623 93.6541 285.91C89.3666 290.198 85.6151 295.289 82.3994 301.184C79.1838 307.08 77.04 312.171 75.9682 316.459C74.8963 320.746 74.3604 335.752 74.3604 361.478C74.3604 374.34 74.3604 387.203 74.3604 400.065C93.6541 400.065 112.948 400.065 132.242 400.065C170.829 400.065 192.535 401.673 197.358 404.889C202.182 408.104 204.861 413.196 205.397 420.163C205.933 427.13 205.129 432.221 202.986 435.437C200.842 438.653 197.626 441.064 193.339 442.672C189.051 444.28 168.15 445.084 130.634 445.084C111.876 445.084 93.1182 445.084 74.3604 445.084C74.3604 459.822 74.3604 474.561 74.3604 489.299C74.3604 504.037 74.3604 518.775 74.3604 533.514C93.9221 533.514 113.484 533.514 133.046 533.514C172.169 533.514 193.875 535.122 198.162 538.337C202.45 541.553 205.129 545.304 206.201 549.592C207.273 553.879 207.005 558.435 205.397 563.258C203.789 568.082 200.038 571.833 194.143 574.513C188.247 577.193 166.81 578.533 129.83 578.533C111.34 578.533 92.8502 578.533 74.3604 578.533C74.6283 614.708 74.8963 650.884 75.1643 687.06C75.7002 759.412 78.3799 800.143 83.2033 809.254C88.0268 818.365 92.3143 824.528 96.0659 827.744C99.8174 830.96 105.177 834.175 112.144 837.391C119.111 840.606 151.535 842.482 209.417 843.018C238.358 843.286 267.298 843.554 296.239 843.822C296.239 747.621 296.239 651.42 296.239 555.219C296.239 459.018 296.239 362.817 296.239 266.616C269.174 266.616 242.109 266.616 215.044 266.616C160.914 266.616 128.222 268.76 116.967 273.048ZM739.996 555.219C739.996 651.42 739.996 747.621 739.996 843.822C767.597 843.822 795.198 843.822 822.798 843.822C878 843.822 907.745 843.286 912.032 842.214C916.32 841.142 922.751 837.927 931.326 832.567C939.901 827.208 946.332 821.045 950.62 814.078C954.907 807.11 957.855 800.679 959.463 794.784C961.071 788.888 961.874 751.373 961.874 682.237C961.874 647.669 961.874 613.101 961.874 578.533C943.385 578.533 924.895 578.533 906.405 578.533C869.425 578.533 847.72 576.925 841.288 573.709C834.857 570.494 831.105 566.206 830.034 560.847C828.962 555.487 829.498 550.396 831.641 545.572C833.785 540.749 836.465 537.533 839.68 535.925C842.896 534.318 864.066 533.514 903.189 533.514C922.751 533.514 942.313 533.514 961.874 533.514C961.874 518.775 961.874 504.037 961.874 489.299C961.874 474.561 961.874 459.822 961.874 445.084C943.117 445.084 924.359 445.084 905.601 445.084C868.085 445.084 847.452 444.548 843.7 443.476C839.948 442.404 837.001 440.796 834.857 438.653C832.713 436.509 831.105 432.757 830.034 427.398C828.962 422.039 828.962 417.751 830.034 414.535C831.105 411.32 834.053 408.104 838.877 404.889C843.7 401.673 865.406 400.065 903.993 400.065C923.287 400.065 942.581 400.065 961.874 400.065C961.606 386.131 961.339 372.196 961.071 358.262C960.535 330.393 958.927 313.243 956.247 306.812C953.567 300.381 949.816 294.485 944.992 289.126C940.169 283.766 933.202 278.943 924.091 274.655C914.98 270.368 882.02 267.956 825.21 267.42C796.805 267.152 768.401 266.884 739.996 266.616C739.996 362.817 739.996 459.018 739.996 555.219Z" fill="#000000" fill-rule="nonzero" opacity="1" stroke="none"/>
</g>
</svg>
