<?xml version="1.0" encoding="UTF-8" standalone="no"?>
<!DOCTYPE svg PUBLIC "-//W3C//DTD SVG 1.1//EN" "http://www.w3.org/Graphics/SVG/1.1/DTD/svg11.dtd">
<!-- Created with Vectornator (http://vectornator.io/) -->
<svg height="{{height}}" stroke-miterlimit="10" style="fill-rule:nonzero;clip-rule:evenodd;stroke-linecap:round;stroke-linejoin:round;" version="1.1" 
viewBox="0 0 1024 1024" width="{{width}}" xml:space="preserve" xmlns="http://www.w3.org/2000/svg" xmlns:vectornator="http://vectornator.io" xmlns:xlink="http://www.w3.org/1999/xlink">
<defs/>
<g id="Layer-1" vectornator:layerName="Layer 1">
<g opacity="1">
<path d="M488.25 158.344C467.413 165.775 445.182 170.05 425.75 180.625C407.427 190.596 390.613 203.884 376.438 219.188C363.272 233.401 353.718 250.747 344.844 267.969C321.512 313.244 327.542 368.588 324.625 419.438C278.663 421.056 240.942 428.023 221.188 475.969C217.771 484.262 216.11 493.378 215.844 502.344C213.865 568.85 214.31 635.402 214.469 701.938C214.537 730.658 214.439 759.419 216.531 788.062C217.037 794.99 218.778 802.091 222.219 808.125C228.757 819.591 235.777 831.47 246.031 839.781C256.771 848.487 269.602 856.964 283.406 857.719C397.178 863.942 511.278 860.149 625.219 860.5C665.67 860.625 706.143 860.735 746.562 859.125C756.709 858.721 767.453 858.694 776.688 854.469C789.483 848.614 801.933 840.583 810.875 829.719C819.232 819.565 825.32 806.694 826.781 793.625C832.471 742.725 831.987 691.279 832.062 640.062C832.143 585.724 832.477 531.212 827.25 477.125C826.414 468.48 819.684 461.292 814.156 454.594C803.767 442.007 788.229 428.786 771.75 424.312C757.83 420.533 730.955 423.503 728.438 410.781C720.919 372.78 721.925 333.316 713.25 295.562C709.197 277.923 700.148 261.58 690.625 246.188C666.748 207.589 625.531 175.63 581.562 163.688C564.945 159.174 547.545 158.286 488.25 158.344ZM525.375 244.312C566.581 244.6 605.221 266.901 624.531 308.125C639.498 340.078 633.405 386.878 633.5 419.438C523.184 419.438 523.191 419.438 412.875 419.438C414.556 374.563 407.861 325.888 434.938 287.031C444.679 273.052 454.02 265.56 469.188 257.844C487.401 248.578 506.645 244.182 525.375 244.312ZM523.188 551.812C574.769 550.554 567.312 605.008 567.312 640.062C567.313 671.031 575.274 709.621 541.562 724.625C516.024 735.991 487.105 719.888 482.75 692.812C480.513 678.902 479.804 663.729 479.875 649.656C480.041 616.786 471.849 576.17 502.969 557.312C510.832 552.548 514.115 552.034 523.188 551.812Z" 
fill="{{fill}}" fill-rule="nonzero" opacity="1" stroke="none"/>
</g>
</g>
</svg>
