<?xml version="1.0" encoding="UTF-8" standalone="no"?>
<!DOCTYPE svg PUBLIC "-//W3C//DTD SVG 1.1//EN" "http://www.w3.org/Graphics/SVG/1.1/DTD/svg11.dtd">
<!-- Created with Vectornator (http://vectornator.io/) -->
<svg height="{{height}}" stroke-miterlimit="10" style="fill-rule:nonzero;clip-rule:evenodd;stroke-linecap:round;stroke-linejoin:round;" version="1.1" viewBox="0 0 1024 1024" width="{{width}}" xml:space="preserve" xmlns="http://www.w3.org/2000/svg" xmlns:vectornator="http://vectornator.io" xmlns:xlink="http://www.w3.org/1999/xlink">
<defs/>
<g id="Layer-1" vectornator:layerName="Layer 1">
<path d="M503.184 94.097C479.9 97.735 457.345 103.192 435.516 110.468C413.688 117.744 389.677 128.658 363.483 143.21C337.29 157.762 312.187 175.589 288.176 196.689C264.165 217.79 244.156 239.254 228.149 261.082C212.142 282.911 198.681 305.466 187.767 328.75C176.853 352.033 167.758 379.318 160.482 410.605C153.206 441.892 149.204 471.724 148.476 500.101C147.749 528.477 149.931 556.854 155.025 585.23C160.118 613.607 166.302 637.618 173.578 657.263C180.855 676.909 192.496 700.192 208.504 727.113C224.511 754.035 241.973 777.682 260.891 798.055C279.809 818.428 297.635 834.799 314.37 847.168C331.105 859.538 352.206 872.271 377.672 885.368C403.138 898.465 428.968 908.651 455.162 915.927C481.355 923.203 509.004 927.933 538.109 930.115C567.213 932.298 589.769 932.662 605.776 931.207C621.783 929.752 639.973 926.841 660.346 922.475C680.719 918.11 702.911 911.198 726.922 901.739C750.933 892.28 777.127 877.728 805.504 858.082C833.88 838.437 851.707 824.249 858.983 815.518C866.259 806.786 869.897 799.146 869.897 792.598C869.897 786.05 868.805 780.592 866.622 776.227C864.44 771.861 860.802 768.223 855.708 765.313C850.615 762.402 837.882 762.039 817.509 764.221C797.136 766.404 777.127 766.768 757.482 765.313C737.836 763.858 717.827 760.583 697.454 755.49C677.081 750.397 658.164 743.848 640.701 735.845C623.239 727.841 607.595 719.11 593.77 709.651C579.946 700.192 565.758 688.55 551.206 674.726C536.653 660.901 524.648 647.805 515.189 635.435C505.73 623.066 497.363 610.333 490.087 597.236C482.811 584.139 475.535 566.677 468.259 544.848C460.983 523.02 455.889 502.283 452.979 482.638C450.068 462.993 448.977 442.256 449.705 420.428C450.432 398.6 453.343 376.772 458.436 354.943C463.529 333.115 470.078 313.47 478.081 296.007C486.085 278.545 495.18 262.538 505.366 247.985C515.553 233.433 528.286 218.517 543.566 203.238C558.845 187.958 575.58 174.497 593.77 162.856C611.961 151.214 622.875 142.847 626.513 137.753C630.151 132.66 631.97 126.839 631.97 120.291C631.97 113.742 629.423 107.558 624.33 101.737C619.237 95.916 614.143 92.278 609.05 90.8227C603.957 89.3675 590.86 88.6399 569.76 88.6399C548.659 88.6399 526.467 90.4589 503.184 94.097Z" fill="{{fill}}" fill-rule="nonzero" opacity="1" stroke="none"/>
</g>
</svg>
