<?xml version="1.0" encoding="UTF-8" standalone="no"?>
<!DOCTYPE svg PUBLIC "-//W3C//DTD SVG 1.1//EN" "http://www.w3.org/Graphics/SVG/1.1/DTD/svg11.dtd">
<!-- Created with Vectornator (http://vectornator.io/) -->
<svg height="100%" stroke-miterlimit="10" style="fill-rule:nonzero;clip-rule:evenodd;stroke-linecap:round;stroke-linejoin:round;" version="1.1" viewBox="0 0 1024 1024" width="100%" xml:space="preserve" xmlns="http://www.w3.org/2000/svg" xmlns:vectornator="http://vectornator.io" xmlns:xlink="http://www.w3.org/1999/xlink">
<defs/>
<g id="Layer-1" vectornator:layerName="Layer 1">
<path d="M866.265 100.15C746.36 181.931 630.67 269.745 514.085 356.195C557.337 356.122 600.611 357.326 643.842 355.976C680.999 354.815 707.494 347.571 742.764 334.302C802.026 312.009 848.323 260.154 890.482 216.189C924.411 180.807 960.609 147.327 916.237 105.147C907.525 96.8659 902.805 97.1098 866.265 100.15ZM354.176 803.559C344.302 820.477 331.923 836.163 324.555 854.313C318.823 868.432 316.171 883.881 315.389 899.1C314.9 908.601 326.671 924.339 335.139 927.298C346.411 931.236 358.687 931.93 370.624 932.171C467.579 934.128 564.569 933.835 661.544 933.884C671.951 933.89 682.557 934.549 692.726 932.335C703.63 929.962 715.712 916.295 718.654 906.548C725.054 885.344 712.805 858.247 704.631 841.216C698.265 827.952 689.283 816.111 681.609 803.559C710.818 788.587 742.176 777.22 769.237 758.644C789.493 744.74 806.125 725.931 822.005 707.185C841.663 683.979 857.523 650.682 867.753 622.055C872.227 609.535 876.128 596.74 878.639 583.684C882.707 562.534 877.072 538.549 887.444 519.673C894.65 506.558 916.307 508.268 926.231 497.067C934.228 488.041 937.52 474.855 937.832 462.801C938.124 451.469 934.79 439.303 927.956 430.26C920.967 421.01 910.443 411.462 898.851 411.216C643.107 405.772 387.228 410.055 131.446 413.305C125.805 413.377 120.724 417.471 116.455 421.158C111.084 425.795 105.248 430.984 103.129 437.755C96.9158 457.603 98.4048 485.054 113.59 499.266C123.824 508.844 145.686 508.928 148.541 522.652C153.749 547.688 153.852 573.691 160.061 598.497C165.012 618.279 173.111 637.235 181.834 655.667C200.205 694.483 231.638 726.452 263.276 755.491C287.858 778.054 326.631 790.87 354.176 803.559Z" fill="#000000" fill-rule="nonzero" opacity="1" stroke="none"/>
</g>
</svg>
