<?xml version="1.0" encoding="UTF-8" standalone="no"?>
<!DOCTYPE svg PUBLIC "-//W3C//DTD SVG 1.1//EN" "http://www.w3.org/Graphics/SVG/1.1/DTD/svg11.dtd">
<!-- Created with Vectornator (http://vectornator.io/) -->
<svg height="{{height}}" stroke-miterlimit="10" style="fill-rule:nonzero;clip-rule:evenodd;stroke-linecap:round;stroke-linejoin:round;" version="1.1" viewBox="0 0 1024 1024" width="{{width}}" xml:space="preserve" xmlns="http://www.w3.org/2000/svg" xmlns:vectornator="http://vectornator.io" xmlns:xlink="http://www.w3.org/1999/xlink">
<defs/>
<g id="Layer-1" vectornator:layerName="Layer 1">
<path d="M323.835 74.0314C314.296 74.5065 305.597 82.1297 299.915 89.8075C292.612 99.6768 287.092 111.922 286.715 124.194C286.329 136.776 289.882 150.485 297.751 160.311C305.537 170.034 320.835 170.561 330.316 178.64C334.223 181.969 335.605 187.822 336.035 192.937C340.068 240.903 344.318 294.511 330.105 342.15C326.585 353.948 321.185 365.761 312.812 374.788C294.338 394.704 269.707 408.158 250.791 427.654C233.856 445.109 219.102 464.73 205.798 485.088C167.993 542.937 148.883 610.198 148.266 678.991C148.098 697.765 148.099 716.869 152.279 735.173C160.546 771.367 169.711 807.863 185.387 841.517C198.467 869.6 216.961 895.304 237.618 918.391C248.819 930.91 262.682 944.859 279.391 946.578C384.048 957.341 489.705 953.496 594.901 955.136C636.515 955.784 678.206 955.987 719.748 953.44C727.603 952.958 735.675 950.521 742.19 946.106C757.228 935.918 772.295 924.798 783.324 910.365C803.245 884.293 820.245 855.763 833.988 825.967C845.384 801.259 853.011 774.723 858.206 748.015C863.453 721.039 866.324 693.318 865.131 665.863C863.751 634.112 859.871 602.024 850.541 571.643C841.352 541.722 826.344 513.661 810.16 486.869C796.076 463.551 779.658 441.273 760.249 422.159C735.151 397.444 689.664 389.414 677.594 356.323C659.331 306.256 675.835 249.694 677.915 196.44C678.162 190.109 679.92 182.964 684.534 178.62C690.789 172.73 701.313 173.399 708.05 168.066C714.92 162.626 722.554 155.889 724.132 147.269C727.084 131.14 725.715 113.845 720.841 98.1896C718.217 89.7625 710.542 83.0586 702.813 78.7968C693.561 73.6956 682.589 71.4053 672.025 71.2724C555.968 69.8131 439.758 68.2572 323.835 74.0314ZM552.89 462.853C627.253 477.711 698.819 530.308 701.12 611.209C701.617 628.71 695.999 646.172 689.52 662.437C676.092 696.143 649.835 710.839 625.061 740.001C613.198 753.966 618.207 776.038 613.413 793.723C612.195 798.217 601.227 813.906 594.713 814.43C553.888 817.712 512.832 817.508 471.877 817.251C453.877 817.139 435.677 816.813 418.018 813.324C413.98 812.526 411.492 808.149 409.049 804.836C405.356 799.83 401.492 794.613 399.801 788.626C395.293 772.669 399.21 753.933 390.657 739.728C377.05 717.131 352.188 703.341 335.937 682.565C327.995 672.412 322.874 660.126 318.819 647.89C295.072 576.246 345.329 507.884 408.108 478.341C431.595 467.288 457.472 460.291 483.352 458.276C512.806 455.983 524.572 457.196 552.89 462.853ZM420.147 574.653C371.83 597.952 409.222 669.859 457.142 646.197C480.065 634.879 486.254 595.276 465.313 578.934C452.43 568.881 434.034 567.957 420.147 574.653ZM562.609 571.643C515.013 590.668 537.977 663.583 591.703 647.89C616.253 640.72 623.984 602.566 608.57 583.87C598.034 571.092 577.311 565.766 562.609 571.643Z" fill="{{fill}}" fill-rule="nonzero" opacity="1" stroke="none"/>
</g>
</svg>
