<?xml version="1.0" encoding="UTF-8" standalone="no"?>
<!DOCTYPE svg PUBLIC "-//W3C//DTD SVG 1.1//EN" "http://www.w3.org/Graphics/SVG/1.1/DTD/svg11.dtd">
<!-- Created with Vectornator (http://vectornator.io/) -->
<svg height="{{height}}" stroke-miterlimit="10" style="fill-rule:nonzero;clip-rule:evenodd;stroke-linecap:round;stroke-linejoin:round;" version="1.1" viewBox="0 0 1024 1024" width="{{width}}" xml:space="preserve" xmlns="http://www.w3.org/2000/svg" xmlns:vectornator="http://vectornator.io" xmlns:xlink="http://www.w3.org/1999/xlink">
<defs/>
<g id="Layer-1" vectornator:layerName="Layer 1">
<path d="M507.731 85.1225C504.653 90.6553 499.156 95.424 498.496 101.721C495.663 128.772 497.795 156.114 497.444 183.31C453.805 184.382 409.708 180.124 366.527 186.525C351.517 188.75 338.398 198.921 326.726 208.617C316.666 216.974 309.1 228.218 302.647 239.593C298.166 247.489 295.406 256.532 294.42 265.557C291.815 289.387 292.149 313.459 291.951 337.43C291.56 384.789 291.258 432.17 292.652 479.511C293.985 524.736 305.434 562.206 347.942 583.835C355.027 587.44 362.503 591.378 370.445 591.735C442.285 594.96 514.252 594.304 586.164 594.531C612.355 594.613 638.564 594.12 664.714 592.66C672.133 592.246 679.931 592.007 686.69 588.92C700.567 582.581 713.929 574.65 725.614 564.841C732.929 558.701 737.901 550.105 742.739 541.872C746.313 535.788 750.222 529.28 750.648 522.236C754.279 462.091 754.762 401.776 754.837 341.522C754.872 313.166 756.671 284.321 750.98 256.542C747.992 241.961 739.303 228.566 729.413 217.442C719.604 206.409 706.546 198.352 693.353 191.727C662.936 176.453 625.452 186.544 591.679 182.322C581.967 181.107 571.917 178.175 564.072 172.323C557.435 167.371 552.589 159.553 550.44 151.556C545.045 131.483 548.782 109.399 541.891 89.7888C539.808 83.8617 530.95 83.6107 507.731 85.1225ZM458.052 301.019C479.623 327.593 475.11 376.137 437.772 386.933C367.918 407.132 338.282 309.303 406.737 287.109C424.573 281.327 445.078 285.035 458.052 301.019ZM202.881 288.044C184.043 293.667 189.867 321.089 189.427 338.553C189.002 355.377 188.854 372.208 188.854 389.037C188.854 405.867 189.002 422.698 189.427 439.522C189.764 452.891 188.664 466.743 192.641 479.511C198.189 497.321 229.601 493.417 235.61 477.874C242.01 461.321 238.651 442.489 239.117 424.747C239.429 412.848 239.496 400.94 239.35 389.037C239.047 364.325 238.81 339.605 237.77 314.913C236.792 291.68 222.513 282.185 202.881 288.044ZM661.558 299.743C686.532 320.628 683.285 368.153 653.61 383.427C646.741 386.962 637.537 387.619 630.232 388.102C570.822 392.03 553.806 318.579 602.178 290.85C619.937 280.669 645.311 286.155 661.558 299.743ZM820.062 289.914C810.866 294.157 809.806 298 809.483 308.208C808.633 335.143 807.905 362.089 807.905 389.037C807.905 415.986 808.633 442.932 809.483 469.867C810.192 492.324 845.983 501.606 854.615 479.511C859.48 467.055 857.412 452.888 857.829 439.522C859.031 400.976 858.268 351.432 856.719 314.415C855.757 291.448 840.954 280.276 820.062 289.914ZM443.207 501.252C441.619 505.963 439.396 511.816 434.959 514.634C431.099 517.085 426.134 517.149 421.758 516.857C395.058 515.077 382.745 484.667 406.737 470.393C429.119 457.078 451.647 476.214 443.207 501.252ZM537.804 512.764C509.66 531.762 482.955 489.376 509.601 471.328C535.743 453.622 565.229 494.251 537.804 512.764ZM642.388 513.409C614.166 534.072 583.668 489.542 613.4 471.328C642.754 453.345 666.242 495.944 642.388 513.409ZM316.031 905.225C317.589 863.145 314.149 820.579 320.706 778.984C322.141 769.881 331.369 763.31 339.175 758.411C346.283 753.95 355.159 752.366 363.546 752.099C441.086 749.631 518.697 749.933 596.275 750.229C629.893 750.357 663.686 749.502 697.081 753.371C704.077 754.181 710.126 759.274 715.328 764.022C720.119 768.394 725.609 773.623 726.334 780.068C731.005 821.557 729.595 863.506 731.225 905.225C770.912 904.099 810.794 905.94 850.285 901.847C857.584 901.091 864.026 895.915 869.39 890.906C875.112 885.562 881.663 879.32 882.715 871.561C886.327 844.92 885.723 817.648 882.949 790.907C880.948 771.616 876.272 752.316 868.501 734.547C861.641 718.86 851.271 704.636 839.699 692.017C825.87 676.937 806.627 666.8 787.332 659.989C755.822 648.867 721.157 648.697 687.742 648.534C556.67 647.895 425.533 645.847 294.523 649.937C280.228 650.383 266.568 656.568 253.377 662.093C242.625 666.597 232.366 672.575 223.22 679.802C188.724 707.06 167.729 744.332 164.073 788.569C161.875 815.169 161.698 842.126 164.774 868.639C165.656 876.233 170.561 883.145 175.704 888.802C181.365 895.029 187.976 902.377 196.335 903.355C235.968 907.994 276.132 904.602 316.031 905.225ZM394.581 905.225C419.829 905.225 419.829 905.225 445.077 905.225C445 884.925 445.186 864.623 444.844 844.325C444.717 836.835 445.473 820.213 440.068 812.639C429.767 798.205 408.978 802.21 400.192 814.518C395.182 821.536 395.075 840.652 394.932 845.553C394.348 865.435 394.698 885.334 394.581 905.225ZM497.444 905.225C522.693 905.225 522.693 905.225 547.941 905.225C547.844 884.477 548.077 863.725 547.649 842.981C547.549 838.172 546.905 821.198 544.154 814.322C537.933 798.775 512.946 801.328 503.99 811.713C497.376 819.382 499.526 831.578 499.081 841.695C498.151 862.859 497.99 884.049 497.444 905.225ZM602.178 905.225C627.426 905.225 627.426 905.225 652.675 905.225C652.129 884.049 651.907 862.861 651.038 841.695C650.865 837.464 649.913 819.816 647.027 813.219C640.236 797.695 614.917 802.046 606.854 812.648C605.349 814.627 604.325 820.171 604.154 821.698C603.361 828.77 602.639 835.867 602.47 842.981C601.98 863.724 602.276 884.477 602.178 905.225Z" fill="{{fill}}" fill-rule="nonzero" opacity="1" stroke="none"/>
</g>
</svg>
