<?xml version="1.0" encoding="UTF-8" standalone="no"?>
<!DOCTYPE svg PUBLIC "-//W3C//DTD SVG 1.1//EN" "http://www.w3.org/Graphics/SVG/1.1/DTD/svg11.dtd">
<!-- Created with Vectornator (http://vectornator.io/) -->
<svg height="{{height}}" stroke-miterlimit="10" style="fill-rule:nonzero;clip-rule:evenodd;stroke-linecap:round;stroke-linejoin:round;" version="1.1" viewBox="0 0 1024 1024" width="{{width}}" xml:space="preserve" xmlns="http://www.w3.org/2000/svg" xmlns:vectornator="http://vectornator.io" xmlns:xlink="http://www.w3.org/1999/xlink">
<defs/>
<g id="Layer-1" vectornator:layerName="Layer 1">
<path d="M460.937 145.154C392.37 146.828 323.622 144.922 255.236 150.177C246.027 150.884 238.118 157.49 230.599 162.854C223.761 167.733 217.572 173.738 212.66 180.554C182.681 222.152 190.949 283.617 234.187 312.585C255.263 326.705 283.212 329.234 308.575 328.671C329.786 328.199 348.881 324.073 366.159 311.09C380.938 299.985 392.144 280.477 410.416 277.669C419.398 276.288 429.31 274.056 437.679 277.597C445.052 280.717 450.52 288.323 453.322 295.823C460.159 314.125 464.174 333.612 465.874 353.075C470.559 406.71 470.237 460.665 472.418 514.46C459.602 513.922 446.445 515.83 433.969 512.845C428.567 511.553 421.679 507.724 421.156 502.194C415.833 445.922 418.336 389.183 416.927 332.677C400.204 338.697 381.645 341.027 366.757 350.736C347.922 363.02 331.294 379.193 317.903 397.258C306.37 412.817 298.026 431.105 293.267 449.879C288.075 470.359 285.613 492.161 288.543 513.084C291.525 534.385 299.377 555.376 310.608 573.719C320.876 590.489 336.329 603.762 351.629 616.115C362.577 624.954 375.024 632.654 388.523 636.625C410.654 643.135 434.651 641.114 456.931 647.089C463.615 648.882 471.04 653.022 473.614 659.446C478.682 672.094 476.644 686.528 478.159 700.07C456.712 700.309 435.181 698.876 413.817 700.787C404.665 701.606 394.848 703.009 387.268 708.202C375.451 716.298 364.181 726.57 357.608 739.296C352.339 749.498 352.16 762.102 353.542 773.5C354.794 783.833 359.171 794.002 365.262 802.442C371.71 811.376 379.649 820.836 390.138 824.208C417.769 833.091 454.372 820.382 475.767 839.995C490.802 853.777 479.581 881.859 489.678 899.581C494.171 907.466 506.028 908.197 514.994 909.598C524.401 911.068 533.222 898.686 533.957 891.42C539.87 832.913 539.96 773.928 545.431 715.378C546.647 702.363 549.282 689.305 553.982 677.108C559.15 663.693 570.001 647.227 584.358 646.492C599.023 645.74 614.714 643.005 628.369 648.405C636.214 651.507 639.702 661.468 642.421 669.454C645.23 677.7 637.617 694.546 629.326 697.199C617.142 701.099 603.812 699.113 591.056 700.07C591.056 766.085 591.056 766.085 591.056 832.101C613.918 829.829 637.557 831.614 659.643 825.284C680.235 819.383 700.276 809.592 716.868 796.044C733.393 782.552 746.839 764.883 756.753 745.994C765.75 728.851 769.549 709.22 772.48 690.084C778.587 650.2 765.621 606.881 740.309 575.931C730.492 563.928 719.87 552.019 706.823 543.641C690.289 533.024 672.229 523.38 652.907 519.808C618.79 513.502 583.608 516.243 548.959 514.46C551.783 444.41 544.815 370.686 569.768 305.17C575.434 290.293 591.45 277.116 607.548 275.571C629.758 273.439 652.366 274.236 674.46 277.346C681.026 278.27 687.795 281.988 691.62 287.404C695.128 292.371 694.931 299.399 694.308 305.448C693.745 310.915 693.254 318.633 688.185 320.756C668.45 329.021 645.635 327.225 625.439 334.292C620.061 336.173 616.375 341.718 613.778 346.789C609.715 354.725 606.669 363.477 605.943 372.363C603.538 401.775 604.948 431.376 604.45 460.882C624.382 460.842 644.364 462.16 664.247 460.762C682.452 459.482 701.243 459.023 718.423 452.869C738.705 445.603 757.562 434.163 774.752 421.177C785.358 413.164 793.03 401.737 800.584 390.8C806.689 381.96 812.441 372.523 815.474 362.217C821.139 342.966 825.387 323.059 826.417 303.018C827.143 288.874 823.949 274.7 820.676 260.921C814.683 235.686 800.392 212.062 782.944 192.872C775.917 185.142 768.371 177.38 759.145 172.481C740.034 162.333 720.357 151.202 698.92 148.254C653.179 141.963 606.6 146.187 560.44 145.154C559.228 124.959 563.919 95.8372 546.088 79.1378C539.79 73.2395 531.42 68.9368 522.887 67.6568C511.572 65.9596 498.675 64.9539 488.683 70.5271C476.854 77.1248 467.033 88.7464 462.313 101.442C457.233 115.106 461.396 130.583 460.937 145.154ZM312.163 245.553C286.832 265.798 258.227 219.088 283.938 202.559C313.808 183.356 339.689 223.553 312.163 245.553Z" fill="{{fill}}" fill-rule="nonzero" opacity="1" stroke="none"/>
</g>
</svg>
