<?xml version="1.0" encoding="UTF-8" standalone="no"?>
<!DOCTYPE svg PUBLIC "-//W3C//DTD SVG 1.1//EN" "http://www.w3.org/Graphics/SVG/1.1/DTD/svg11.dtd">
<!-- Created with Vectornator (http://vectornator.io/) -->
<svg height="100%" stroke-miterlimit="10" style="fill-rule:nonzero;clip-rule:evenodd;stroke-linecap:round;stroke-linejoin:round;" version="1.1" viewBox="0 0 1024 1024" width="100%" xml:space="preserve" xmlns="http://www.w3.org/2000/svg" xmlns:vectornator="http://vectornator.io" xmlns:xlink="http://www.w3.org/1999/xlink">
<defs/>
<g id="Layer-1" vectornator:layerName="Layer 1">
<path d="M228.268 240.18C185 242.475 141.397 241.221 98.4649 247.066C87.9343 248.5 78.6614 255.353 70.1421 261.707C56.8682 271.607 44.4733 287.597 39.1827 303.652C36.1142 312.963 33.6216 322.653 33.1906 332.447C30.9518 383.317 31.859 434.277 31.1932 485.191C207.556 484.953 384.49 491.29 560.205 476.19C575.034 474.915 590.449 472.803 603.668 465.963C620.357 457.328 631.809 440.761 647.788 430.874C666.036 419.583 685.602 410.264 705.725 402.813C740.986 389.756 780.116 389.317 817.716 389.317C815.668 363.443 817.005 337.075 811.573 311.695C808.694 298.243 801.437 285.758 793.193 274.745C786.609 265.952 777.294 259.357 768.003 253.495C736.124 233.382 694.56 243.59 660.387 239.241C651.17 238.068 641.626 235.305 634.179 229.749C627.879 225.049 623.122 217.666 621.238 210.035C615.803 188.013 618.052 164.561 612.652 142.53C609.48 129.59 590.472 112.507 580.028 106.577C556.633 93.2947 530.337 94.2473 504.137 93.8118C451.023 92.929 397.879 92.5412 344.773 93.8118C325.1 94.2825 305.098 94.4144 285.97 99.0316C275.613 101.532 265.927 107.47 258.126 114.727C222.145 148.199 228.986 195.95 228.268 240.18ZM474.777 167.553C497.159 167.844 519.612 167.614 541.889 169.79C544.052 170.001 545.302 172.64 546.35 174.544C547.195 176.078 547.309 177.952 547.349 179.703C547.809 199.858 547.682 220.021 547.848 240.18C425.342 240.18 425.342 240.18 302.837 240.18C302.945 217.069 302.899 193.784 306.387 170.937C360.575 164.026 421.354 166.858 474.777 167.553ZM768.891 438.142C754.455 439.586 740.087 442.561 726.28 447.019C670.121 465.154 624.509 503.172 596.95 555.377C515 710.616 642.39 893.853 815.497 876.455C961.64 861.767 1042.26 720.13 1000.92 584.117C994.784 563.927 977.68 533.867 964.579 517.871C927.883 473.068 872.868 443.398 815.053 438.142C799.729 436.749 784.202 436.611 768.891 438.142ZM583.357 829.628C574.628 815.942 564.51 803.049 557.169 788.571C531.263 737.475 524.48 688.801 524.767 632.553C468.915 631.536 412.875 634.184 357.21 629.502C350.165 628.909 345.096 621.984 340.065 617.018C336.089 613.093 331.401 608.73 330.569 603.205C327.174 580.672 328.652 557.671 327.693 534.904C179.443 534.904 179.443 534.904 31.1932 534.904C31.4891 570.413 31.4219 605.927 32.0809 641.431C32.6056 669.699 32.7579 698.005 34.7441 726.208C37.3737 763.548 47.0689 794.314 80.9057 813.649C87.3492 817.331 93.9565 821.629 101.323 822.526C134.938 826.621 168.878 827.993 202.737 828.492C329.597 830.361 456.484 829.249 583.357 829.628ZM815.663 573.464C816.07 593.157 815.848 612.857 815.941 632.553C834.139 632.886 852.343 633.001 870.536 633.552C894.965 634.292 893.057 668.851 876.694 679.214C868.108 684.652 856.509 682.155 846.345 682.155C827.553 682.155 808.736 682.354 789.975 681.267C771.32 680.186 768.511 664.692 768.447 649.198C768.335 621.9 768.052 594.591 768.891 567.306C769.353 552.283 770.249 545.538 781.319 537.567C814.414 540.267 815.22 552.009 815.663 573.464Z" fill="#000000" fill-rule="nonzero" opacity="1" stroke="none"/>
</g>
</svg>
