<?xml version="1.0" encoding="UTF-8" standalone="no"?>
<!DOCTYPE svg PUBLIC "-//W3C//DTD SVG 1.1//EN" "http://www.w3.org/Graphics/SVG/1.1/DTD/svg11.dtd">
<!-- Created with Vectornator (http://vectornator.io/) -->
<svg height="{{height}}" stroke-miterlimit="10" style="fill-rule:nonzero;clip-rule:evenodd;stroke-linecap:round;stroke-linejoin:round;" version="1.1" viewBox="0 0 1024 1024" width="{{width}}" xml:space="preserve" xmlns="http://www.w3.org/2000/svg" xmlns:vectornator="http://vectornator.io" xmlns:xlink="http://www.w3.org/1999/xlink">
<defs/>
<g id="Layer-1" vectornator:layerName="Layer 1">
<path d="M764.793 166.536C756.983 170.441 750.801 175.322 746.245 181.179C741.689 187.036 738.761 192.243 737.459 196.798C736.157 201.354 735.507 214.37 735.507 235.847C735.507 257.324 722.49 268.387 696.458 269.038C670.426 269.689 648.298 272.943 630.075 278.8C611.853 284.658 595.583 293.118 581.265 304.182C566.947 315.246 549.7 334.119 529.525 360.802C509.35 387.486 510.001 415.796 531.478 445.733C552.954 475.67 564.669 490.314 566.621 489.663C568.574 489.012 580.288 473.718 601.765 443.781C623.242 413.843 637.234 395.946 643.742 390.089C650.251 384.232 656.433 380.327 662.29 378.374C668.148 376.422 681.815 375.446 703.291 375.446C714.03 375.446 724.768 375.446 735.507 375.446C735.507 386.509 735.507 397.573 735.507 408.637C735.507 430.764 737.134 445.408 740.388 452.567C743.642 459.725 747.547 465.257 752.102 469.162C756.658 473.067 762.19 476.321 768.698 478.924C775.206 481.528 784.317 482.178 796.032 480.877C807.746 479.575 835.08 457.773 878.034 415.47C920.987 373.168 943.766 346.159 946.369 334.445C948.972 322.73 948.647 312.317 945.393 303.206C942.139 294.094 920.662 269.689 880.962 229.99C841.263 190.29 817.834 168.814 810.675 165.56C803.516 162.306 796.032 160.678 788.222 160.678C780.412 160.678 772.603 162.631 764.793 166.536ZM123.42 271.967C114.96 274.57 107.475 279.777 100.967 287.586C94.4592 295.396 90.5543 304.507 89.2527 314.92C87.9511 325.333 88.9273 334.77 92.1813 343.231C95.4354 351.691 99.6656 358.199 104.872 362.755C110.079 367.311 115.285 370.565 120.492 372.517C125.698 374.469 150.103 375.446 193.708 375.446C237.312 375.446 263.344 377.398 271.805 381.303C280.265 385.208 329.076 447.035 418.237 566.784C507.398 686.533 556.209 750.637 564.669 759.098C573.13 767.558 583.217 775.368 594.932 782.527C606.646 789.686 617.385 794.892 627.147 798.146C636.909 801.4 645.369 803.678 652.528 804.98C659.687 806.282 675.307 806.932 699.387 806.932C711.427 806.932 723.467 806.932 735.507 806.932C735.507 817.996 735.507 829.06 735.507 840.124C735.507 862.251 736.808 876.569 739.411 883.077C742.015 889.585 745.594 895.117 750.15 899.673C754.705 904.228 761.539 908.133 770.65 911.387C779.762 914.641 789.849 914.967 800.913 912.363C811.977 909.76 838.334 887.633 879.986 845.981C921.638 804.329 943.766 777.646 946.369 765.931C948.972 754.217 948.647 743.804 945.393 734.692C942.139 725.581 919.686 700.525 878.034 659.524C836.382 618.523 812.953 597.046 807.746 595.094C802.54 593.141 796.032 592.165 788.222 592.165C780.412 592.165 771.626 595.094 761.864 600.951C752.102 606.808 745.269 613.967 741.364 622.428C737.459 630.888 735.507 645.857 735.507 667.334C735.507 678.072 735.507 688.81 735.507 699.549C722.816 699.223 710.125 698.898 697.434 698.573C672.053 697.922 657.084 696.295 652.528 693.691C647.973 691.088 643.092 686.858 637.885 681.001C632.679 675.143 588.098 615.269 504.144 501.377C420.189 387.486 373.982 326.31 365.521 317.849C357.061 309.388 345.672 300.928 331.354 292.467C317.036 284.007 305.647 278.475 297.186 275.872C288.726 273.269 278.964 271.316 267.9 270.014C256.836 268.713 232.105 268.062 193.708 268.062C155.31 268.062 131.881 269.364 123.42 271.967ZM329.401 630.238C307.274 660.826 291.654 679.699 282.543 686.858C273.432 694.017 246.749 697.922 202.494 698.573C158.238 699.223 133.182 700.2 127.325 701.501C121.468 702.803 115.936 705.081 110.729 708.335C105.523 711.589 100.316 718.422 95.11 728.835C89.9035 739.248 87.6257 749.01 88.2765 758.122C88.9273 767.233 90.5543 774.392 93.1575 779.598C95.7608 784.805 99.6656 789.686 104.872 794.242C110.079 798.797 115.285 802.051 120.492 804.004C125.698 805.956 151.08 806.932 196.636 806.932C242.193 806.932 272.13 805.305 286.448 802.051C300.766 798.797 314.758 793.265 328.425 785.456C342.092 777.646 354.132 768.535 364.545 758.122C374.958 747.709 388.625 731.113 405.546 708.335C422.467 685.556 419.539 659.199 396.76 629.261C385.371 614.293 373.982 599.324 362.593 584.355C351.529 599.65 340.465 614.944 329.401 630.238Z" fill="{{fill}}" fill-rule="nonzero" opacity="1" stroke="none"/>
</g>
</svg>
