<?xml version="1.0" encoding="UTF-8" standalone="no"?>
<!DOCTYPE svg PUBLIC "-//W3C//DTD SVG 1.1//EN" "http://www.w3.org/Graphics/SVG/1.1/DTD/svg11.dtd">
<!-- Created with Vectornator (http://vectornator.io/) -->
<svg height="{{height}}" stroke-miterlimit="10" style="fill-rule:nonzero;clip-rule:evenodd;stroke-linecap:round;stroke-linejoin:round;" version="1.1" viewBox="0 0 1024 1024" width="{{width}}" xml:space="preserve" xmlns="http://www.w3.org/2000/svg" xmlns:vectornator="http://vectornator.io" xmlns:xlink="http://www.w3.org/1999/xlink">
<defs/>
<g id="Layer-1" vectornator:layerName="Layer 1">
<path d="M126.042 70.3804C99.5082 75.7034 68.484 96.429 66.3696 128.206C63.3849 173.06 63.1932 218.071 62.9954 263.024C62.8467 296.794 63.549 330.585 65.3304 364.308C66.9231 394.458 70.2496 423.344 96.854 441.658C116.389 455.106 142.329 457.473 166.031 458.295C204.199 459.62 242.412 459.486 280.601 459.089C308.754 458.797 336.927 458.163 365.014 456.229C376.147 455.462 387.469 454.453 398.079 450.998C420.084 443.834 445.112 423.766 448.225 398.786C451.553 372.088 452.394 345.094 452.589 318.191C452.99 262.762 451.988 207.316 450.011 151.921C449.094 126.209 445.551 115.828 430.551 94.8987C417.518 76.7127 389.47 70.2418 369.343 69.3442C314.781 66.9107 260.124 66.8641 205.508 67.0967C178.997 67.2096 152.036 65.1658 126.042 70.3804ZM630.42 70.3804C603.885 75.7034 572.861 96.429 570.747 128.206C567.762 173.06 567.57 218.071 567.372 263.024C567.224 296.794 567.926 330.585 569.707 364.308C571.3 394.458 574.627 423.344 601.231 441.658C620.688 455.052 646.508 457.469 670.116 458.295C707.922 459.619 745.774 459.485 783.601 459.089C811.636 458.796 839.692 458.152 867.664 456.229C878.98 455.451 890.475 454.424 901.289 450.998C923.829 443.857 949.396 424.511 952.602 398.786C955.93 372.088 956.83 345.095 956.966 318.191C957.255 260.799 956.13 203.388 953.878 146.04C953.02 124.202 947.903 112.44 934.928 94.8987C921.508 76.7545 894.339 70.2638 873.72 69.3442C819.158 66.9107 764.501 66.8641 709.885 67.0967C683.374 67.2096 656.413 65.1658 630.42 70.3804ZM734.476 170.643C735.621 149.017 771.931 144.431 782.597 161.005C795.916 181.704 783.721 208.906 801.193 228.147C818.002 246.659 855.348 223.697 869.765 246.971C871.74 250.158 873.866 253.593 874.143 257.333C875.97 281.933 860.858 289.612 838.971 290.68C823.179 291.451 807.35 290.924 791.54 291.045C791.491 305.177 791.898 319.318 791.394 333.442C791.119 341.133 791.563 349.101 789.205 356.428C782.796 376.343 758.44 379.642 743.671 368.103C742.375 367.091 741.247 365.724 740.682 364.18C733.85 345.512 740.325 308.72 723.51 298.138C704.627 286.254 682.675 296.116 663.455 287.671C646.766 280.338 646.279 254.963 657.565 242.519C664.358 235.029 677.408 235.698 685.732 235.295C701.524 234.531 717.353 235.101 733.163 235.003C733.601 213.55 733.343 192.071 734.476 170.643ZM215.505 235.295C243.062 234.944 270.63 234.751 298.182 235.368C315.135 235.748 332.082 236.752 348.97 238.287C352.207 238.581 355.564 239.221 358.383 240.841C376.749 251.396 372.854 283.393 351.705 287.309C302.556 296.411 245.284 291.716 195.908 290.298C182.679 289.918 168.671 291.329 156.399 286.375C145.905 282.14 144.02 258.727 147.058 250.181C148.877 245.067 151.425 241.106 156.399 239.674C175.383 234.206 195.751 235.547 215.505 235.295ZM126.042 574.757C99.5082 580.08 68.484 600.806 66.3696 632.583C63.3849 677.437 63.1932 722.448 62.9954 767.401C62.8467 801.171 63.3842 834.971 65.3304 868.685C67.1073 899.466 70.041 927.577 96.854 946.035C116.311 959.429 142.131 961.846 165.739 962.672C203.545 963.996 241.397 963.862 279.224 963.466C307.259 963.173 335.315 962.529 363.287 960.606C374.603 959.828 386.098 958.801 396.912 955.375C419.452 948.234 445.019 928.888 448.225 903.163C451.553 876.465 452.394 849.471 452.589 822.568C452.99 767.139 451.988 711.693 450.011 656.298C449.094 630.586 445.551 620.205 430.551 599.276C417.518 581.09 389.47 574.619 369.343 573.721C314.781 571.288 260.124 571.241 205.508 571.474C178.997 571.587 152.036 569.543 126.042 574.757ZM630.42 574.757C603.885 580.08 572.861 600.806 570.747 632.583C567.762 677.437 567.57 722.448 567.372 767.401C567.224 801.171 567.761 834.971 569.707 868.685C571.484 899.466 574.418 927.577 601.231 946.035C620.688 959.429 646.508 961.846 670.116 962.672C707.922 963.996 745.774 963.862 783.601 963.466C811.636 963.173 839.692 962.529 867.664 960.606C878.98 959.828 890.475 958.801 901.289 955.375C923.829 948.234 949.396 928.888 952.602 903.163C955.93 876.465 956.83 849.472 956.966 822.568C957.255 765.176 956.13 707.765 953.878 650.417C953.02 628.579 947.903 616.817 934.928 599.276C921.508 581.132 894.339 574.641 873.72 573.721C819.158 571.288 764.501 571.241 709.885 571.474C683.374 571.587 656.413 569.543 630.42 574.757ZM205.946 675.896C218.33 687.256 229.607 699.797 242.14 710.995C244.92 713.479 253.682 718.869 258.663 718.587C261.666 718.417 264.757 717.611 267.315 716.03C289.743 702.165 301.134 674.49 329.34 670.86C356.482 667.368 360.071 699.519 346.416 716.613C335.556 730.208 319.875 741.331 314.413 757.851C305.444 784.983 331.086 800.424 346.416 818.773C356.637 831.008 359.544 855.143 340.8 862.614C307.26 875.983 290.63 824.491 260.528 822.877C238.628 821.703 220.418 844.783 206.136 855.387C181.943 873.349 159.901 861.342 159.901 832.2C159.901 830.024 159.705 827.473 161.069 825.778C171.154 813.246 183.402 802.582 193.69 790.215C198.066 784.954 200.969 777.763 201.331 770.887C203.237 734.67 135.504 705.957 171.577 675.166C181.62 666.593 194.859 665.725 205.946 675.896ZM720.539 683.63C748.412 683.28 776.296 683.083 804.164 683.703C821.117 684.081 838.065 685.076 854.952 686.622C858.05 686.906 861.29 687.526 863.927 689.176C880.13 699.313 877.563 731.846 857.623 735.644C810.532 744.614 748.022 739.976 700.705 738.633C687.337 738.254 673.188 739.69 660.776 734.71C650.277 730.498 648.403 707.044 651.435 698.517C653.254 693.402 655.799 689.43 660.776 688.009C679.982 682.523 700.566 683.882 720.539 683.63ZM719.882 795.714C747.439 795.363 775.007 795.17 802.559 795.787C819.512 796.167 836.459 797.171 853.347 798.706C876.479 800.809 881.564 834.068 862.76 845.627C858.598 848.184 845.117 849.203 842.585 849.363C797.369 852.211 751.644 852.191 706.385 850.892C691.127 850.454 674.931 852.507 660.776 846.794C650.282 842.559 648.397 819.146 651.435 810.6C653.254 805.486 655.802 801.525 660.776 800.093C679.76 794.625 700.128 795.966 719.882 795.714Z" fill="{{fill}}" fill-rule="nonzero" opacity="1" stroke="none"/>
</g>
</svg>
