<?xml version="1.0" encoding="UTF-8" standalone="no"?>
<!DOCTYPE svg PUBLIC "-//W3C//DTD SVG 1.1//EN" "http://www.w3.org/Graphics/SVG/1.1/DTD/svg11.dtd">
<!-- Created with Vectornator (http://vectornator.io/) -->
<svg height="{{height}}" stroke-miterlimit="10" style="fill-rule:nonzero;clip-rule:evenodd;stroke-linecap:round;stroke-linejoin:round;" version="1.1" viewBox="0 0 1024 1024" width="{{width}}" xml:space="preserve" xmlns="http://www.w3.org/2000/svg" xmlns:vectornator="http://vectornator.io" xmlns:xlink="http://www.w3.org/1999/xlink">
<defs/>
<g id="Layer-1" vectornator:layerName="Layer 1">
<path d="M231.568 694.58C318.932 694.58 318.932 694.58 406.297 694.58C406.961 665.635 404.354 636.429 408.29 607.745C410.032 595.052 417.002 583.548 423.08 572.27C429.678 560.027 444.231 552.292 457.761 549.077C474.266 545.156 491.415 544.104 508.375 543.761C524.396 543.437 540.886 542.819 556.332 547.084C568.377 550.409 579.966 557.038 588.728 565.947C597.107 574.469 602.861 585.875 605.856 597.445C611.288 618.433 606.863 641.415 613.595 662.023C616.64 671.347 625.168 678.856 633.905 683.315C646.593 689.791 661.186 692.521 675.394 693.566C712.504 696.297 749.813 694.242 787.023 694.58C746.885 601.736 704.479 509.84 666.609 416.048C662.581 406.071 658.079 394.287 661.682 384.149C672.045 354.986 689.056 328.359 706.785 302.991C710.926 297.066 718.74 294.232 725.752 292.473C738.058 289.387 750.945 288.988 763.63 288.737C772.403 288.564 781.635 288.095 789.839 291.209C798.808 294.612 808.6 299.377 813.462 307.647C827.017 330.705 829.493 359.224 843.292 382.137C846.906 388.138 855.905 389.215 862.892 389.724C878.134 390.834 887.853 379.747 892.55 366.561C898.724 349.226 901.934 330.956 905.654 312.935C909.679 293.44 914.428 273.94 915.77 254.079C916.367 245.242 915.417 235.764 911.402 227.869C905.976 217.199 896.943 208.678 888.411 200.281C863.876 176.13 838.048 153.321 812.37 130.389C798.656 118.141 785.059 105.671 770.258 94.7625C753.395 82.3356 733.609 88.2282 717.273 97.5398C677.199 120.383 637.6 144.081 598.499 168.553C550.786 198.416 501.542 226.264 456.876 260.516C436.103 276.447 418.533 296.69 403.48 318.108C387.46 340.903 376.027 366.679 364.454 392.023C318.699 492.222 275.863 593.728 231.568 694.58ZM459.635 694.58C509.295 694.58 509.295 694.58 558.955 694.58C558.802 670.134 558.88 645.684 558.495 621.24C558.426 616.848 559.367 611.907 557.116 608.135C547.841 592.603 524.504 595.144 509.295 595.261C466.498 595.59 460.379 602.043 459.718 645.252C459.466 661.693 459.663 678.137 459.635 694.58ZM72.472 751.597C66.5803 751.792 61.174 757.413 58.7925 762.805C55.1762 770.994 53.9987 780.705 55.7394 789.486C58.7923 804.886 80.2958 819.436 91.0945 826.317C152.305 865.32 218.045 895.825 291.861 897.186C396.49 899.115 501.154 899.215 605.798 898.565C682.889 898.087 762.916 900.765 835.993 876.207C878.026 862.081 915.531 836.198 951.636 810.453C964.373 801.371 970.302 782.009 962.037 767.774C958.999 762.542 954.697 756.925 948.877 755.276C934.651 751.246 919.463 751.771 904.68 751.524C772.898 749.318 641.095 747.907 509.295 747.919C363.682 747.932 218.005 746.788 72.472 751.597Z" fill="{{fill}}" fill-rule="nonzero" opacity="1" stroke="none"/>
</g>
</svg>
