<?xml version="1.0" encoding="UTF-8" standalone="no"?>
<!DOCTYPE svg PUBLIC "-//W3C//DTD SVG 1.1//EN" "http://www.w3.org/Graphics/SVG/1.1/DTD/svg11.dtd">
<!-- Created with Vectornator (http://vectornator.io/) -->
<svg height="{{height}}" stroke-miterlimit="10" style="fill-rule:nonzero;clip-rule:evenodd;stroke-linecap:round;stroke-linejoin:round;" version="1.1" viewBox="0 0 1024 1024" width="{{width}}" xml:space="preserve" xmlns="http://www.w3.org/2000/svg" xmlns:vectornator="http://vectornator.io" xmlns:xlink="http://www.w3.org/1999/xlink">
<defs/>
<g id="Layer-1" vectornator:layerName="Layer 1">
<path d="M268.926 368.212C254.955 356.028 241.362 343.395 227.013 331.658C215.588 322.313 199.627 309.378 189.982 328.528C188.84 330.797 187.81 333.461 188.284 335.956C190.919 349.832 203.535 359.945 213.272 370.175C231.516 389.341 250.099 408.205 269.35 426.359C274.352 431.076 279.036 438.318 285.903 438.667C292.508 439.004 297.677 432.396 302.668 428.057C322.418 410.883 341.296 392.711 359.913 374.313C370.199 364.148 382.791 354.628 387.766 341.049C389.111 337.376 386.675 331.259 385.06 328.794C372.826 310.118 359.708 321.101 346.225 332.773C333.083 344.149 320.724 356.399 307.973 368.212C307.873 310.522 313.127 252.31 305.223 195.164C303.772 184.676 281.566 183.475 276.565 190.801C270.746 199.326 269.972 226.654 269.861 232.238C268.967 277.555 269.238 322.888 268.926 368.212ZM717.122 368.212C703.152 356.028 689.667 343.262 675.21 331.658C665.971 324.243 645.644 308.353 638.179 328.528C637.191 331.197 635.553 334.222 636.513 336.9C646.868 365.8 695.264 406.232 717.547 426.359C722.649 430.968 727.233 438.318 734.099 438.667C740.704 439.004 745.874 432.396 750.864 428.057C770.615 410.883 789.493 392.711 808.109 374.313C818.395 364.148 830.988 354.628 835.962 341.049C837.308 337.376 834.872 331.259 833.257 328.794C821.023 310.118 807.904 321.101 794.421 332.773C781.279 344.149 768.92 356.399 756.17 368.212C756.07 310.522 761.324 252.31 753.419 195.164C751.969 184.676 729.763 183.475 724.762 190.801C718.943 199.326 718.168 226.654 718.058 232.238C717.163 277.555 717.434 322.888 717.122 368.212ZM492.175 373.305C419.138 395.495 457.148 510.262 531.223 486.203C604.48 462.411 571.822 349.108 492.175 373.305ZM525.44 445.193C505.147 460.615 479.895 429.527 499.815 414.051C520.122 398.273 546.304 429.337 525.44 445.193ZM268.077 495.541C195.039 517.73 233.05 632.497 307.124 608.439C380.381 584.646 347.724 471.343 268.077 495.541ZM716.273 495.541C643.236 517.73 681.246 632.497 755.321 608.439C828.578 584.646 795.92 471.343 716.273 495.541ZM217.994 711.151C218.472 743.513 216.77 775.982 219.427 808.239C219.889 813.859 223.066 819.445 227.226 823.253C233.51 829.005 241.012 835.144 249.508 835.774C278.328 837.908 307.372 834.534 336.091 831.317C342.87 830.558 355.449 817.934 356.163 811.936C360.136 778.544 359.122 744.746 360.602 711.151C378.87 739.906 395.761 769.584 415.407 797.416C426.115 812.586 458.205 800.681 450.259 783.354C438.868 758.518 421.299 736.837 409.927 711.993C389.62 667.63 405.363 641.848 429.996 603.558C433.422 598.234 438.06 593.796 442.093 588.915C442.305 623.577 441.024 658.28 442.729 692.9C443.154 701.522 443.822 710.873 448.459 718.154C452.935 725.182 460.192 731.824 468.407 733.221C492.607 737.337 517.542 735.548 542.045 734.07C550.61 733.553 559.605 731.837 566.875 727.279C573.352 723.218 580.431 717.048 581.305 709.453C585.967 668.971 582.437 627.963 583.003 587.218C601.112 616.645 638.507 640.966 637.33 675.499C635.97 715.377 595.214 743.353 576.477 778.582C566.562 797.224 594.798 815.783 607.62 798.736C628.544 770.916 645.535 740.346 664.493 711.151C665.908 745.388 661.183 780.439 668.737 813.862C671.079 824.222 682.147 832.737 692.505 835.084C716.446 840.508 741.6 836.396 766.144 835.933C774.941 835.767 789.624 833.092 796.066 825.746C800.551 820.633 804.549 814.267 805.191 807.496C808.279 774.955 806.465 742.134 807.101 709.453C826.642 739.571 843.664 771.482 865.723 799.807C878.9 816.727 902.738 799.052 895.902 777.888C882.909 737.662 854.448 703.943 829.278 669.981C804.85 637.022 760.338 630.614 722.375 633.48C707.466 634.606 692.802 641.662 677.969 639.794C669.804 638.765 663.041 631.818 657.936 625.363C638.497 600.789 624.404 572.298 605.073 547.64C588.948 527.07 563.776 516.583 538.279 513.791C516.248 511.379 493.769 512.124 471.803 515.065C459.565 516.703 435.804 530.345 427.609 540.796C408.326 565.389 393.093 592.981 373.866 617.617C367.154 626.217 360.779 637.899 350.098 640.112C332.078 643.845 313.62 634.819 295.24 633.905C265.423 632.421 230.611 635.951 207.171 657.036C175.33 685.679 157.211 726.771 135.655 763.78C132.083 769.912 128.39 776.313 127.166 783.304C124.073 800.981 147.749 813.896 159.406 798.761C180.844 770.928 198.465 740.354 217.994 711.151ZM301.341 567.429C281.049 582.851 255.796 551.763 275.716 536.286C296.023 520.509 322.205 551.572 301.341 567.429ZM749.538 567.429C729.245 582.851 703.993 551.763 723.913 536.286C744.22 520.509 770.402 551.572 749.538 567.429ZM511.699 551.566C550.396 551.223 543.457 552.813 543.743 594.008C543.975 627.396 543.885 660.785 543.955 694.174C512.548 694.174 512.548 694.174 481.14 694.174C481.193 660.396 480.946 626.617 481.299 592.841C481.44 579.343 480.619 565.56 483.687 552.414C493.024 552.131 502.357 551.648 511.699 551.566ZM307.549 674.225C320.286 674.811 319.381 697.766 319.645 710.514C320.234 739.016 319.786 767.529 319.857 796.036C288.449 796.036 288.449 796.036 257.042 796.036C257.095 767.14 256.848 738.241 257.201 709.347C257.342 697.755 256.574 685.844 259.588 674.65C275.575 674.508 291.578 673.491 307.549 674.225ZM735.797 673.801C771.615 673.484 767.532 672.426 767.842 710.514C768.073 739.021 767.983 767.529 768.054 796.036C736.646 796.036 736.646 796.036 705.238 796.036C705.291 767.14 705.044 738.241 705.397 709.347C705.539 697.755 704.771 685.844 707.785 674.65C717.122 674.367 726.456 673.884 735.797 673.801Z" fill="{{fill}}" fill-rule="nonzero" opacity="1" stroke="none"/>
</g>
</svg>
