<?xml version="1.0" encoding="UTF-8" standalone="no"?>
<!DOCTYPE svg PUBLIC "-//W3C//DTD SVG 1.1//EN" "http://www.w3.org/Graphics/SVG/1.1/DTD/svg11.dtd">
<!-- Created with Vectornator (http://vectornator.io/) -->
<svg height="{{height}}" stroke-miterlimit="10" style="fill-rule:nonzero;clip-rule:evenodd;stroke-linecap:round;stroke-linejoin:round;" version="1.1" viewBox="0 0 1024 1024" width="{{width}}" xml:space="preserve" xmlns="http://www.w3.org/2000/svg" xmlns:xlink="http://www.w3.org/1999/xlink">
<defs/>
<g id="Layer-1">
<path d="M788.691 87.6063C782.813 92.3824 775.347 95.6933 771.056 101.935C766.909 107.967 765.068 115.583 764.443 122.876C763.932 128.835 764.898 135.254 767.75 140.511C775.071 154.008 795.784 163.388 788.416 181.843C778.928 205.603 756.008 221.544 737.991 239.708C710.344 212.337 683.523 184.106 655.051 157.595C643.956 147.264 626.321 131.191 608.828 138.651C586.575 148.141 578.214 161.423 580.103 185.701C580.341 188.76 581.263 191.996 583.211 194.367C593.246 206.58 604.483 217.771 615.648 228.961C677.943 291.399 740.199 353.887 803.571 415.231C815.33 426.614 826.958 438.581 840.957 447.062C851.714 453.579 867.605 449.726 878.519 443.474C901.863 430.101 893.448 404.834 880.172 388.227C861.706 365.127 840.568 344.18 822.928 320.443C816.574 311.893 811.412 297.517 812.214 286.055C813.19 272.116 821.736 262.53 832.922 253.559C839.714 248.113 847.884 244.247 856.233 241.78C871.195 237.359 883.57 256.864 897.67 263.542C902.244 265.709 907.697 265.431 912.756 265.265C938.726 264.412 946.763 244.692 946.028 220.695C945.899 216.48 943.959 212.345 941.619 208.836C937.25 202.281 931.729 196.536 926.189 190.936C897.913 162.356 869.796 133.573 840.218 106.343C829.307 96.2983 815.325 88.7469 788.691 87.6063ZM451.423 343.313C482.651 374.45 514.812 404.679 545.108 436.723C548.382 440.186 550.918 444.701 551.721 449.398C553.65 460.673 543.244 474.044 532.433 477.78C526.586 479.8 518.82 479.228 514.04 475.3C477.788 445.503 445.843 410.822 411.744 378.583C398.786 392.728 383.569 405.095 372.87 421.017C367.686 428.731 364.04 438.608 365.213 447.828C366.78 460.152 372.951 471.984 380.599 481.775C399.417 505.867 424.393 524.624 443.707 548.319C446.332 551.539 445.855 556.666 444.947 560.719C443.507 567.148 441.486 574.048 436.888 578.767C427.75 588.146 412.748 585.878 403.847 577.979C370.474 548.362 340.041 515.588 308.139 484.393C283.156 509.008 256.327 531.881 233.19 558.239C224.628 567.994 215.835 579.154 213.72 591.96C204.182 649.718 215.636 712.093 193.939 766.464C176.511 810.134 131.409 837.047 104.992 875.944C100.243 882.936 102.213 893.555 105.612 901.294C109.811 910.853 117.918 918.643 126.413 924.713C130.996 927.987 137.366 928.347 142.987 928C148.891 927.635 155.291 926.344 159.906 922.643C184.708 902.752 204.939 877.495 230.137 858.108C243.848 847.558 259.661 839.663 275.812 833.463C321.627 815.873 373.62 825.256 422.49 820.766C430.467 820.033 439 818.094 445.267 813.105C481.551 784.221 515.329 752.265 548.828 720.191C630.563 641.935 710.206 561.523 790.895 482.188C669.655 362.05 669.655 362.05 548.415 241.912C499.919 292.613 499.919 292.613 451.423 343.313Z" fill="{{fill}}" fill-rule="nonzero" opacity="1" stroke="none"/>
</g>
</svg>
