<?xml version="1.0" encoding="UTF-8" standalone="no"?>
<!DOCTYPE svg PUBLIC "-//W3C//DTD SVG 1.1//EN" "http://www.w3.org/Graphics/SVG/1.1/DTD/svg11.dtd">
<!-- Created with Vectornator (http://vectornator.io/) -->
<svg height="{{height}}" stroke-miterlimit="10" style="fill-rule:nonzero;clip-rule:evenodd;stroke-linecap:round;stroke-linejoin:round;" version="1.1" viewBox="0 0 1024 1024" width="{{width}}" xml:space="preserve" xmlns="http://www.w3.org/2000/svg" xmlns:vectornator="http://vectornator.io" xmlns:xlink="http://www.w3.org/1999/xlink">
<defs/>
<g id="Layer-1" vectornator:layerName="Layer 1">
<path d="M242.716 217.485C234.612 219.355 225.572 223.719 215.597 230.577C205.621 237.435 198.452 244.605 194.088 252.086C189.723 259.567 186.606 268.607 184.736 279.206C182.866 289.804 182.866 299.78 184.736 309.131C186.606 318.483 190.97 328.146 197.828 338.122C204.686 348.097 213.726 355.89 224.948 361.501C236.17 367.112 246.145 370.229 254.874 370.853C263.602 371.476 273.889 369.917 285.734 366.177C297.58 362.436 307.243 357.137 314.725 350.279C322.206 343.421 327.817 335.628 331.558 326.9C335.298 318.171 337.48 308.508 338.104 297.909C338.727 287.311 338.416 279.206 337.169 273.595C335.922 267.984 332.181 260.191 325.947 250.216C319.712 240.24 312.542 232.759 304.438 227.771C296.333 222.784 286.046 219.355 273.577 217.485C261.108 215.614 250.821 215.614 242.716 217.485ZM510.175 217.485C502.07 219.355 492.407 224.031 481.185 231.512C469.963 238.993 461.546 247.098 455.935 255.827C450.324 264.555 446.272 275.153 443.778 287.622C441.284 300.091 441.284 311.937 443.778 323.159C446.272 334.381 450.948 344.979 457.806 354.955C464.664 364.93 473.08 373.035 483.055 379.269C493.03 385.504 504.876 389.556 518.592 391.426C532.308 393.297 545.712 392.05 558.804 387.686C571.896 383.321 582.495 377.399 590.6 369.917C598.705 362.436 605.251 353.396 610.238 342.797C615.226 332.199 618.031 320.977 618.655 309.131C619.278 297.286 617.408 285.44 613.044 273.595C608.68 261.749 603.069 252.086 596.211 244.605C589.353 237.123 581.248 230.889 571.896 225.901C562.545 220.914 551.946 217.796 540.101 216.549C528.255 215.303 518.28 215.614 510.175 217.485ZM781.375 217.485C773.27 219.355 764.23 223.719 754.255 230.577C744.279 237.435 737.11 244.605 732.746 252.086C728.382 259.567 725.264 268.607 723.394 279.206C721.524 289.804 721.524 299.78 723.394 309.131C725.264 318.483 729.628 328.146 736.486 338.122C743.344 348.097 752.384 355.89 763.606 361.501C774.828 367.112 784.804 370.229 793.532 370.853C802.26 371.476 812.547 369.917 824.392 366.177C836.238 362.436 845.901 357.137 853.383 350.279C860.864 343.421 866.475 335.628 870.216 326.9C873.956 318.171 876.138 308.508 876.762 297.909C877.385 287.311 877.074 279.206 875.827 273.595C874.58 267.984 870.839 260.191 864.605 250.216C858.37 240.24 851.201 232.759 843.096 227.771C834.991 222.784 824.704 219.355 812.235 217.485C799.766 215.614 789.479 215.614 781.375 217.485ZM194.088 425.092C174.761 430.703 159.175 437.873 147.329 446.601C135.484 455.33 125.82 464.058 118.339 472.786C110.857 481.514 104.623 490.554 99.6354 499.906C94.6478 509.258 90.5954 519.856 87.4782 531.702C84.3609 543.547 82.4906 554.769 81.8672 565.368C81.2437 575.967 81.8672 587.189 83.7375 599.034C85.6078 610.88 89.3485 623.348 94.9595 636.441C100.571 649.533 105.87 659.508 110.857 666.366C115.845 673.224 123.326 681.017 133.302 689.746C143.277 698.474 152.005 704.708 159.486 708.449C166.968 712.19 171.02 723.1 171.644 741.18C172.267 759.26 174.449 771.417 178.19 777.652C181.93 783.886 187.853 788.874 195.958 792.614C204.063 796.355 227.13 797.914 265.161 797.29C303.191 796.667 324.076 795.42 327.817 793.549C331.558 791.679 335.922 787.627 340.909 781.392C345.897 775.158 348.702 763.624 349.326 746.791C349.949 729.958 347.144 717.489 340.909 709.384C334.675 701.279 328.44 689.746 322.206 674.783C315.971 659.82 311.607 644.234 309.114 628.024C306.62 611.815 305.685 598.099 306.308 586.877C306.931 575.655 308.802 563.186 311.919 549.47C315.036 535.754 319.4 522.662 325.011 510.193C330.622 497.724 339.974 483.696 353.067 468.11C359.613 460.317 366.159 452.524 372.705 444.731C368.653 442.237 364.6 439.743 360.548 437.25C352.443 432.262 342.156 427.898 329.687 424.157C317.218 420.417 296.333 418.234 267.031 417.611C237.729 416.988 213.414 419.481 194.088 425.092ZM741.162 422.287C724.953 426.028 712.172 430.392 702.82 435.379C698.144 437.873 693.469 440.367 688.793 442.861C695.027 450.654 701.262 458.447 707.496 466.24C719.965 481.826 729.005 495.542 734.616 507.387C740.227 519.233 744.903 533.26 748.644 549.47C752.384 565.68 754.255 581.266 754.255 596.229C754.255 611.191 753.008 624.907 750.514 637.376C748.02 649.845 743.656 663.249 737.422 677.588C731.187 691.928 724.953 703.15 718.718 711.255C712.484 719.359 709.678 730.893 710.302 745.856C710.925 760.819 713.107 771.417 716.848 777.652C720.588 783.886 726.511 788.874 734.616 792.614C742.721 796.355 764.541 798.225 800.078 798.225C835.614 798.225 856.5 796.978 862.734 794.485C868.969 791.991 874.58 787.627 879.567 781.392C884.555 775.158 887.361 762.689 887.984 743.985C888.607 725.282 894.53 712.501 905.752 705.643C916.974 698.786 926.326 691.616 933.807 684.135C941.289 676.653 948.458 667.613 955.316 657.015C962.174 646.416 967.785 633.635 972.149 618.673C976.513 603.71 978.384 587.189 977.76 569.109C977.137 551.029 975.578 537.625 973.084 528.896C970.591 520.168 966.538 510.505 960.927 499.906C955.316 489.307 947.211 478.397 936.613 467.175C926.014 455.953 917.598 448.16 911.363 443.796C905.129 439.432 893.283 434.132 875.827 427.898C858.37 421.663 835.614 418.234 807.559 417.611C779.504 416.988 757.372 418.546 741.162 422.287ZM463.417 447.536C444.09 453.147 428.504 460.317 416.658 469.045C404.813 477.774 395.149 486.502 387.668 495.23C380.186 503.958 373.952 512.998 368.964 522.35C363.977 531.702 359.924 542.3 356.807 554.146C353.69 565.991 351.82 577.213 351.196 587.812C350.573 598.411 350.884 608.386 352.131 617.737C353.378 627.089 355.249 635.817 357.742 643.922C360.236 652.027 365.847 663.249 374.575 677.588C383.304 691.928 392.967 703.773 403.566 713.125C414.164 722.477 422.893 728.711 429.751 731.828C436.608 734.945 440.037 747.103 440.037 768.3C440.037 789.497 440.661 803.213 441.908 809.447C443.155 815.682 445.337 820.981 448.454 825.345C451.571 829.709 457.182 833.762 465.287 837.502C473.392 841.243 495.212 843.114 530.749 843.114C566.285 843.114 587.171 841.867 593.405 839.373C599.64 836.879 605.251 832.515 610.238 826.28C615.226 820.046 618.031 803.836 618.655 777.652C619.278 751.467 625.201 734.945 636.423 728.088C647.645 721.23 656.997 714.06 664.478 706.579C671.96 699.097 679.129 690.057 685.987 679.459C692.845 668.86 698.456 656.079 702.82 641.117C707.184 626.154 709.055 609.633 708.431 591.553C707.808 573.473 706.249 560.069 703.755 551.34C701.262 542.612 697.209 532.949 691.598 522.35C685.987 511.752 677.882 500.841 667.284 489.619C656.685 478.397 648.269 470.604 642.034 466.24C635.8 461.876 623.954 456.576 606.498 450.342C589.041 444.108 565.662 440.679 536.36 440.055C507.058 439.432 482.743 441.925 463.417 447.536ZM888.919 515.804C890.789 517.674 892.66 519.545 894.53 521.415C898.271 525.156 902.012 532.014 905.752 541.989C909.493 551.964 910.74 565.056 909.493 581.266C908.246 597.475 904.817 609.944 899.206 618.673C896.4 623.037 893.595 627.401 890.789 631.765C890.478 612.438 890.166 593.111 889.854 573.784C889.543 554.458 889.231 535.131 888.919 515.804ZM168.838 517.674C169.15 536.378 169.461 555.081 169.773 573.784C170.085 592.488 170.397 611.191 170.708 629.895C167.903 625.842 165.097 621.79 162.292 617.737C156.681 609.633 152.94 600.904 151.07 591.553C149.199 582.201 149.199 571.602 151.07 559.757C152.94 547.911 156.369 537.936 161.357 529.831C163.85 525.779 166.344 521.727 168.838 517.674ZM619.59 538.248C621.46 540.118 623.331 541.989 625.201 543.859C628.942 547.6 632.682 554.458 636.423 564.433C640.164 574.408 641.411 587.5 640.164 603.71C638.917 619.92 635.488 632.388 629.877 641.117C627.071 645.481 624.266 649.845 621.46 654.209C621.149 634.882 620.837 615.555 620.525 596.229C620.214 576.902 619.902 557.575 619.59 538.248ZM438.167 540.118C438.479 558.822 438.79 577.525 439.102 596.229C439.414 614.932 439.726 633.635 440.037 652.339C437.232 648.286 434.426 644.234 431.621 640.182C426.01 632.077 422.269 623.348 420.399 613.997C418.528 604.645 418.528 594.046 420.399 582.201C422.269 570.356 425.698 560.38 430.686 552.276C433.179 548.223 435.673 544.171 438.167 540.118Z" fill="{{fill}}" fill-rule="nonzero" opacity="1" stroke="none"/>
</g>
</svg>
