<?xml version="1.0" encoding="UTF-8" standalone="no"?>
<!DOCTYPE svg PUBLIC "-//W3C//DTD SVG 1.1//EN" "http://www.w3.org/Graphics/SVG/1.1/DTD/svg11.dtd">
<!-- Created with Vectornator (http://vectornator.io/) -->
<svg height="{{height}}" stroke-miterlimit="10" style="fill-rule:nonzero;clip-rule:evenodd;stroke-linecap:round;stroke-linejoin:round;" version="1.1" viewBox="0 0 1024 1024" width="{{width}}" xml:space="preserve" xmlns="http://www.w3.org/2000/svg" xmlns:vectornator="http://vectornator.io" xmlns:xlink="http://www.w3.org/1999/xlink">
<defs/>
<g id="Layer-1" vectornator:layerName="Layer 1">
<path d="M309.864 202.507C311.055 203.542 312.815 204.162 313.437 205.612C321.317 224 334.856 241.552 335.169 261.554C335.574 287.392 319.23 310.967 315.487 336.535C313.155 352.464 314.06 369 317.127 384.804C322.813 414.099 344.845 438.222 364.121 461.003C423.22 403.924 423.22 403.924 482.319 346.845C467.132 436.281 453.541 527.257 421.397 612.089C415.029 628.896 405.829 644.735 395.133 659.179C391.243 664.431 385.035 668.382 378.656 669.807C358.285 674.357 336.78 672.14 316.424 676.759C283.478 684.237 252.802 701.836 227.385 723.622C216.136 733.264 204.883 743.643 197.393 756.426C183.521 780.103 172.803 805.688 164.061 831.7C159.82 844.322 158.982 857.984 158.789 871.299C158.667 879.72 159.236 888.72 163.127 896.19C168.093 905.726 175.159 914.93 184.388 920.446C192.335 925.196 202.487 925.122 211.744 925.25C338.243 926.998 464.777 927.843 591.275 926.07C645.937 925.304 701.048 926.07 755.061 917.634C763.558 916.307 768.245 905.782 771.678 897.896C780.029 878.715 776.201 850.559 771.228 831.875C761.512 795.371 742.433 760.497 717.57 732.057C709.251 722.541 699.193 714.453 688.515 707.689C673.967 698.472 655.989 694.984 642.384 684.426C635.682 679.226 630 670.714 629.937 662.232C629.435 595.124 639.569 528.291 640.715 461.19C641.601 409.313 637.591 357.467 636.029 305.606C659.12 305.521 682.253 306.745 705.302 305.352C721.054 304.401 747.502 301.693 759.745 287.322C767.823 277.839 772.243 265.77 778.492 254.994C788.88 269.755 796.697 286.713 809.656 299.279C814.834 304.3 823.23 304.844 830.425 305.352C842.186 306.184 854.107 305.206 865.732 303.244C874.505 301.763 880.736 295.254 879.203 285.764C876.883 271.414 875.038 256.194 867.531 243.747C855.665 224.068 840.786 205.43 822.426 191.612C803.04 177.021 780.13 166.639 756.701 160.331C732.243 153.745 706.225 151.058 681.017 153.536C653.385 156.252 628.177 179.748 600.713 175.664C575.454 171.908 559.936 144.622 537.617 132.213C521.202 123.087 503.42 116.151 485.234 111.462C463.172 105.774 440.426 101.755 417.648 101.283C396.882 100.853 376.115 104.508 355.789 108.782C320.071 116.291 283.728 130.638 256.498 154.941C244.6 165.561 233.182 177.449 225.628 191.494C217.731 206.177 210.251 222.703 211.1 239.353C211.475 246.702 221.551 251.07 228.744 252.618C243.105 255.708 258.41 255.516 272.814 252.632C279.898 251.213 286.297 246.042 290.591 240.232C298.985 228.876 303.439 215.082 309.864 202.507ZM529.885 521.76C544.717 462.043 552.368 401.987 561.048 341.221C564.823 352.546 564.665 364.9 564.797 376.837C565.257 418.093 566.093 459.368 565.032 500.614C563.524 559.203 553.68 610.53 545.115 669.261C524.27 671.266 503.26 671.081 482.319 671.136C499.402 621.752 517.288 572.475 529.885 521.76ZM273.186 784.338C322.558 733.946 404.664 746.199 467.323 746.116C549.172 746.008 643.714 732.655 687.168 818.519C692.329 828.717 694.315 840.233 697.888 851.089C467.323 851.089 467.323 851.089 236.757 851.089C246.238 827.581 255.447 802.444 273.186 784.338Z" fill="{{fill}}" fill-rule="nonzero" opacity="1" stroke="none"/>
</g>
</svg>
