<?xml version="1.0" encoding="UTF-8" standalone="no"?>
<!DOCTYPE svg PUBLIC "-//W3C//DTD SVG 1.1//EN" "http://www.w3.org/Graphics/SVG/1.1/DTD/svg11.dtd">
<!-- Created with Vectornator (http://vectornator.io/) -->
<svg height="{{h}}" stroke-miterlimit="10" style="fill-rule:nonzero;clip-rule:evenodd;stroke-linecap:round;stroke-linejoin:round;" version="1.1" viewBox="0 0 1024 1024" width="{{w}}" xml:space="preserve" xmlns="http://www.w3.org/2000/svg" xmlns:vectornator="http://vectornator.io" xmlns:xlink="http://www.w3.org/1999/xlink">
<defs/>
<g id="Layer-1" vectornator:layerName="Layer 1">
<path d="M464.586 83.2221C437.426 86.5343 408.94 93.1589 379.13 103.096C349.319 113.032 322.49 124.957 298.642 138.868C274.793 152.78 251.276 170.003 228.09 190.539C204.905 211.075 185.362 231.943 169.463 253.141C153.565 274.34 138.659 299.182 124.748 327.667C110.836 356.153 100.568 383.976 93.9438 411.136C87.3193 438.297 83.3446 467.776 82.0197 499.574C80.6948 531.371 82.3509 561.513 86.9881 589.998C91.6253 618.484 98.2498 644.651 106.862 668.499C115.474 692.347 128.06 717.852 144.621 745.012C161.183 772.173 179.4 796.352 199.274 817.551C219.147 838.749 239.021 856.635 258.895 871.209C278.768 885.783 300.629 899.032 324.477 910.957C348.326 922.881 375.486 932.818 405.959 940.767C436.432 948.716 468.23 953.354 501.352 954.678C534.475 956.003 563.623 954.678 588.796 950.704C613.969 946.729 637.486 941.098 659.347 933.811C681.208 926.524 704.725 915.925 729.898 902.014C755.072 888.102 775.276 875.184 790.513 863.26C805.749 851.336 818.667 840.074 829.266 829.475C839.865 818.876 853.115 802.977 869.013 781.778C884.912 760.58 899.155 737.394 911.742 712.221C924.328 687.048 934.596 658.562 942.546 626.764C950.495 594.967 955.132 566.15 956.457 540.314C957.782 514.479 956.457 486.987 952.482 457.839C948.508 428.691 942.877 402.855 935.59 380.332C928.303 357.809 916.379 331.973 899.817 302.825C883.256 273.677 867.357 250.16 852.121 232.274C836.884 214.388 816.68 195.508 791.506 175.634C766.333 155.761 741.491 139.531 716.981 126.944C692.47 114.357 665.64 104.089 636.493 96.1399C607.345 88.1905 578.197 83.2221 549.049 81.2347C519.901 79.2473 491.747 79.9098 464.586 83.2221ZM519.238 298.85C525.863 298.85 531.494 299.844 536.131 301.831C540.768 303.819 544.743 306.469 548.055 309.781C551.367 313.093 554.348 318.724 556.998 326.673C559.648 334.623 560.973 371.058 560.973 435.978C560.973 500.898 559.317 537.665 556.005 546.276C552.692 554.888 546.399 561.513 537.125 566.15C527.85 570.787 518.245 571.781 508.308 569.131C498.371 566.481 491.415 562.838 487.441 558.201C483.466 553.563 480.816 548.926 479.491 544.289C478.166 539.652 477.504 503.548 477.504 435.978C477.504 368.408 479.491 330.317 483.466 321.705C487.441 313.093 492.74 307.131 499.365 303.819C505.989 300.507 512.614 298.85 519.238 298.85ZM526.194 627.758C532.156 628.421 538.45 630.408 545.074 633.72C551.699 637.032 557.992 643.326 563.954 652.6C569.916 661.874 572.897 671.811 572.897 682.41C572.897 693.01 571.572 701.29 568.922 707.252C566.273 713.215 561.967 718.845 556.005 724.145C550.042 729.445 543.749 733.088 537.125 735.075C530.5 737.063 522.882 737.725 514.27 737.063C505.658 736.4 499.034 735.075 494.396 733.088C489.759 731.101 484.791 727.457 479.491 722.158C474.192 716.858 470.217 710.565 467.567 703.278C464.917 695.991 463.592 689.035 463.592 682.41C463.592 675.786 464.917 668.83 467.567 661.543C470.217 654.256 474.854 647.632 481.479 641.67C488.103 635.708 495.721 631.733 504.333 629.745C512.945 627.758 520.232 627.096 526.194 627.758Z" fill="{{fill}}" fill-rule="nonzero" opacity="1" stroke="none"/>
</g>
</svg>
