
<svg height="20px" stroke-miterlimit="10" style="fill-rule:nonzero;clip-rule:evenodd;stroke-linecap:round;stroke-linejoin:round;" version="1.1" viewBox="0 0 1024 1024" width="20px" xml:space="preserve" xmlns="http://www.w3.org/2000/svg" xmlns:vectornator="http://vectornator.io" xmlns:xlink="http://www.w3.org/1999/xlink">
<defs/>
<g id="Layer-1" vectornator:layerName="Layer 1">
<path d="M306.161 197.338C273.208 198.344 240.107 197.073 207.303 200.358C176.736 203.419 155.556 241.197 153.749 268.417C151.942 295.634 152.195 322.949 151.418 350.216C511.241 350.216 511.241 350.216 871.064 350.216C870.169 322.138 872.308 293.799 868.379 265.984C866.434 252.212 860.172 239.229 853.651 226.944C829.479 181.406 760.821 214.497 727.274 188.482C708.727 174.098 718.722 142.104 710.691 120.05C707.478 111.227 699.284 103.913 690.628 100.274C679.112 95.4322 665.849 94.9293 653.399 95.9626C645.559 96.6134 637.735 100.161 631.667 105.168C605.19 127.02 629.276 164.792 601.5 183.159C597.453 185.835 592.909 188.026 588.146 188.948C568.928 192.667 549.531 196.097 529.978 197.002C488.974 198.899 447.884 197.226 406.836 197.338C406.515 170.255 412.925 139.649 398.913 116.471C385.269 93.9015 355.049 94.1458 333.194 99.4583C327.981 100.726 323.566 104.62 319.91 108.547C315.021 113.798 309.123 119.402 308.025 126.492C304.41 149.837 306.782 173.722 306.161 197.338ZM871.064 402.418C511.241 402.418 511.241 402.418 151.418 402.418C151.418 476.993 150.681 551.571 151.418 626.142C152.191 704.26 151.13 782.491 155.949 860.465C156.531 869.891 161.638 878.931 167.498 886.338C181.073 903.495 205.724 911.543 227.566 912.788C279.233 915.734 331.023 916.639 382.774 916.517C528.146 916.173 673.702 919.25 818.861 911.39C831.456 910.708 843.007 901.054 850.847 891.173C859.645 880.086 865.706 865.761 866.291 851.618C872.48 702.004 869.473 552.151 871.064 402.418ZM510.309 531.059C569.514 531.31 628.739 531.197 687.915 533.08C726.536 534.309 724.336 605.327 683.061 606.38C582.083 608.956 481.032 610.143 380.036 608.43C364.387 608.165 348.711 607.814 333.129 606.342C330.084 606.055 327.065 604.873 324.513 603.187C297.553 585.372 299.266 539.796 327.601 533.856C387.215 521.358 449.4 530.801 510.309 531.059ZM389.649 686.093C419.069 685.703 448.497 685.537 477.915 685.976C498.374 686.282 518.932 685.941 539.253 688.326C543.163 688.784 546.477 691.731 549.402 694.366C569.416 712.391 563.393 749.303 538.274 759.444C524.804 764.882 509.392 762.951 494.872 763.359C454.22 764.501 413.512 764.742 372.868 763.359C357.133 762.824 339.851 765.28 325.956 757.878C298.956 743.496 298.763 700.942 324.804 690.463C344.902 682.375 367.987 686.38 389.649 686.093Z" fill="#ddd" fill-rule="nonzero" opacity="1" stroke="none"/>
</g>
</svg>
